<svg width="91" height="135" viewBox="0 0 91 135" fill="none" xmlns="http://www.w3.org/2000/svg">
<g clip-path="url(#clip0)">
<path d="M37.9609 134.993C30.749 135.2 13.4772 132.423 3.26349 105.67C0.346377 98.0234 -6.26523 72.0772 15.5092 51.1388C16.0865 50.5926 16.7561 50.9926 17.4026 50.4926C17.8646 50.2666 18.3618 50.1209 18.8727 50.0618C20.8123 49.5541 23.5524 49.508 25.4228 51.4464C25.4228 51.4464 29.0095 54.2311 25.646 57.4003C25.646 57.4003 13.5619 63.3926 16.2943 66.6311C22.7058 74.3234 20.2274 72.9003 41.1859 88.4849C48.1131 93.6234 58.3345 105.923 57.9035 118.8C57.7342 123.685 55.2327 131.793 41.617 134.639C40.4079 134.841 39.1863 134.959 37.9609 134.993Z" fill="url(#paint0_linear)"/>
<path d="M16.8254 67.4001C16.8254 67.4001 6.4115 54.0693 19.6732 48.654C22.4825 47.5078 28.54 50.8232 26.9159 56.1924C25.9769 59.3078 18.003 60.0463 16.8254 67.4001Z" fill="url(#paint1_linear)"/>
<path d="M69.4335 97.5923C70.5534 100.149 70.8668 102.986 70.3319 105.725C69.7969 108.464 68.4391 110.975 66.4394 112.923C65.1078 114.254 63.4453 115.438 61.9752 116.962C57.3109 121.8 62.5987 131.246 71.9811 126.4C78.9622 122.785 86.1357 105.8 70.7881 98.1154L69.4335 97.5923Z" fill="url(#paint2_linear)"/>
<path d="M10.5293 57.9153C10.9835 56.3769 7.70459 69.5076 8.63591 80.223C10.4524 101.085 21.3819 125.546 39.4234 129.261C48.2132 131.069 58.4346 122.808 55.6868 114.138C50.7608 98.5846 13.3541 76.6307 10.8372 59.8846C10.8141 59.7307 10.5293 57.9153 10.5293 57.9153Z" fill="#48C4EB"/>
<path d="M10.5677 57.5922C10.6678 57.1153 9.85963 63.746 21.3433 75.1922C25.4997 79.3384 32.6193 83.823 40.1083 89.5922C48.2516 95.8614 62.5908 115.908 53.1391 124.085C53.1391 124.085 47.1509 129.361 43.1332 119.031C43.1332 119.031 38.4304 104.723 18.9881 83.4153C15.0242 79.0691 9.39782 68.0307 10.1136 61.2691C10.206 60.3384 10.5677 57.5922 10.5677 57.5922Z" fill="#85D0F0"/>
<path d="M43.5026 0C43.5026 0 32.65 8.03077 44.0799 30C46.5814 34.8077 40.3007 41.5385 35.4209 35.5769C34.0124 33.8615 33.6891 24.0385 33.6891 24.0385C33.6891 24.0385 8.28947 60.0769 71.4037 102.354C75.1444 104.862 79.0236 108.508 78.862 113.762C78.785 116.569 77.8922 118.654 73.6281 125.254C73.6281 125.254 116.777 95.0231 67.2012 44.0385C65.6619 42.5 61.8134 40 62.7755 28.6538C62.7755 28.6538 54.8401 32.6 60.4665 52.5C60.7667 53.5846 61.2362 63.4231 51.923 62.6308C48.3593 62.3231 41.9709 59.4308 46.0349 48.8462C47.3356 45.3846 49.4677 42.1154 53.878 36.1538C53.878 36.1538 56.9567 31.3462 54.6477 26.7308C51.5689 20.5769 44.3185 18.9462 43.1024 1.73077C43.1673 1.14015 43.3017 0.559223 43.5026 0V0Z" fill="url(#paint3_linear)"/>
</g>
<defs>
<linearGradient id="paint0_linear" x1="1.77984e-05" y1="92.3849" x2="57.9112" y2="92.3849" gradientUnits="userSpaceOnUse">
<stop stop-color="#72CEFB"/>
<stop offset="0.7" stop-color="#0067BA"/>
</linearGradient>
<linearGradient id="paint1_linear" x1="12.9384" y1="57.9155" x2="27.1853" y2="57.9155" gradientUnits="userSpaceOnUse">
<stop stop-color="#0079A4"/>
<stop offset="1" stop-color="#72CEFB"/>
</linearGradient>
<linearGradient id="paint2_linear" x1="60.2511" y1="112.669" x2="79.8935" y2="112.669" gradientUnits="userSpaceOnUse">
<stop stop-color="#FF8600"/>
<stop offset="1" stop-color="#982A05"/>
</linearGradient>
<linearGradient id="paint3_linear" x1="28.64" y1="62.6308" x2="90.9999" y2="62.6308" gradientUnits="userSpaceOnUse">
<stop stop-color="#FF8600"/>
<stop offset="1" stop-color="#DA2A00"/>
</linearGradient>
<clipPath id="clip0">
<rect width="91" height="135" fill="white"/>
</clipPath>
</defs>
</svg>
