<svg width="18" height="18" viewBox="0 0 18 18" fill="none" xmlns="http://www.w3.org/2000/svg">
<g clip-path="url(#clip0)">
<path d="M17.0947 2.31455L16.4355 1.65529C15.2284 0.448244 13.2715 0.448244 12.0644 1.65525C12.0644 1.65525 12.0644 1.65525 12.0644 1.65529L3.64024 10.0794C2.78674 10.9329 2.78674 12.3167 3.64024 13.1702L4.07974 13.6097C4.9491 14.4241 6.3012 14.4241 7.17056 13.6097L13.3904 7.3899C13.5394 7.246 13.5435 7.00862 13.3996 6.85963C13.2557 6.71067 13.0183 6.70655 12.8693 6.85042C12.8662 6.85344 12.8632 6.8565 12.8601 6.85963L6.64028 13.0795C6.06906 13.614 5.18124 13.614 4.61001 13.0795L4.17051 12.64C3.60987 12.0794 3.6098 11.1705 4.17037 10.6098C4.17041 10.6098 4.17048 10.6097 4.17051 10.6097L12.5946 2.18552C13.5216 1.30266 14.9783 1.30266 15.9052 2.18552L16.5644 2.84478C17.4783 3.75911 17.4783 5.241 16.5644 6.15533L7.17052 15.5492C5.90266 16.8167 3.84756 16.8167 2.5797 15.5492L1.70067 14.671C0.433269 13.4031 0.433269 11.348 1.70067 10.0802L8.89032 2.89056C9.03928 2.74666 9.04343 2.50928 8.89954 2.36029C8.75564 2.21133 8.51826 2.20718 8.36926 2.35107C8.36613 2.3541 8.36308 2.35716 8.36005 2.36029L1.17044 9.54916C-0.39014 11.1097 -0.39014 13.6399 1.1704 15.2005C1.1704 15.2005 1.17044 15.2005 1.17044 15.2005L2.04947 16.0795C3.61001 17.6401 6.14018 17.6401 7.70076 16.0796C7.70076 16.0796 7.70079 16.0795 7.70079 16.0795L17.0947 6.6856C18.3017 5.47859 18.3018 3.52159 17.0947 2.31455C17.0947 2.31455 17.0947 2.31455 17.0947 2.31455Z" fill="#CFD8DC"/>
<path d="M4.87478 17.2503C3.81431 17.2526 2.79687 16.8311 2.04874 16.0795L1.17045 15.2013C-0.390126 13.6407 -0.390161 11.1105 1.17041 9.54997L1.17045 9.54994L8.36009 2.36029C8.50398 2.21133 8.74136 2.20718 8.89036 2.35107C9.03932 2.49497 9.04346 2.73235 8.89957 2.88135C8.89654 2.88447 8.89349 2.88753 8.89036 2.89056L1.70072 10.0794C0.433317 11.3473 0.433317 13.4024 1.70072 14.6703L2.57975 15.5493C3.8476 16.8167 5.9027 16.8167 7.17056 15.5493L16.5645 6.15536C17.4783 5.24104 17.4783 3.75914 16.5645 2.84482L15.9052 2.18556C14.9783 1.3027 13.5216 1.3027 12.5947 2.18556L4.17049 10.6097C3.60984 11.1702 3.60977 12.0792 4.17034 12.6398C4.17038 12.6398 4.17045 12.6399 4.17049 12.6399L4.60998 13.0794C5.18121 13.6139 6.06902 13.6139 6.64025 13.0794L12.8601 6.85959C13.004 6.71063 13.2414 6.70648 13.3904 6.85038C13.5393 6.99428 13.5434 7.23166 13.3996 7.38065C13.3965 7.38378 13.3935 7.38684 13.3904 7.38986L7.17056 13.6097C6.3012 14.4241 4.9491 14.4241 4.07975 13.6097L3.64025 13.1702C2.78675 12.3167 2.78675 10.9329 3.64025 10.0794L12.0644 1.65529C13.2714 0.448244 15.2284 0.448244 16.4354 1.65525C16.4354 1.65525 16.4354 1.65525 16.4355 1.65529L17.0947 2.31455C18.3018 3.52159 18.3018 5.47856 17.0948 6.6856C17.0948 6.6856 17.0948 6.6856 17.0947 6.68564L7.70083 16.0795C6.95269 16.8311 5.93525 17.2526 4.87478 17.2503Z" fill="white"/>
</g>
<defs>
<clipPath id="clip0">
<rect width="18" height="18" fill="white"/>
</clipPath>
</defs>
</svg>
