<svg width="69" height="68" viewBox="0 0 69 68" fill="none" xmlns="http://www.w3.org/2000/svg">
<g clip-path="url(#clip0)">
<path d="M46.9667 29.4667H44.7C42.8223 29.4667 41.3 30.9889 41.3 32.8667V35.1333C41.3 37.0111 42.8223 38.5333 44.7 38.5333H46.9667C48.8445 38.5333 50.3667 37.0111 50.3667 35.1333V32.8667C50.3667 30.9889 48.8445 29.4667 46.9667 29.4667ZM48.1 35.1333C48.1 35.7592 47.5926 36.2667 46.9667 36.2667H44.7C44.0742 36.2667 43.5667 35.7592 43.5667 35.1333V32.8667C43.5667 32.2408 44.0742 31.7333 44.7 31.7333H46.9667C47.5926 31.7333 48.1 32.2408 48.1 32.8667V35.1333Z" fill="#053365"/>
<path d="M58.3 4.53333V1.13333C58.3 0.50745 57.7925 0 57.1667 0C56.5408 0 56.0333 0.50745 56.0333 1.13333V4.53333H46.9667V1.13333C46.9667 0.50745 46.4592 0 45.8333 0C45.2075 0 44.7 0.50745 44.7 1.13333V4.53333H35.6333V1.13333C35.6333 0.50745 35.1259 0 34.5 0C33.8741 0 33.3667 0.50745 33.3667 1.13333V4.53333H24.3V1.13333C24.3 0.50745 23.7925 0 23.1667 0C22.5408 0 22.0333 0.50745 22.0333 1.13333V4.53333H12.9667V1.13333C12.9667 0.50745 12.4592 0 11.8333 0C11.2074 0 10.7 0.50745 10.7 1.13333V4.53333H0.5V68H68.5V4.53333H58.3ZM66.2333 65.7333H2.76667V6.8H10.7V10.2C10.7 10.8259 11.2074 11.3333 11.8333 11.3333C12.4592 11.3333 12.9667 10.8259 12.9667 10.2V6.8H22.0333V10.2C22.0333 10.8259 22.5408 11.3333 23.1667 11.3333C23.7925 11.3333 24.3 10.8259 24.3 10.2V6.8H33.3667V10.2C33.3667 10.8259 33.8741 11.3333 34.5 11.3333C35.1259 11.3333 35.6333 10.8259 35.6333 10.2V6.8H44.7V10.2C44.7 10.8259 45.2075 11.3333 45.8333 11.3333C46.4592 11.3333 46.9667 10.8259 46.9667 10.2V6.8H56.0333V10.2C56.0333 10.8259 56.5408 11.3333 57.1667 11.3333C57.7925 11.3333 58.3 10.8259 58.3 10.2V6.8H66.2333V65.7333Z" fill="#053365"/>
<path d="M34.5 20.4C33.8741 20.4 33.3667 20.9075 33.3667 21.5333V23.8C33.3667 24.4259 33.8741 24.9333 34.5 24.9333C35.1259 24.9333 35.6334 24.4259 35.6334 23.8V21.5333C35.6334 20.9075 35.1259 20.4 34.5 20.4Z" fill="#053365"/>
<path d="M57.1668 20.4C56.5409 20.4 56.0334 20.9075 56.0334 21.5333V23.8C56.0334 24.4259 56.5409 24.9333 57.1668 24.9333C57.7927 24.9333 58.3001 24.4259 58.3001 23.8V21.5333C58.3001 20.9075 57.7927 20.4 57.1668 20.4Z" fill="#053365"/>
<path d="M45.8333 24.9333C46.4592 24.9333 46.9666 24.4259 46.9666 23.8V21.5333C46.9666 20.9075 46.4592 20.4 45.8333 20.4C45.2074 20.4 44.7 20.9075 44.7 21.5333V23.8C44.7 24.4259 45.2074 24.9333 45.8333 24.9333Z" fill="#053365"/>
<path d="M23.1668 20.4C22.5409 20.4 22.0334 20.9075 22.0334 21.5333V23.8C22.0334 24.4259 22.5409 24.9333 23.1668 24.9333C23.7927 24.9333 24.3001 24.4259 24.3001 23.8V21.5333C24.3001 20.9075 23.7927 20.4 23.1668 20.4Z" fill="#053365"/>
<path d="M11.8333 20.4C11.2074 20.4 10.7 20.9075 10.7 21.5333V23.8C10.7 24.4259 11.2074 24.9333 11.8333 24.9333C12.4592 24.9333 12.9666 24.4259 12.9666 23.8V21.5333C12.9666 20.9075 12.4592 20.4 11.8333 20.4Z" fill="#053365"/>
<path d="M23.1668 31.7333C22.5409 31.7333 22.0334 32.2408 22.0334 32.8667V35.1333C22.0334 35.7592 22.5409 36.2667 23.1668 36.2667C23.7927 36.2667 24.3001 35.7592 24.3001 35.1333V32.8667C24.3001 32.2408 23.7927 31.7333 23.1668 31.7333Z" fill="#053365"/>
<path d="M11.8333 31.7333C11.2074 31.7333 10.7 32.2408 10.7 32.8667V35.1333C10.7 35.7592 11.2074 36.2667 11.8333 36.2667C12.4592 36.2667 12.9666 35.7592 12.9666 35.1333V32.8667C12.9666 32.2408 12.4592 31.7333 11.8333 31.7333Z" fill="#053365"/>
<path d="M23.1668 43.0667C22.5409 43.0667 22.0334 43.5741 22.0334 44.2V46.4667C22.0334 47.0925 22.5409 47.6 23.1668 47.6C23.7927 47.6 24.3001 47.0925 24.3001 46.4667V44.2C24.3001 43.5741 23.7927 43.0667 23.1668 43.0667Z" fill="#053365"/>
<path d="M11.8333 43.0667C11.2074 43.0667 10.7 43.5741 10.7 44.2V46.4667C10.7 47.0925 11.2074 47.6 11.8333 47.6C12.4592 47.6 12.9666 47.0925 12.9666 46.4667V44.2C12.9666 43.5741 12.4592 43.0667 11.8333 43.0667Z" fill="#053365"/>
<path d="M23.1668 54.4C22.5409 54.4 22.0334 54.9075 22.0334 55.5333V57.8C22.0334 58.4259 22.5409 58.9333 23.1668 58.9333C23.7927 58.9333 24.3001 58.4259 24.3001 57.8V55.5333C24.3001 54.9075 23.7927 54.4 23.1668 54.4Z" fill="#053365"/>
<path d="M11.8333 54.4C11.2074 54.4 10.7 54.9075 10.7 55.5333V57.8C10.7 58.4259 11.2074 58.9333 11.8333 58.9333C12.4592 58.9333 12.9666 58.4259 12.9666 57.8V55.5333C12.9666 54.9075 12.4592 54.4 11.8333 54.4Z" fill="#053365"/>
<path d="M57.1668 43.0667C56.5409 43.0667 56.0334 43.5741 56.0334 44.2V46.4667C56.0334 47.0925 56.5409 47.6 57.1668 47.6C57.7927 47.6 58.3001 47.0925 58.3001 46.4667V44.2C58.3001 43.5741 57.7927 43.0667 57.1668 43.0667Z" fill="#053365"/>
<path d="M45.8333 43.0667C45.2074 43.0667 44.7 43.5741 44.7 44.2V46.4667C44.7 47.0925 45.2074 47.6 45.8333 47.6C46.4592 47.6 46.9666 47.0925 46.9666 46.4667V44.2C46.9666 43.5741 46.4592 43.0667 45.8333 43.0667Z" fill="#053365"/>
<path d="M57.1668 54.4C56.5409 54.4 56.0334 54.9075 56.0334 55.5333V57.8C56.0334 58.4259 56.5409 58.9333 57.1668 58.9333C57.7927 58.9333 58.3001 58.4259 58.3001 57.8V55.5333C58.3001 54.9075 57.7927 54.4 57.1668 54.4Z" fill="#053365"/>
<path d="M45.8333 54.4C45.2074 54.4 44.7 54.9075 44.7 55.5333V57.8C44.7 58.4259 45.2074 58.9333 45.8333 58.9333C46.4592 58.9333 46.9666 58.4259 46.9666 57.8V55.5333C46.9666 54.9075 46.4592 54.4 45.8333 54.4Z" fill="#053365"/>
<path d="M57.1668 31.7333C56.5409 31.7333 56.0334 32.2408 56.0334 32.8667V35.1333C56.0334 35.7592 56.5409 36.2667 57.1668 36.2667C57.7927 36.2667 58.3001 35.7592 58.3001 35.1333V32.8667C58.3001 32.2408 57.7927 31.7333 57.1668 31.7333Z" fill="#053365"/>
<path d="M34.5 31.7333C33.8741 31.7333 33.3667 32.2408 33.3667 32.8667V35.1333C33.3667 35.7592 33.8741 36.2667 34.5 36.2667C35.1259 36.2667 35.6334 35.7592 35.6334 35.1333V32.8667C35.6334 32.2408 35.1259 31.7333 34.5 31.7333Z" fill="#053365"/>
<path d="M34.5 43.0667C33.8741 43.0667 33.3667 43.5741 33.3667 44.2V46.4667C33.3667 47.0925 33.8741 47.6 34.5 47.6C35.1259 47.6 35.6334 47.0925 35.6334 46.4667V44.2C35.6334 43.5741 35.1259 43.0667 34.5 43.0667Z" fill="#053365"/>
<path d="M34.5 54.4C33.8741 54.4 33.3667 54.9075 33.3667 55.5333V57.8C33.3667 58.4259 33.8741 58.9333 34.5 58.9333C35.1259 58.9333 35.6334 58.4259 35.6334 57.8V55.5333C35.6334 54.9075 35.1259 54.4 34.5 54.4Z" fill="#053365"/>
</g>
<defs>
<clipPath id="clip0">
<rect width="68" height="68" fill="white" transform="translate(0.5)"/>
</clipPath>
</defs>
</svg>
