<svg width="71" height="70" viewBox="0 0 71 70" fill="none" xmlns="http://www.w3.org/2000/svg">
<g clip-path="url(#clip0)">
<path d="M67 67.6667V8.16667C67 7.52237 66.4776 7 65.8333 7H54.1667C53.5224 7 53 7.52237 53 8.16667V67.6667H50.6667V22.1667C50.6667 21.5224 50.1443 21 49.5 21H37.8333C37.189 21 36.6667 21.5224 36.6667 22.1667V67.6667H34.3333V36.1667C34.3333 35.5224 33.811 35 33.1667 35H21.5C20.8557 35 20.3333 35.5224 20.3333 36.1667V67.6667H18V50.1667C18 49.5224 17.4776 49 16.8333 49H5.16667C4.52237 49 4 49.5224 4 50.1667V67.6667H0.5V70H70.5V67.6667H67ZM15.6667 67.6667H6.33333V51.3333H15.6667V67.6667ZM32 67.6667H22.6667V37.3333H32V67.6667ZM48.3333 67.6667H39V23.3333H48.3333V67.6667ZM64.6667 67.6667H55.3333V9.33333H64.6667V67.6667Z" fill="#053365"/>
<path d="M10.6582 35.8248L42.5 3.983V10.5H44.8334V0H34.3334V2.33333H40.8504L9.00854 34.1752L10.6582 35.8248Z" fill="#053365"/>
</g>
<defs>
<clipPath id="clip0">
<rect width="70" height="70" fill="white" transform="translate(0.5)"/>
</clipPath>
</defs>
</svg>
