<svg width="63" height="62" viewBox="0 0 63 62" fill="none" xmlns="http://www.w3.org/2000/svg">
<g clip-path="url(#clip0)">
<path d="M31.4999 0C27.5051 0 24.2666 3.23847 24.2666 7.23333C24.2711 11.2263 27.507 14.4621 31.4999 14.4667C35.4948 14.4667 38.7333 11.2282 38.7333 7.23333C38.7333 3.23847 35.4948 0 31.4999 0ZM31.4999 12.4C28.6465 12.4 26.3333 10.0868 26.3333 7.23333C26.3366 4.38133 28.6479 2.07003 31.4999 2.06667C34.3534 2.06667 36.6666 4.37991 36.6666 7.23333C36.6666 10.0868 34.3534 12.4 31.4999 12.4Z" fill="#053365"/>
<path d="M34.6001 15.5H28.4001C23.2662 15.5057 19.1058 19.6661 19.1001 24.8V42.3667H23.2334V62H25.3001V38.2333H23.2334V40.3H21.1668V24.8C21.1713 20.8071 24.4072 17.5712 28.4001 17.5667H34.6001C38.593 17.5712 41.8289 20.8071 41.8334 24.8V40.3H39.7668V38.2333H37.7001V62H39.7668V42.3667H43.9001V24.8C43.8944 19.6661 39.734 15.5057 34.6001 15.5Z" fill="#053365"/>
<path d="M32.5332 42.3667H30.4666V62H32.5332V42.3667Z" fill="#053365"/>
<path d="M52.1666 10.3333C48.7423 10.3333 45.9666 13.1091 45.9666 16.5333C45.9699 19.9561 48.7438 22.73 52.1666 22.7333C55.5908 22.7333 58.3666 19.9575 58.3666 16.5333C58.3666 13.1091 55.5908 10.3333 52.1666 10.3333ZM52.1666 20.6667C49.8838 20.6667 48.0332 18.8161 48.0332 16.5333C48.0332 14.2506 49.8838 12.4 52.1666 12.4C54.4493 12.4 56.2999 14.2506 56.2999 16.5333C56.2999 18.8161 54.4493 20.6667 52.1666 20.6667Z" fill="#053365"/>
<path d="M55.2666 23.7667H45.9666V25.8333H55.2666C58.1186 25.8367 60.4299 28.148 60.4332 31V44.4333H58.3666V42.3667H56.2999V62H58.3666V46.5H62.4999V31C62.4954 27.0071 59.2595 23.7712 55.2666 23.7667Z" fill="#053365"/>
<path d="M45.9666 42.3667V44.4333H41.8333V46.5H45.9666V62H48.0332V42.3667H45.9666Z" fill="#053365"/>
<path d="M53.2 46.5H51.1333V62H53.2V46.5Z" fill="#053365"/>
<path d="M10.8333 10.3333C7.40909 10.3333 4.6333 13.1091 4.6333 16.5333C4.63666 19.9561 7.41051 22.73 10.8333 22.7333C14.2575 22.7333 17.0333 19.9575 17.0333 16.5333C17.0333 13.1091 14.2575 10.3333 10.8333 10.3333ZM10.8333 20.6667C8.55054 20.6667 6.69997 18.8161 6.69997 16.5333C6.69997 14.2506 8.55054 12.4 10.8333 12.4C13.1161 12.4 14.9666 14.2506 14.9666 16.5333C14.9666 18.8161 13.1161 20.6667 10.8333 20.6667Z" fill="#053365"/>
<path d="M7.73333 23.7667C3.7404 23.7712 0.504521 27.0071 0.5 31V46.5H4.63333V62H6.7V42.3667H4.63333V44.4333H2.56667V31C2.57003 28.148 4.88133 25.8367 7.73333 25.8333H17.0333V23.7667H7.73333Z" fill="#053365"/>
<path d="M17.0332 44.4333V42.3667H14.9666V62H17.0332V46.5H21.1666V44.4333H17.0332Z" fill="#053365"/>
<path d="M11.8667 46.5H9.80005V62H11.8667V46.5Z" fill="#053365"/>
</g>
<defs>
<clipPath id="clip0">
<rect width="62" height="62" fill="white" transform="translate(0.5)"/>
</clipPath>
</defs>
</svg>
