<svg width="67" height="66" viewBox="0 0 67 66" fill="none" xmlns="http://www.w3.org/2000/svg">
<g clip-path="url(#clip0)">
<path d="M66.2517 37.4062C65.685 35.8147 64.4467 34.5531 62.8661 33.9568C64.1852 32.5111 64.6386 30.4743 64.0573 28.6057C63.2116 26.3285 61.0599 24.7998 58.6314 24.7504H40.5232L40.5474 24.6789C41.7077 21.2024 42.2986 17.5612 42.2974 13.8963V10.4513C42.2926 6.20102 38.8481 2.75658 34.5979 2.75177H32.398C30.5756 2.75177 29.0982 4.22912 29.0982 6.05156V12.6512C29.0863 20.1146 23.3399 26.3153 15.899 26.8942V22.5505C15.899 21.9431 15.4065 21.4506 14.7991 21.4506H1.59993C0.992494 21.4506 0.5 21.9431 0.5 22.5505V62.1481C0.5 62.7555 0.992494 63.248 1.59993 63.248H14.7991C15.4065 63.248 15.899 62.7555 15.899 62.1481V58.4303L17.4862 59.2277C21.3154 61.1433 25.5372 62.143 29.8187 62.1481H54.3966C57.434 62.1457 59.8945 59.6816 59.8922 56.6443C59.8912 55.3037 59.4005 54.0097 58.5126 53.0054C59.2546 52.7256 59.9293 52.2923 60.4925 51.7339C62.4234 49.7973 62.638 46.7362 60.9962 44.5492C62.4575 44.5483 63.8588 43.9676 64.8922 42.9345C66.3347 41.486 66.8579 39.3584 66.2517 37.4062ZM13.6992 61.0481H2.69986V23.6505H13.6992V61.0481ZM62.0183 42.1895C61.6882 42.2962 61.3432 42.3501 60.9962 42.3492H56.5965H52.1968C51.5893 42.3492 51.0968 42.8417 51.0968 43.4491C51.0968 44.0565 51.5893 44.549 52.1968 44.549H56.5965C58.4189 44.549 59.8963 46.0264 59.8963 47.8488C59.8963 49.6713 58.4189 51.1486 56.5965 51.1486H49.9969C49.3895 51.1486 48.897 51.6411 48.897 52.2485C48.897 52.856 49.3895 53.3485 49.9969 53.3485H54.3966C56.2191 53.3485 57.6964 54.8258 57.6964 56.6483C57.6964 58.4707 56.2191 59.9481 54.3966 59.9481H29.8187C25.8798 59.9431 21.996 59.0236 18.4729 57.262L15.899 55.9696V29.1138C24.5598 28.5238 31.2869 21.3319 31.2981 12.6512V6.05156C31.2981 5.44413 31.7906 4.95163 32.398 4.95163H34.5979C37.6337 4.95521 40.0939 7.41548 40.0975 10.4513V13.8963C40.0989 17.3246 39.5462 20.7307 38.4608 23.9826L37.9538 25.5028C37.7618 26.0791 38.0734 26.702 38.6497 26.8939C38.7619 26.9313 38.8794 26.9503 38.9976 26.9503H58.6314C60.0859 27.0042 61.3776 27.8952 61.9444 29.2359C62.5045 30.9701 61.5526 32.8301 59.8185 33.3902C59.4883 33.4969 59.1434 33.5508 58.7964 33.5498H53.2967C52.6893 33.5498 52.1968 34.0423 52.1968 34.6498C52.1968 35.2572 52.6893 35.7497 53.2967 35.7497H60.8312C62.2857 35.8036 63.5775 36.6947 64.1442 38.0354C64.7044 39.7696 63.7525 41.6295 62.0183 42.1895Z" fill="#053365"/>
<path d="M8.19945 53.349C6.377 53.349 4.89966 54.8264 4.89966 56.6488C4.89966 58.4713 6.377 59.9486 8.19945 59.9486C10.0219 59.9486 11.4992 58.4713 11.4992 56.6488C11.4992 54.8264 10.0219 53.349 8.19945 53.349ZM8.19945 57.7488C7.59201 57.7488 7.09952 57.2563 7.09952 56.6488C7.09952 56.0414 7.59201 55.5489 8.19945 55.5489C8.80689 55.5489 9.29938 56.0414 9.29938 56.6488C9.29938 57.2563 8.80689 57.7488 8.19945 57.7488Z" fill="#053365"/>
</g>
<defs>
<clipPath id="clip0">
<rect width="66" height="66" fill="white" transform="translate(0.5)"/>
</clipPath>
</defs>
</svg>
