<svg width="410" height="259" fill="none" xmlns="http://www.w3.org/2000/svg"><g filter="url(#filter0_d)"><path fill="#fff" d="M55 35h300v149H55z"/></g><path d="M197.373 99h-6.816V75.768l-5.328 5.424-3.888-4.08 10.08-10.128h5.952V99zm26.502 0h-6.816v-6.624h-15.312V87l12.72-20.016h9.408v19.392h4.128v6h-4.128V99zm-6.816-12.624V73.032l-8.64 13.344h8.64z" fill="#053365"/><path d="M86.987 118.994v3.132c0 1.848.93 2.772 2.79 2.772.996 0 1.92-.138 2.772-.414v-5.49h1.494V131H92.55v-5.184a10.969 10.969 0 01-2.898.414c-1.368 0-2.406-.366-3.114-1.098-.696-.744-1.044-1.752-1.044-3.024v-3.114h1.494zm13.74 12.222c-1.296 0-2.358-.42-3.186-1.26-.828-.852-1.242-1.956-1.242-3.312 0-1.272.408-2.346 1.224-3.222.816-.888 1.836-1.332 3.06-1.332 1.284 0 2.298.444 3.042 1.332.756.876 1.134 1.986 1.134 3.33v.342h-7.038c.06.852.372 1.566.936 2.142.564.576 1.296.864 2.196.864 1.08 0 1.974-.366 2.682-1.098l.648.882c-.888.888-2.04 1.332-3.456 1.332zm2.7-5.112a3.112 3.112 0 00-.756-1.998c-.492-.6-1.194-.9-2.106-.9-.864 0-1.548.294-2.052.882a3.31 3.31 0 00-.792 2.016h5.706zm2.493 5.112V130.1c.408 0 .744-.27 1.008-.81s.48-1.44.648-2.7l.558-4.284h6.048V131h-1.35v-7.506h-3.51l-.396 3.258c-.192 1.596-.528 2.742-1.008 3.438-.48.684-1.146 1.026-1.998 1.026zm17.869-1.314c-.78.876-1.818 1.314-3.114 1.314-1.296 0-2.34-.438-3.132-1.314-.78-.876-1.17-1.962-1.17-3.258s.39-2.376 1.17-3.24c.792-.876 1.836-1.314 3.132-1.314s2.334.438 3.114 1.314c.792.864 1.188 1.944 1.188 3.24 0 1.296-.396 2.382-1.188 3.258zm-5.238-.864c.528.648 1.236.972 2.124.972.888 0 1.59-.324 2.106-.972.516-.66.774-1.458.774-2.394 0-.936-.258-1.728-.774-2.376-.516-.648-1.218-.972-2.106-.972-.888 0-1.596.33-2.124.99-.516.648-.774 1.434-.774 2.358 0 .936.258 1.734.774 2.394zM132.056 131h-4.878v-8.694h4.788c.756 0 1.35.204 1.782.612.444.408.666.948.666 1.62 0 .492-.138.918-.414 1.278a1.92 1.92 0 01-.99.702c.444.108.816.366 1.116.774.312.408.468.858.468 1.35 0 .708-.228 1.278-.684 1.71-.444.432-1.062.648-1.854.648zm-.27-1.188c.432 0 .774-.12 1.026-.36s.378-.564.378-.972c0-.372-.126-.69-.378-.954s-.594-.396-1.026-.396h-3.258v2.682h3.258zm-.054-3.87c.408 0 .726-.108.954-.324.228-.228.342-.522.342-.882 0-.384-.114-.684-.342-.9-.228-.228-.546-.342-.954-.342h-3.204v2.448h3.204zm9.337 5.274c-1.296 0-2.358-.42-3.186-1.26-.828-.852-1.242-1.956-1.242-3.312 0-1.272.408-2.346 1.224-3.222.816-.888 1.836-1.332 3.06-1.332 1.284 0 2.298.444 3.042 1.332.756.876 1.134 1.986 1.134 3.33v.342h-7.038c.06.852.372 1.566.936 2.142.564.576 1.296.864 2.196.864 1.08 0 1.974-.366 2.682-1.098l.648.882c-.888.888-2.04 1.332-3.456 1.332zm2.7-5.112a3.112 3.112 0 00-.756-1.998c-.492-.6-1.194-.9-2.106-.9-.864 0-1.548.294-2.052.882a3.31 3.31 0 00-.792 2.016h5.706zM154.938 131h-1.728l-3.132-3.906-1.44 1.422V131h-1.35v-8.694h1.35v4.626l4.572-4.626h1.71l-3.852 3.942 3.87 4.752zm11.114 0h-4.878v-8.694h4.788c.756 0 1.35.204 1.782.612.444.408.666.948.666 1.62 0 .492-.138.918-.414 1.278a1.92 1.92 0 01-.99.702c.444.108.816.366 1.116.774.312.408.468.858.468 1.35 0 .708-.228 1.278-.684 1.71-.444.432-1.062.648-1.854.648zm-.27-1.188c.432 0 .774-.12 1.026-.36s.378-.564.378-.972c0-.372-.126-.69-.378-.954s-.594-.396-1.026-.396h-3.258v2.682h3.258zm-.054-3.87c.408 0 .726-.108.954-.324.228-.228.342-.522.342-.882 0-.384-.114-.684-.342-.9-.228-.228-.546-.342-.954-.342h-3.204v2.448h3.204zm17.29 5.058h-1.35v-7.506h-4.536V131h-1.35v-8.694h7.236V131zm9.607-1.098c-.78.876-1.818 1.314-3.114 1.314-1.296 0-2.34-.438-3.132-1.314-.78-.876-1.17-1.962-1.17-3.258s.39-2.376 1.17-3.24c.792-.876 1.836-1.314 3.132-1.314s2.334.438 3.114 1.314c.792.864 1.188 1.944 1.188 3.24 0 1.296-.396 2.382-1.188 3.258zm-5.238-.864c.528.648 1.236.972 2.124.972.888 0 1.59-.324 2.106-.972.516-.66.774-1.458.774-2.394 0-.936-.258-1.728-.774-2.376-.516-.648-1.218-.972-2.106-.972-.888 0-1.596.33-2.124.99-.516.648-.774 1.434-.774 2.358 0 .936.258 1.734.774 2.394zm12.461 2.178c-1.284 0-2.328-.432-3.132-1.296-.804-.876-1.206-1.968-1.206-3.276 0-1.308.402-2.394 1.206-3.258.804-.864 1.848-1.296 3.132-1.296 1.344 0 2.406.504 3.186 1.512l-.9.828c-.552-.756-1.29-1.134-2.214-1.134-.912 0-1.644.312-2.196.936-.54.624-.81 1.428-.81 2.412s.27 1.794.81 2.43c.552.624 1.284.936 2.196.936.912 0 1.65-.378 2.214-1.134l.9.828c-.78 1.008-1.842 1.512-3.186 1.512zm8.012-.216h-1.35v-7.506h-2.52v-1.188h6.408v1.188h-2.538V131zm11.22-1.098c-.78.876-1.818 1.314-3.114 1.314-1.296 0-2.34-.438-3.132-1.314-.78-.876-1.17-1.962-1.17-3.258s.39-2.376 1.17-3.24c.792-.876 1.836-1.314 3.132-1.314s2.334.438 3.114 1.314c.792.864 1.188 1.944 1.188 3.24 0 1.296-.396 2.382-1.188 3.258zm-5.238-.864c.528.648 1.236.972 2.124.972.888 0 1.59-.324 2.106-.972.516-.66.774-1.458.774-2.394 0-.936-.258-1.728-.774-2.376-.516-.648-1.218-.972-2.106-.972-.888 0-1.596.33-2.124.99-.516.648-.774 1.434-.774 2.358 0 .936.258 1.734.774 2.394zm9.923 1.962h-1.584l2.322-3.42c-.66-.084-1.2-.36-1.62-.828-.408-.468-.612-1.062-.612-1.782 0-.768.246-1.404.738-1.908s1.164-.756 2.016-.756h4.59V131h-1.35v-3.366h-2.376L223.765 131zm1.404-4.554h3.096v-2.952h-3.096c-.468 0-.84.138-1.116.414-.264.264-.396.618-.396 1.062 0 .444.132.804.396 1.08.264.264.636.396 1.116.396zm8.494 4.554h-1.35v-8.694h1.35v3.618h4.536v-3.618h1.35V131h-1.35v-3.888h-4.536V131zm9.932 0h-1.35v-8.694h1.35v3.618h4.536v-3.618h1.35V131h-1.35v-3.888h-4.536V131zm15.493-1.098c-.78.876-1.818 1.314-3.114 1.314-1.296 0-2.34-.438-3.132-1.314-.78-.876-1.17-1.962-1.17-3.258s.39-2.376 1.17-3.24c.792-.876 1.836-1.314 3.132-1.314s2.334.438 3.114 1.314c.792.864 1.188 1.944 1.188 3.24 0 1.296-.396 2.382-1.188 3.258zm-5.238-.864c.528.648 1.236.972 2.124.972.888 0 1.59-.324 2.106-.972.516-.66.774-1.458.774-2.394 0-.936-.258-1.728-.774-2.376-.516-.648-1.218-.972-2.106-.972-.888 0-1.596.33-2.124.99-.516.648-.774 1.434-.774 2.358 0 .936.258 1.734.774 2.394zM271.351 131h-1.35v-6.822L267.175 131h-.504l-2.844-6.822V131h-1.35v-8.694h1.782l2.664 6.444 2.628-6.444h1.8V131zm17.377-8.694h1.35V131h-11.394v-8.694h1.35v7.506h3.672v-7.506h1.35v7.506h3.672v-7.506zm6.988 8.694h-1.35v-7.506h-2.52v-1.188h6.408v1.188h-2.538V131zm11.094 0h-1.35v-.99c-.732.804-1.692 1.206-2.88 1.206a3.197 3.197 0 01-2.124-.774c-.612-.516-.918-1.218-.918-2.106 0-.912.3-1.614.9-2.106a3.268 3.268 0 012.142-.756c1.236 0 2.196.396 2.88 1.188v-1.566c0-.576-.204-1.026-.612-1.35-.408-.324-.936-.486-1.584-.486-1.02 0-1.908.402-2.664 1.206l-.63-.936c.924-.96 2.082-1.44 3.474-1.44.996 0 1.806.24 2.43.72.624.48.936 1.218.936 2.214V131zm-3.744-.756c1.08 0 1.878-.36 2.394-1.08v-1.638c-.516-.72-1.314-1.08-2.394-1.08-.624 0-1.14.18-1.548.54-.396.348-.594.804-.594 1.368 0 .552.198 1.008.594 1.368.408.348.924.522 1.548.522zm9.384.756h-1.35v-7.506h-2.52v-1.188h6.408v1.188h-2.538V131zm8.232.216c-1.296 0-2.358-.42-3.186-1.26-.828-.852-1.242-1.956-1.242-3.312 0-1.272.408-2.346 1.224-3.222.816-.888 1.836-1.332 3.06-1.332 1.284 0 2.298.444 3.042 1.332.756.876 1.134 1.986 1.134 3.33v.342h-7.038c.06.852.372 1.566.936 2.142.564.576 1.296.864 2.196.864 1.08 0 1.974-.366 2.682-1.098l.648.882c-.888.888-2.04 1.332-3.456 1.332zm2.7-5.112a3.112 3.112 0 00-.756-1.998c-.492-.6-1.194-.9-2.106-.9-.864 0-1.548.294-2.052.882a3.31 3.31 0 00-.792 2.016h5.706zM138.442 153h-1.35v-8.694h1.35v3.618h4.536v-3.618h1.35V153h-1.35v-3.888h-4.536V153zm15.368 0h-1.35v-.99c-.732.804-1.692 1.206-2.88 1.206a3.197 3.197 0 01-2.124-.774c-.612-.516-.918-1.218-.918-2.106 0-.912.3-1.614.9-2.106a3.268 3.268 0 012.142-.756c1.236 0 2.196.396 2.88 1.188v-1.566c0-.576-.204-1.026-.612-1.35-.408-.324-.936-.486-1.584-.486-1.02 0-1.908.402-2.664 1.206l-.63-.936c.924-.96 2.082-1.44 3.474-1.44.996 0 1.806.24 2.43.72.624.48.936 1.218.936 2.214V153zm-3.744-.756c1.08 0 1.878-.36 2.394-1.08v-1.638c-.516-.72-1.314-1.08-2.394-1.08-.624 0-1.14.18-1.548.54-.396.348-.594.804-.594 1.368 0 .552.198 1.008.594 1.368.408.348.924.522 1.548.522zm16.494-7.938h1.35V153h-11.394v-8.694h1.35v7.506h3.672v-7.506h1.35v7.506h3.672v-7.506zm7.978 8.91c-1.296 0-2.358-.42-3.186-1.26-.828-.852-1.242-1.956-1.242-3.312 0-1.272.408-2.346 1.224-3.222.816-.888 1.836-1.332 3.06-1.332 1.284 0 2.298.444 3.042 1.332.756.876 1.134 1.986 1.134 3.33v.342h-7.038c.06.852.372 1.566.936 2.142.564.576 1.296.864 2.196.864 1.08 0 1.974-.366 2.682-1.098l.648.882c-.888.888-2.04 1.332-3.456 1.332zm2.7-5.112a3.112 3.112 0 00-.756-1.998c-.492-.6-1.194-.9-2.106-.9-.864 0-1.548.294-2.052.882a3.31 3.31 0 00-.792 2.016h5.706zm4.814 4.896h-1.296v-8.694h1.35v6.642l4.554-6.642h1.332V153h-1.35v-6.768l-4.59 6.768zm5.472-11.268c-.78 1.056-1.83 1.584-3.15 1.584-1.308 0-2.364-.528-3.168-1.584l.666-.576c.624.864 1.458 1.296 2.502 1.296 1.056 0 1.884-.432 2.484-1.296l.666.576zM202.979 153h-1.728l-3.132-3.906-1.44 1.422V153h-1.35v-8.694h1.35v4.626l4.572-4.626h1.71l-3.852 3.942 3.87 4.752zm8.455-1.098c-.78.876-1.818 1.314-3.114 1.314-1.296 0-2.34-.438-3.132-1.314-.78-.876-1.17-1.962-1.17-3.258s.39-2.376 1.17-3.24c.792-.876 1.836-1.314 3.132-1.314s2.334.438 3.114 1.314c.792.864 1.188 1.944 1.188 3.24 0 1.296-.396 2.382-1.188 3.258zm-5.238-.864c.528.648 1.236.972 2.124.972.888 0 1.59-.324 2.106-.972.516-.66.774-1.458.774-2.394 0-.936-.258-1.728-.774-2.376-.516-.648-1.218-.972-2.106-.972-.888 0-1.596.33-2.124.99-.516.648-.774 1.434-.774 2.358 0 .936.258 1.734.774 2.394zM223.697 153h-1.35v-6.822L219.521 153h-.504l-2.844-6.822V153h-1.35v-8.694h1.782l2.664 6.444 2.628-6.444h1.8V153zm9.928 0h-1.35v-7.506h-4.536V153h-1.35v-8.694h7.236V153zm9.482 0h-1.35v-.99c-.732.804-1.692 1.206-2.88 1.206a3.197 3.197 0 01-2.124-.774c-.612-.516-.918-1.218-.918-2.106 0-.912.3-1.614.9-2.106a3.268 3.268 0 012.142-.756c1.236 0 2.196.396 2.88 1.188v-1.566c0-.576-.204-1.026-.612-1.35-.408-.324-.936-.486-1.584-.486-1.02 0-1.908.402-2.664 1.206l-.63-.936c.924-.96 2.082-1.44 3.474-1.44.996 0 1.806.24 2.43.72.624.48.936 1.218.936 2.214V153zm-3.744-.756c1.08 0 1.878-.36 2.394-1.08v-1.638c-.516-.72-1.314-1.08-2.394-1.08-.624 0-1.14.18-1.548.54-.396.348-.594.804-.594 1.368 0 .552.198 1.008.594 1.368.408.348.924.522 1.548.522zm7.8.756h-1.35v-8.694h1.35v3.618h4.536v-3.618h1.35V153h-1.35v-3.888h-4.536V153zm9.878 0h-1.296v-8.694h1.35v6.642l4.554-6.642h1.332V153h-1.35v-6.768l-4.59 6.768zm9.931 0h-1.296v-8.694h1.35v6.642l4.554-6.642h1.332V153h-1.35v-6.768l-4.59 6.768z" fill="#000"/><defs><filter id="filter0_d" x="0" y="0" width="410" height="259" filterUnits="userSpaceOnUse" color-interpolation-filters="sRGB"><feFlood flood-opacity="0" result="BackgroundImageFix"/><feColorMatrix in="SourceAlpha" values="0 0 0 0 0 0 0 0 0 0 0 0 0 0 0 0 0 0 127 0"/><feOffset dy="20"/><feGaussianBlur stdDeviation="27.5"/><feColorMatrix values="0 0 0 0 0 0 0 0 0 0 0 0 0 0 0 0 0 0 0.05 0"/><feBlend in2="BackgroundImageFix" result="effect1_dropShadow"/><feBlend in="SourceGraphic" in2="effect1_dropShadow" result="shape"/></filter></defs></svg>