<svg width="410" height="259" fill="none" xmlns="http://www.w3.org/2000/svg"><g filter="url(#filter0_d)"><path fill="#fff" d="M55 35h300v149H55z"/></g><path d="M145.922 110h-24.096v-5.328c6.848-5.088 11.376-8.704 13.584-10.848 2.24-2.176 3.36-4.208 3.36-6.096 0-1.312-.512-2.336-1.536-3.072-1.024-.736-2.24-1.104-3.648-1.104-3.36 0-6.224 1.232-8.592 3.696l-3.888-4.512c1.504-1.728 3.344-3.024 5.52-3.888a17.969 17.969 0 016.816-1.344c3.52 0 6.432.928 8.736 2.784 2.336 1.856 3.504 4.336 3.504 7.44 0 2.624-1.04 5.2-3.12 7.728-2.048 2.496-5.28 5.344-9.696 8.544h13.056v6zm24.695 0h-6.816V77.984h22.656v6h-15.84V110zm34.602.576c-4.832 0-8.832-1.552-12-4.656-3.136-3.136-4.704-7.104-4.704-11.904s1.568-8.752 4.704-11.856c3.168-3.136 7.168-4.704 12-4.704 4.864 0 8.864 1.552 12 4.656 3.168 3.104 4.752 7.072 4.752 11.904s-1.584 8.8-4.752 11.904c-3.136 3.104-7.136 4.656-12 4.656zm-7.056-9.024c1.792 1.984 4.144 2.976 7.056 2.976s5.264-.992 7.056-2.976c1.792-1.984 2.688-4.496 2.688-7.536 0-3.04-.896-5.552-2.688-7.536-1.792-1.984-4.144-2.976-7.056-2.976s-5.264.992-7.056 2.976c-1.76 1.984-2.64 4.496-2.64 7.536 0 3.04.88 5.552 2.64 7.536zm25.03 14.352v-11.376c1.216-.16 2.16-.48 2.832-.96.704-.48 1.344-1.456 1.92-2.928.576-1.472 1.024-3.568 1.344-6.288l1.872-16.368h22.752V104h2.88v11.904h-6.816V110h-19.968v5.904h-6.816zm12.864-21.072c-.448 4.128-1.744 7.184-3.888 9.168h14.88V83.984h-9.744l-1.248 10.848zM290.641 110h-7.776l-1.968-5.424h-13.728L265.153 110h-7.776l12.384-32.016h8.544L290.641 110zm-11.616-11.424L274.033 84.8l-4.992 13.776h9.984z" fill="#053365"/><path d="M91.874 142H90.38v-12.006h7.866v1.332h-6.372V142zm13.429 0h-1.35v-.99c-.732.804-1.692 1.206-2.88 1.206a3.197 3.197 0 01-2.124-.774c-.612-.516-.918-1.218-.918-2.106 0-.912.3-1.614.9-2.106a3.268 3.268 0 012.142-.756c1.236 0 2.196.396 2.88 1.188v-1.566c0-.576-.204-1.026-.612-1.35-.408-.324-.936-.486-1.584-.486-1.02 0-1.908.402-2.664 1.206l-.63-.936c.924-.96 2.082-1.44 3.474-1.44.996 0 1.806.24 2.43.72.624.48.936 1.218.936 2.214V142zm-3.744-.756c1.08 0 1.878-.36 2.394-1.08v-1.638c-.516-.72-1.314-1.08-2.394-1.08-.624 0-1.14.18-1.548.54-.396.348-.594.804-.594 1.368 0 .552.198 1.008.594 1.368.408.348.924.522 1.548.522zm10.734.972c-1.224 0-2.202-.51-2.934-1.53v4.626h-1.35v-12.006h1.35v1.296a3.604 3.604 0 011.26-1.098 3.494 3.494 0 011.674-.414c1.152 0 2.082.414 2.79 1.242.72.816 1.08 1.92 1.08 3.312s-.36 2.502-1.08 3.33c-.708.828-1.638 1.242-2.79 1.242zm-.342-1.206c.852 0 1.53-.312 2.034-.936.504-.636.756-1.446.756-2.43 0-.984-.252-1.788-.756-2.412-.504-.624-1.182-.936-2.034-.936-.516 0-1.02.138-1.512.414-.48.264-.84.588-1.08.972v3.924c.24.396.6.732 1.08 1.008.492.264.996.396 1.512.396zm13.145.99h-1.35v-.99c-.732.804-1.692 1.206-2.88 1.206a3.197 3.197 0 01-2.124-.774c-.612-.516-.918-1.218-.918-2.106 0-.912.3-1.614.9-2.106a3.268 3.268 0 012.142-.756c1.236 0 2.196.396 2.88 1.188v-1.566c0-.576-.204-1.026-.612-1.35-.408-.324-.936-.486-1.584-.486-1.02 0-1.908.402-2.664 1.206l-.63-.936c.924-.96 2.082-1.44 3.474-1.44.996 0 1.806.24 2.43.72.624.48.936 1.218.936 2.214V142zm-3.744-.756c1.08 0 1.878-.36 2.394-1.08v-1.638c-.516-.72-1.314-1.08-2.394-1.08-.624 0-1.14.18-1.548.54-.396.348-.594.804-.594 1.368 0 .552.198 1.008.594 1.368.408.348.924.522 1.548.522zm7.8.756h-1.35v-8.694h1.35v3.618h4.536v-3.618h1.35V142h-1.35v-3.888h-4.536V142zm11.516 0h-1.35v-7.506h-2.52v-1.188h6.408v1.188h-2.538V142zm5.604 0h-1.296v-8.694h1.35v6.642l4.554-6.642h1.332V142h-1.35v-6.768l-4.59 6.768zm9.932 0h-1.296v-8.694h1.35v6.642l4.554-6.642h1.332V142h-1.35v-6.768l-4.59 6.768zm14.626 0h-1.35v-8.694h1.35v3.618h4.536v-3.618h1.35V142h-1.35v-3.888h-4.536V142zm15.368 0h-1.35v-.99c-.732.804-1.692 1.206-2.88 1.206a3.197 3.197 0 01-2.124-.774c-.612-.516-.918-1.218-.918-2.106 0-.912.3-1.614.9-2.106a3.268 3.268 0 012.142-.756c1.236 0 2.196.396 2.88 1.188v-1.566c0-.576-.204-1.026-.612-1.35-.408-.324-.936-.486-1.584-.486-1.02 0-1.908.402-2.664 1.206l-.63-.936c.924-.96 2.082-1.44 3.474-1.44.996 0 1.806.24 2.43.72.624.48.936 1.218.936 2.214V142zm-3.744-.756c1.08 0 1.878-.36 2.394-1.08v-1.638c-.516-.72-1.314-1.08-2.394-1.08-.624 0-1.14.18-1.548.54-.396.348-.594.804-.594 1.368 0 .552.198 1.008.594 1.368.408.348.924.522 1.548.522zm15.968.756h-4.878v-8.694h4.788c.756 0 1.35.204 1.782.612.444.408.666.948.666 1.62 0 .492-.138.918-.414 1.278a1.92 1.92 0 01-.99.702c.444.108.816.366 1.116.774.312.408.468.858.468 1.35 0 .708-.228 1.278-.684 1.71-.444.432-1.062.648-1.854.648zm-.27-1.188c.432 0 .774-.12 1.026-.36s.378-.564.378-.972c0-.372-.126-.69-.378-.954s-.594-.396-1.026-.396h-3.258v2.682h3.258zm-.054-3.87c.408 0 .726-.108.954-.324.228-.228.342-.522.342-.882 0-.384-.114-.684-.342-.9-.228-.228-.546-.342-.954-.342h-3.204v2.448h3.204zm9.247 5.274c-1.284 0-2.328-.432-3.132-1.296-.804-.876-1.206-1.968-1.206-3.276 0-1.308.402-2.394 1.206-3.258.804-.864 1.848-1.296 3.132-1.296 1.344 0 2.406.504 3.186 1.512l-.9.828c-.552-.756-1.29-1.134-2.214-1.134-.912 0-1.644.312-2.196.936-.54.624-.81 1.428-.81 2.412s.27 1.794.81 2.43c.552.624 1.284.936 2.196.936.912 0 1.65-.378 2.214-1.134l.9.828c-.78 1.008-1.842 1.512-3.186 1.512zm9.002 0c-1.296 0-2.358-.42-3.186-1.26-.828-.852-1.242-1.956-1.242-3.312 0-1.272.408-2.346 1.224-3.222.816-.888 1.836-1.332 3.06-1.332 1.284 0 2.298.444 3.042 1.332.756.876 1.134 1.986 1.134 3.33v.342h-7.038c.06.852.372 1.566.936 2.142.564.576 1.296.864 2.196.864 1.08 0 1.974-.366 2.682-1.098l.648.882c-.888.888-2.04 1.332-3.456 1.332zm2.7-5.112a3.112 3.112 0 00-.756-1.998c-.492-.6-1.194-.9-2.106-.9-.864 0-1.548.294-2.052.882a3.31 3.31 0 00-.792 2.016h5.706zM232.084 142h-4.878v-8.694h4.788c.756 0 1.35.204 1.782.612.444.408.666.948.666 1.62 0 .492-.138.918-.414 1.278a1.92 1.92 0 01-.99.702c.444.108.816.366 1.116.774.312.408.468.858.468 1.35 0 .708-.228 1.278-.684 1.71-.444.432-1.062.648-1.854.648zm-.27-1.188c.432 0 .774-.12 1.026-.36s.378-.564.378-.972c0-.372-.126-.69-.378-.954s-.594-.396-1.026-.396h-3.258v2.682h3.258zm-.054-3.87c.408 0 .726-.108.954-.324.228-.228.342-.522.342-.882 0-.384-.114-.684-.342-.9-.228-.228-.546-.342-.954-.342h-3.204v2.448h3.204zm6.709 5.058h-1.296v-8.694h1.35v6.642l4.554-6.642h1.332V142h-1.35v-6.768l-4.59 6.768zm7.61 2.214v-3.33c.444-.084.792-.348 1.044-.792.252-.456.456-1.29.612-2.502l.558-4.284h6.048v7.506h1.008v3.402h-1.35V142h-6.57v2.214h-1.35zm3.402-9.72l-.396 3.258c-.204 1.524-.624 2.544-1.26 3.06h5.166v-6.318h-3.51zm7.714-1.188h1.35v3.366h3.258c.864 0 1.536.258 2.016.774.48.504.72 1.134.72 1.89s-.246 1.392-.738 1.908c-.48.504-1.146.756-1.998.756h-4.608v-8.694zm4.464 4.554h-3.114v2.952h3.114c.48 0 .846-.132 1.098-.396.264-.276.396-.636.396-1.08 0-.444-.132-.798-.396-1.062-.252-.276-.618-.414-1.098-.414zm5.652 4.14h-1.35v-8.694h1.35V142zm11.623.216c-1.224 0-2.202-.51-2.934-1.53v4.626h-1.35v-12.006H276v1.296a3.604 3.604 0 011.26-1.098 3.494 3.494 0 011.674-.414c1.152 0 2.082.414 2.79 1.242.72.816 1.08 1.92 1.08 3.312s-.36 2.502-1.08 3.33c-.708.828-1.638 1.242-2.79 1.242zm-.342-1.206c.852 0 1.53-.312 2.034-.936.504-.636.756-1.446.756-2.43 0-.984-.252-1.788-.756-2.412-.504-.624-1.182-.936-2.034-.936-.516 0-1.02.138-1.512.414-.48.264-.84.588-1.08.972v3.924c.24.396.6.732 1.08 1.008.492.264.996.396 1.512.396zm13.145.99h-1.35v-.99c-.732.804-1.692 1.206-2.88 1.206a3.197 3.197 0 01-2.124-.774c-.612-.516-.918-1.218-.918-2.106 0-.912.3-1.614.9-2.106a3.268 3.268 0 012.142-.756c1.236 0 2.196.396 2.88 1.188v-1.566c0-.576-.204-1.026-.612-1.35-.408-.324-.936-.486-1.584-.486-1.02 0-1.908.402-2.664 1.206l-.63-.936c.924-.96 2.082-1.44 3.474-1.44.996 0 1.806.24 2.43.72.624.48.936 1.218.936 2.214V142zm-3.744-.756c1.08 0 1.878-.36 2.394-1.08v-1.638c-.516-.72-1.314-1.08-2.394-1.08-.624 0-1.14.18-1.548.54-.396.348-.594.804-.594 1.368 0 .552.198 1.008.594 1.368.408.348.924.522 1.548.522zm8.124-1.206c.528.648 1.236.972 2.124.972.888 0 1.59-.324 2.106-.972.516-.66.774-1.464.774-2.412 0-.924-.258-1.71-.774-2.358-.516-.648-1.218-.972-2.106-.972-.888 0-1.596.324-2.124.972-.516.648-.774 1.434-.774 2.358 0 .948.258 1.752.774 2.412zm2.124 2.178c-1.308 0-2.352-.462-3.132-1.386-.78-.924-1.17-2.118-1.17-3.582 0-2.064.372-3.588 1.116-4.572.744-.996 1.89-1.596 3.438-1.8.924-.144 1.56-.282 1.908-.414.36-.132.54-.288.54-.468h1.314c0 .336-.102.63-.306.882-.204.24-.498.432-.882.576a9.003 9.003 0 01-1.062.342c-.324.072-.714.138-1.17.198-1.2.168-2.07.498-2.61.99-.528.492-.876 1.146-1.044 1.962.792-1.236 1.884-1.854 3.276-1.854 1.2 0 2.178.438 2.934 1.314.756.876 1.134 1.95 1.134 3.222 0 1.296-.39 2.388-1.17 3.276-.78.876-1.818 1.314-3.114 1.314zm13.502-1.314c-.78.876-1.818 1.314-3.114 1.314-1.296 0-2.34-.438-3.132-1.314-.78-.876-1.17-1.962-1.17-3.258s.39-2.376 1.17-3.24c.792-.876 1.836-1.314 3.132-1.314s2.334.438 3.114 1.314c.792.864 1.188 1.944 1.188 3.24 0 1.296-.396 2.382-1.188 3.258zm-5.238-.864c.528.648 1.236.972 2.124.972.888 0 1.59-.324 2.106-.972.516-.66.774-1.458.774-2.394 0-.936-.258-1.728-.774-2.376-.516-.648-1.218-.972-2.106-.972-.888 0-1.596.33-2.124.99-.516.648-.774 1.434-.774 2.358 0 .936.258 1.734.774 2.394zM318.066 142h-1.35v-7.506h-2.52v-1.188h6.408v1.188h-2.538V142z" fill="#000"/><defs><filter id="filter0_d" x="0" y="0" width="410" height="259" filterUnits="userSpaceOnUse" color-interpolation-filters="sRGB"><feFlood flood-opacity="0" result="BackgroundImageFix"/><feColorMatrix in="SourceAlpha" values="0 0 0 0 0 0 0 0 0 0 0 0 0 0 0 0 0 0 127 0"/><feOffset dy="20"/><feGaussianBlur stdDeviation="27.5"/><feColorMatrix values="0 0 0 0 0 0 0 0 0 0 0 0 0 0 0 0 0 0 0.05 0"/><feBlend in2="BackgroundImageFix" result="effect1_dropShadow"/><feBlend in="SourceGraphic" in2="effect1_dropShadow" result="shape"/></filter></defs></svg>