<svg width="410" height="259" fill="none" xmlns="http://www.w3.org/2000/svg"><g filter="url(#filter0_d)"><path fill="#fff" d="M55 35h300v149H55z"/></g><path d="M135.266 89.576c-5.28 0-9.392-1.6-12.336-4.8l3.792-4.752c2.24 2.336 5.072 3.504 8.496 3.504 1.824 0 3.264-.448 4.32-1.344 1.088-.928 1.632-2.064 1.632-3.408 0-1.44-.512-2.592-1.536-3.456-1.024-.864-2.432-1.296-4.224-1.296-2.656 0-4.896.864-6.72 2.592l-4.752-1.248V56.984h21.984v6h-15.168v7.824c1.792-1.792 4.144-2.688 7.056-2.688 2.848 0 5.264.944 7.248 2.832 2.016 1.888 3.024 4.4 3.024 7.536 0 3.392-1.168 6.096-3.504 8.112-2.336 1.984-5.44 2.976-9.312 2.976zM163.077 89h-7.488l11.472-26.016h-16.128v-6h24.048v4.752L163.077 89zm35.181-1.872c-2.048 1.632-4.528 2.448-7.44 2.448-2.912 0-5.408-.816-7.488-2.448-2.048-1.664-3.52-3.712-4.416-6.144-.896-2.432-1.344-5.088-1.344-7.968s.448-5.536 1.344-7.968c.896-2.432 2.368-4.464 4.416-6.096 2.08-1.632 4.576-2.448 7.488-2.448 2.912 0 5.392.816 7.44 2.448 2.048 1.632 3.52 3.664 4.416 6.096.928 2.432 1.392 5.088 1.392 7.968s-.464 5.536-1.392 7.968c-.896 2.432-2.368 4.48-4.416 6.144zm-12.24-6.48c1.024 1.92 2.624 2.88 4.8 2.88 2.176 0 3.76-.96 4.752-2.88 1.024-1.92 1.536-4.464 1.536-7.632 0-3.168-.512-5.696-1.536-7.584-.992-1.92-2.576-2.88-4.752-2.88-2.176 0-3.776.96-4.8 2.88-1.024 1.888-1.536 4.416-1.536 7.584 0 3.168.512 5.712 1.536 7.632zm42.005 6.48c-2.048 1.632-4.528 2.448-7.44 2.448-2.912 0-5.408-.816-7.488-2.448-2.048-1.664-3.52-3.712-4.416-6.144-.896-2.432-1.344-5.088-1.344-7.968s.448-5.536 1.344-7.968c.896-2.432 2.368-4.464 4.416-6.096 2.08-1.632 4.576-2.448 7.488-2.448 2.912 0 5.392.816 7.44 2.448 2.048 1.632 3.52 3.664 4.416 6.096.928 2.432 1.392 5.088 1.392 7.968s-.464 5.536-1.392 7.968c-.896 2.432-2.368 4.48-4.416 6.144zm-12.24-6.48c1.024 1.92 2.624 2.88 4.8 2.88 2.176 0 3.76-.96 4.752-2.88 1.024-1.92 1.536-4.464 1.536-7.632 0-3.168-.512-5.696-1.536-7.584-.992-1.92-2.576-2.88-4.752-2.88-2.176 0-3.776.96-4.8 2.88-1.024 1.888-1.536 4.416-1.536 7.584 0 3.168.512 5.712 1.536 7.632zm42.006 6.48c-2.048 1.632-4.528 2.448-7.44 2.448-2.912 0-5.408-.816-7.488-2.448-2.048-1.664-3.52-3.712-4.416-6.144-.896-2.432-1.344-5.088-1.344-7.968s.448-5.536 1.344-7.968c.896-2.432 2.368-4.464 4.416-6.096 2.08-1.632 4.576-2.448 7.488-2.448 2.912 0 5.392.816 7.44 2.448 2.048 1.632 3.52 3.664 4.416 6.096.928 2.432 1.392 5.088 1.392 7.968s-.464 5.536-1.392 7.968c-.896 2.432-2.368 4.48-4.416 6.144zm-12.24-6.48c1.024 1.92 2.624 2.88 4.8 2.88 2.176 0 3.76-.96 4.752-2.88 1.024-1.92 1.536-4.464 1.536-7.632 0-3.168-.512-5.696-1.536-7.584-.992-1.92-2.576-2.88-4.752-2.88-2.176 0-3.776.96-4.8 2.88-1.024 1.888-1.536 4.416-1.536 7.584 0 3.168.512 5.712 1.536 7.632zm42.485-5.952h-8.592v9.744h-4.176v-9.744h-8.64v-3.792h8.64v-9.36h4.176v9.36h8.592v3.792z" fill="#053365"/><path d="M99.536 121h-1.44v-12.006h1.494v9.378l6.912-9.378h1.53V121h-1.494v-9.576L99.536 121zm20.125 0h-1.35v-6.822L115.485 121h-.504l-2.844-6.822V121h-1.35v-8.694h1.782l2.664 6.444 2.628-6.444h1.8V121zm6.616.216c-1.296 0-2.358-.42-3.186-1.26-.828-.852-1.242-1.956-1.242-3.312 0-1.272.408-2.346 1.224-3.222.816-.888 1.836-1.332 3.06-1.332 1.284 0 2.298.444 3.042 1.332.756.876 1.134 1.986 1.134 3.33v.342h-7.038c.06.852.372 1.566.936 2.142.564.576 1.296.864 2.196.864 1.08 0 1.974-.366 2.682-1.098l.648.882c-.888.888-2.04 1.332-3.456 1.332zm2.7-5.112a3.112 3.112 0 00-.756-1.998c-.492-.6-1.194-.9-2.106-.9-.864 0-1.548.294-2.052.882a3.31 3.31 0 00-.792 2.016h5.706zm4.869 4.896h-1.35v-8.694h1.35v3.618h4.536v-3.618h1.35V121h-1.35v-3.888h-4.536V121zm9.931 0h-1.35v-8.694h1.35v3.618h4.536v-3.618h1.35V121h-1.35v-3.888h-4.536V121zm15.494-1.098c-.78.876-1.818 1.314-3.114 1.314-1.296 0-2.34-.438-3.132-1.314-.78-.876-1.17-1.962-1.17-3.258s.39-2.376 1.17-3.24c.792-.876 1.836-1.314 3.132-1.314s2.334.438 3.114 1.314c.792.864 1.188 1.944 1.188 3.24 0 1.296-.396 2.382-1.188 3.258zm-5.238-.864c.528.648 1.236.972 2.124.972.888 0 1.59-.324 2.106-.972.516-.66.774-1.458.774-2.394 0-.936-.258-1.728-.774-2.376-.516-.648-1.218-.972-2.106-.972-.888 0-1.596.33-2.124.99-.516.648-.774 1.434-.774 2.358 0 .936.258 1.734.774 2.394zm17.101 2.178c-1.284 0-2.328-.432-3.132-1.296-.804-.876-1.206-1.968-1.206-3.276 0-1.308.402-2.394 1.206-3.258.804-.864 1.848-1.296 3.132-1.296 1.344 0 2.406.504 3.186 1.512l-.9.828c-.552-.756-1.29-1.134-2.214-1.134-.912 0-1.644.312-2.196.936-.54.624-.81 1.428-.81 2.412s.27 1.794.81 2.43c.552.624 1.284.936 2.196.936.912 0 1.65-.378 2.214-1.134l.9.828c-.78 1.008-1.842 1.512-3.186 1.512zm8.012-.216h-1.35v-7.506h-2.52v-1.188h6.408v1.188h-2.538V121zm11.22-1.098c-.78.876-1.818 1.314-3.114 1.314-1.296 0-2.34-.438-3.132-1.314-.78-.876-1.17-1.962-1.17-3.258s.39-2.376 1.17-3.24c.792-.876 1.836-1.314 3.132-1.314s2.334.438 3.114 1.314c.792.864 1.188 1.944 1.188 3.24 0 1.296-.396 2.382-1.188 3.258zm-5.238-.864c.528.648 1.236.972 2.124.972.888 0 1.59-.324 2.106-.972.516-.66.774-1.458.774-2.394 0-.936-.258-1.728-.774-2.376-.516-.648-1.218-.972-2.106-.972-.888 0-1.596.33-2.124.99-.516.648-.774 1.434-.774 2.358 0 .936.258 1.734.774 2.394zm7.601 2.178V120.1c.408 0 .744-.27 1.008-.81s.48-1.44.648-2.7l.558-4.284h6.048V121h-1.35v-7.506h-3.51l-.396 3.258c-.192 1.596-.528 2.742-1.008 3.438-.48.684-1.146 1.026-1.998 1.026zm10.958-8.91h1.35v3.366h3.258c.864 0 1.536.258 2.016.774.48.504.72 1.134.72 1.89s-.246 1.392-.738 1.908c-.48.504-1.146.756-1.998.756h-4.608v-8.694zm4.464 4.554h-3.114v2.952h3.114c.48 0 .846-.132 1.098-.396.264-.276.396-.636.396-1.08 0-.444-.132-.798-.396-1.062-.252-.276-.618-.414-1.098-.414zm12.59 4.14h-1.728l-3.132-3.906-1.44 1.422V121h-1.35v-8.694h1.35v4.626l4.572-4.626h1.71l-3.852 3.942 3.87 4.752zm8.456-1.098c-.78.876-1.818 1.314-3.114 1.314-1.296 0-2.34-.438-3.132-1.314-.78-.876-1.17-1.962-1.17-3.258s.39-2.376 1.17-3.24c.792-.876 1.836-1.314 3.132-1.314s2.334.438 3.114 1.314c.792.864 1.188 1.944 1.188 3.24 0 1.296-.396 2.382-1.188 3.258zm-5.238-.864c.528.648 1.236.972 2.124.972.888 0 1.59-.324 2.106-.972.516-.66.774-1.458.774-2.394 0-.936-.258-1.728-.774-2.376-.516-.648-1.218-.972-2.106-.972-.888 0-1.596.33-2.124.99-.516.648-.774 1.434-.774 2.358 0 .936.258 1.734.774 2.394zM244.462 121h-1.35v-7.506h-4.536V121h-1.35v-8.694h7.236V121zm6.98.216c-1.224 0-2.202-.51-2.934-1.53v4.626h-1.35v-12.006h1.35v1.296a3.604 3.604 0 011.26-1.098 3.494 3.494 0 011.674-.414c1.152 0 2.082.414 2.79 1.242.72.816 1.08 1.92 1.08 3.312s-.36 2.502-1.08 3.33c-.708.828-1.638 1.242-2.79 1.242zm-.342-1.206c.852 0 1.53-.312 2.034-.936.504-.636.756-1.446.756-2.43 0-.984-.252-1.788-.756-2.412-.504-.624-1.182-.936-2.034-.936-.516 0-1.02.138-1.512.414-.48.264-.84.588-1.08.972v3.924c.24.396.6.732 1.08 1.008.492.264.996.396 1.512.396zm13.27-.108c-.78.876-1.818 1.314-3.114 1.314-1.296 0-2.34-.438-3.132-1.314-.78-.876-1.17-1.962-1.17-3.258s.39-2.376 1.17-3.24c.792-.876 1.836-1.314 3.132-1.314s2.334.438 3.114 1.314c.792.864 1.188 1.944 1.188 3.24 0 1.296-.396 2.382-1.188 3.258zm-5.238-.864c.528.648 1.236.972 2.124.972.888 0 1.59-.324 2.106-.972.516-.66.774-1.458.774-2.394 0-.936-.258-1.728-.774-2.376-.516-.648-1.218-.972-2.106-.972-.888 0-1.596.33-2.124.99-.516.648-.774 1.434-.774 2.358 0 .936.258 1.734.774 2.394zm12.551 2.178c-1.296 0-2.358-.42-3.186-1.26-.828-.852-1.242-1.956-1.242-3.312 0-1.272.408-2.346 1.224-3.222.816-.888 1.836-1.332 3.06-1.332 1.284 0 2.298.444 3.042 1.332.756.876 1.134 1.986 1.134 3.33v.342h-7.038c.06.852.372 1.566.936 2.142.564.576 1.296.864 2.196.864 1.08 0 1.974-.366 2.682-1.098l.648.882c-.888.888-2.04 1.332-3.456 1.332zm2.7-5.112a3.112 3.112 0 00-.756-1.998c-.492-.6-1.194-.9-2.106-.9-.864 0-1.548.294-2.052.882a3.31 3.31 0 00-.792 2.016h5.706zM285.552 121h-1.728l-3.132-3.906-1.44 1.422V121h-1.35v-8.694h1.35v4.626l4.572-4.626h1.71l-3.852 3.942 3.87 4.752zm4.53 0h-1.35v-7.506h-2.52v-1.188h6.408v1.188h-2.538V121zm11.22-1.098c-.78.876-1.818 1.314-3.114 1.314-1.296 0-2.34-.438-3.132-1.314-.78-.876-1.17-1.962-1.17-3.258s.39-2.376 1.17-3.24c.792-.876 1.836-1.314 3.132-1.314s2.334.438 3.114 1.314c.792.864 1.188 1.944 1.188 3.24 0 1.296-.396 2.382-1.188 3.258zm-5.238-.864c.528.648 1.236.972 2.124.972.888 0 1.59-.324 2.106-.972.516-.66.774-1.458.774-2.394 0-.936-.258-1.728-.774-2.376-.516-.648-1.218-.972-2.106-.972-.888 0-1.596.33-2.124.99-.516.648-.774 1.434-.774 2.358 0 .936.258 1.734.774 2.394zM309.569 121h-4.878v-8.694h4.788c.756 0 1.35.204 1.782.612.444.408.666.948.666 1.62 0 .492-.138.918-.414 1.278a1.92 1.92 0 01-.99.702c.444.108.816.366 1.116.774.312.408.468.858.468 1.35 0 .708-.228 1.278-.684 1.71-.444.432-1.062.648-1.854.648zm-.27-1.188c.432 0 .774-.12 1.026-.36s.378-.564.378-.972c0-.372-.126-.69-.378-.954s-.594-.396-1.026-.396h-3.258v2.682h3.258zm-.054-3.87c.408 0 .726-.108.954-.324.228-.228.342-.522.342-.882 0-.384-.114-.684-.342-.9-.228-.228-.546-.342-.954-.342h-3.204v2.448h3.204zM72.311 143h-1.35v-7.506h-4.536V143h-1.35v-8.694h7.236V143zm9.607-1.098c-.78.876-1.818 1.314-3.114 1.314-1.296 0-2.34-.438-3.132-1.314-.78-.876-1.17-1.962-1.17-3.258s.39-2.376 1.17-3.24c.792-.876 1.836-1.314 3.132-1.314s2.334.438 3.114 1.314c.792.864 1.188 1.944 1.188 3.24 0 1.296-.396 2.382-1.188 3.258zm-5.238-.864c.528.648 1.236.972 2.124.972.888 0 1.59-.324 2.106-.972.516-.66.774-1.458.774-2.394 0-.936-.258-1.728-.774-2.376-.516-.648-1.218-.972-2.106-.972-.888 0-1.596.33-2.124.99-.516.648-.774 1.434-.774 2.358 0 .936.258 1.734.774 2.394zM97.184 143h-1.35v-7.506h-4.536V143h-1.35v-8.694h7.236V143zm9.607-1.098c-.78.876-1.818 1.314-3.114 1.314-1.296 0-2.34-.438-3.132-1.314-.78-.876-1.17-1.962-1.17-3.258s.39-2.376 1.17-3.24c.792-.876 1.836-1.314 3.132-1.314s2.334.438 3.114 1.314c.792.864 1.188 1.944 1.188 3.24 0 1.296-.396 2.382-1.188 3.258zm-5.238-.864c.528.648 1.236.972 2.124.972.888 0 1.59-.324 2.106-.972.516-.66.774-1.458.774-2.394 0-.936-.258-1.728-.774-2.376-.516-.648-1.218-.972-2.106-.972-.888 0-1.596.33-2.124.99-.516.648-.774 1.434-.774 2.358 0 .936.258 1.734.774 2.394zM115.058 143h-4.878v-8.694h4.788c.756 0 1.35.204 1.782.612.444.408.666.948.666 1.62 0 .492-.138.918-.414 1.278a1.92 1.92 0 01-.99.702c.444.108.816.366 1.116.774.312.408.468.858.468 1.35 0 .708-.228 1.278-.684 1.71-.444.432-1.062.648-1.854.648zm-.27-1.188c.432 0 .774-.12 1.026-.36s.378-.564.378-.972c0-.372-.126-.69-.378-.954s-.594-.396-1.026-.396h-3.258v2.682h3.258zm-.054-3.87c.408 0 .726-.108.954-.324.228-.228.342-.522.342-.882 0-.384-.114-.684-.342-.9-.228-.228-.546-.342-.954-.342h-3.204v2.448h3.204zm9.337 5.274c-1.296 0-2.358-.42-3.186-1.26-.828-.852-1.242-1.956-1.242-3.312 0-1.272.408-2.346 1.224-3.222.816-.888 1.836-1.332 3.06-1.332 1.284 0 2.298.444 3.042 1.332.756.876 1.134 1.986 1.134 3.33v.342h-7.038c.06.852.372 1.566.936 2.142.564.576 1.296.864 2.196.864 1.08 0 1.974-.366 2.682-1.098l.648.882c-.888.888-2.04 1.332-3.456 1.332zm2.7-5.112a3.112 3.112 0 00-.756-1.998c-.492-.6-1.194-.9-2.106-.9-.864 0-1.548.294-2.052.882a3.31 3.31 0 00-.792 2.016h5.706zm7.802 5.112c-1.224 0-2.202-.51-2.934-1.53v4.626h-1.35v-12.006h1.35v1.296a3.604 3.604 0 011.26-1.098 3.494 3.494 0 011.674-.414c1.152 0 2.082.414 2.79 1.242.72.816 1.08 1.92 1.08 3.312s-.36 2.502-1.08 3.33c-.708.828-1.638 1.242-2.79 1.242zm-.342-1.206c.852 0 1.53-.312 2.034-.936.504-.636.756-1.446.756-2.43 0-.984-.252-1.788-.756-2.412-.504-.624-1.182-.936-2.034-.936-.516 0-1.02.138-1.512.414-.48.264-.84.588-1.08.972v3.924c.24.396.6.732 1.08 1.008.492.264.996.396 1.512.396zm14.009.99h-1.728l-3.132-3.906-1.44 1.422V143h-1.35v-8.694h1.35v4.626l4.572-4.626h1.71l-3.852 3.942 3.87 4.752zm5.468.216c-1.296 0-2.358-.42-3.186-1.26-.828-.852-1.242-1.956-1.242-3.312 0-1.272.408-2.346 1.224-3.222.816-.888 1.836-1.332 3.06-1.332 1.284 0 2.298.444 3.042 1.332.756.876 1.134 1.986 1.134 3.33v.342h-7.038c.06.852.372 1.566.936 2.142.564.576 1.296.864 2.196.864 1.08 0 1.974-.366 2.682-1.098l.648.882c-.888.888-2.04 1.332-3.456 1.332zm2.7-5.112a3.112 3.112 0 00-.756-1.998c-.492-.6-1.194-.9-2.106-.9-.864 0-1.548.294-2.052.882a3.31 3.31 0 00-.792 2.016h5.706zm11.993 5.112c-1.284 0-2.328-.432-3.132-1.296-.804-.876-1.206-1.968-1.206-3.276 0-1.308.402-2.394 1.206-3.258.804-.864 1.848-1.296 3.132-1.296 1.344 0 2.406.504 3.186 1.512l-.9.828c-.552-.756-1.29-1.134-2.214-1.134-.912 0-1.644.312-2.196.936-.54.624-.81 1.428-.81 2.412s.27 1.794.81 2.43c.552.624 1.284.936 2.196.936.912 0 1.65-.378 2.214-1.134l.9.828c-.78 1.008-1.842 1.512-3.186 1.512zm4.898-8.91h1.35v2.448c0 .78.18 1.32.54 1.62.36.3.918.45 1.674.45.936 0 1.704-.156 2.304-.468v-4.05h1.35V143h-1.35v-3.546c-.768.384-1.65.576-2.646.576-1.128 0-1.95-.228-2.466-.684-.504-.456-.756-1.182-.756-2.178v-2.862zm13.842 8.91c-1.296 0-2.358-.42-3.186-1.26-.828-.852-1.242-1.956-1.242-3.312 0-1.272.408-2.346 1.224-3.222.816-.888 1.836-1.332 3.06-1.332 1.284 0 2.298.444 3.042 1.332.756.876 1.134 1.986 1.134 3.33v.342h-7.038c.06.852.372 1.566.936 2.142.564.576 1.296.864 2.196.864 1.08 0 1.974-.366 2.682-1.098l.648.882c-.888.888-2.04 1.332-3.456 1.332zm2.7-5.112a3.112 3.112 0 00-.756-1.998c-.492-.6-1.194-.9-2.106-.9-.864 0-1.548.294-2.052.882a3.31 3.31 0 00-.792 2.016h5.706zm6.453 4.896h-1.35v-7.506h-2.52v-1.188h6.408v1.188h-2.538V143zm4.128-8.694h1.35v2.448c0 .78.18 1.32.54 1.62.36.3.918.45 1.674.45.936 0 1.704-.156 2.304-.468v-4.05h1.35V143h-1.35v-3.546c-.768.384-1.65.576-2.646.576-1.128 0-1.95-.228-2.466-.684-.504-.456-.756-1.182-.756-2.178v-2.862zM211.636 143h-1.296v-8.694h1.35v6.642l4.554-6.642h1.332V143h-1.35v-6.768l-4.59 6.768zm16.286 0h-1.728l-3.132-3.906-1.44 1.422V143h-1.35v-8.694h1.35v4.626l4.572-4.626h1.71l-3.852 3.942 3.87 4.752zm8.455-1.098c-.78.876-1.818 1.314-3.114 1.314-1.296 0-2.34-.438-3.132-1.314-.78-.876-1.17-1.962-1.17-3.258s.39-2.376 1.17-3.24c.792-.876 1.836-1.314 3.132-1.314s2.334.438 3.114 1.314c.792.864 1.188 1.944 1.188 3.24 0 1.296-.396 2.382-1.188 3.258zm-5.238-.864c.528.648 1.236.972 2.124.972.888 0 1.59-.324 2.106-.972.516-.66.774-1.458.774-2.394 0-.936-.258-1.728-.774-2.376-.516-.648-1.218-.972-2.106-.972-.888 0-1.596.33-2.124.99-.516.648-.774 1.434-.774 2.358 0 .936.258 1.734.774 2.394zM244.644 143h-4.878v-8.694h4.788c.756 0 1.35.204 1.782.612.444.408.666.948.666 1.62 0 .492-.138.918-.414 1.278a1.92 1.92 0 01-.99.702c.444.108.816.366 1.116.774.312.408.468.858.468 1.35 0 .708-.228 1.278-.684 1.71-.444.432-1.062.648-1.854.648zm-.27-1.188c.432 0 .774-.12 1.026-.36s.378-.564.378-.972c0-.372-.126-.69-.378-.954s-.594-.396-1.026-.396h-3.258v2.682h3.258zm-.054-3.87c.408 0 .726-.108.954-.324.228-.228.342-.522.342-.882 0-.384-.114-.684-.342-.9-.228-.228-.546-.342-.954-.342h-3.204v2.448h3.204zM259.251 143h-4.878v-8.694h4.788c.756 0 1.35.204 1.782.612.444.408.666.948.666 1.62 0 .492-.138.918-.414 1.278a1.92 1.92 0 01-.99.702c.444.108.816.366 1.116.774.312.408.468.858.468 1.35 0 .708-.228 1.278-.684 1.71-.444.432-1.062.648-1.854.648zm-.27-1.188c.432 0 .774-.12 1.026-.36s.378-.564.378-.972c0-.372-.126-.69-.378-.954s-.594-.396-1.026-.396h-3.258v2.682h3.258zm-.054-3.87c.408 0 .726-.108.954-.324.228-.228.342-.522.342-.882 0-.384-.114-.684-.342-.9-.228-.228-.546-.342-.954-.342h-3.204v2.448h3.204zm5.413-3.636h1.35v3.366h3.258c.864 0 1.536.258 2.016.774.48.504.72 1.134.72 1.89s-.246 1.392-.738 1.908c-.48.504-1.146.756-1.998.756h-4.608v-8.694zm4.464 4.554h-3.114v2.952h3.114c.48 0 .846-.132 1.098-.396.264-.276.396-.636.396-1.08 0-.444-.132-.798-.396-1.062-.252-.276-.618-.414-1.098-.414zm5.652 4.14h-1.35v-8.694h1.35V143zm9.935 0h-1.35v-7.506h-4.536V143h-1.35v-8.694h7.236V143zm9.607-1.098c-.78.876-1.818 1.314-3.114 1.314-1.296 0-2.34-.438-3.132-1.314-.78-.876-1.17-1.962-1.17-3.258s.39-2.376 1.17-3.24c.792-.876 1.836-1.314 3.132-1.314s2.334.438 3.114 1.314c.792.864 1.188 1.944 1.188 3.24 0 1.296-.396 2.382-1.188 3.258zm-5.238-.864c.528.648 1.236.972 2.124.972.888 0 1.59-.324 2.106-.972.516-.66.774-1.458.774-2.394 0-.936-.258-1.728-.774-2.376-.516-.648-1.218-.972-2.106-.972-.888 0-1.596.33-2.124.99-.516.648-.774 1.434-.774 2.358 0 .936.258 1.734.774 2.394zm7.601 2.178V142.1c.408 0 .744-.27 1.008-.81s.48-1.44.648-2.7l.558-4.284h6.048V143h-1.35v-7.506h-3.51l-.396 3.258c-.192 1.596-.528 2.742-1.008 3.438-.48.684-1.146 1.026-1.998 1.026zm12.308-.216h-1.35v-8.694h1.35v3.618h4.536v-3.618h1.35V143h-1.35v-3.888h-4.536V143zm12.505.216c-1.296 0-2.358-.42-3.186-1.26-.828-.852-1.242-1.956-1.242-3.312 0-1.272.408-2.346 1.224-3.222.816-.888 1.836-1.332 3.06-1.332 1.284 0 2.298.444 3.042 1.332.756.876 1.134 1.986 1.134 3.33v.342h-7.038c.06.852.372 1.566.936 2.142.564.576 1.296.864 2.196.864 1.08 0 1.974-.366 2.682-1.098l.648.882c-.888.888-2.04 1.332-3.456 1.332zm2.7-5.112a3.112 3.112 0 00-.756-1.998c-.492-.6-1.194-.9-2.106-.9-.864 0-1.548.294-2.052.882a3.31 3.31 0 00-.792 2.016h5.706zm4.869 4.896h-1.35v-8.694h1.35v3.618h4.536v-3.618h1.35V143h-1.35v-3.888h-4.536V143zm15.494-1.098c-.78.876-1.818 1.314-3.114 1.314-1.296 0-2.34-.438-3.132-1.314-.78-.876-1.17-1.962-1.17-3.258s.39-2.376 1.17-3.24c.792-.876 1.836-1.314 3.132-1.314s2.334.438 3.114 1.314c.792.864 1.188 1.944 1.188 3.24 0 1.296-.396 2.382-1.188 3.258zm-5.238-.864c.528.648 1.236.972 2.124.972.888 0 1.59-.324 2.106-.972.516-.66.774-1.458.774-2.394 0-.936-.258-1.728-.774-2.376-.516-.648-1.218-.972-2.106-.972-.888 0-1.596.33-2.124.99-.516.648-.774 1.434-.774 2.358 0 .936.258 1.734.774 2.394zM137.344 165h-1.35v-8.694h1.35v3.618h4.536v-3.618h1.35V165h-1.35v-3.888h-4.536V165zm15.367 0h-1.35v-.99c-.732.804-1.692 1.206-2.88 1.206a3.197 3.197 0 01-2.124-.774c-.612-.516-.918-1.218-.918-2.106 0-.912.3-1.614.9-2.106a3.268 3.268 0 012.142-.756c1.236 0 2.196.396 2.88 1.188v-1.566c0-.576-.204-1.026-.612-1.35-.408-.324-.936-.486-1.584-.486-1.02 0-1.908.402-2.664 1.206l-.63-.936c.924-.96 2.082-1.44 3.474-1.44.996 0 1.806.24 2.43.72.624.48.936 1.218.936 2.214V165zm-3.744-.756c1.08 0 1.878-.36 2.394-1.08v-1.638c-.516-.72-1.314-1.08-2.394-1.08-.624 0-1.14.18-1.548.54-.396.348-.594.804-.594 1.368 0 .552.198 1.008.594 1.368.408.348.924.522 1.548.522zm15.324.756h-1.35v-6.822L160.115 165h-.504l-2.844-6.822V165h-1.35v-8.694h1.782l2.664 6.444 2.628-6.444h1.8V165zm3.989 0h-1.296v-8.694h1.35v6.642l4.554-6.642h1.332V165h-1.35v-6.768L168.28 165zm16.354.216c-1.668 0-2.976-.474-3.924-1.422l.666-.864c.816.78 1.902 1.17 3.258 1.17.78 0 1.398-.138 1.854-.414.468-.276.702-.642.702-1.098 0-.96-.912-1.44-2.736-1.44h-1.944v-1.098h1.944c.756 0 1.374-.12 1.854-.36.48-.252.72-.618.72-1.098 0-.408-.24-.738-.72-.99-.48-.264-1.086-.396-1.818-.396-1.212 0-2.184.372-2.916 1.116l-.702-.828c.9-.924 2.088-1.386 3.564-1.386 1.188-.012 2.148.192 2.88.612.744.408 1.116.978 1.116 1.71 0 .6-.246 1.086-.738 1.458a3.21 3.21 0 01-1.602.666 3.474 3.474 0 011.71.612c.54.36.81.864.81 1.512 0 .744-.36 1.356-1.08 1.836-.708.468-1.674.702-2.898.702zm12.954-.216h-1.35v-.99c-.732.804-1.692 1.206-2.88 1.206a3.197 3.197 0 01-2.124-.774c-.612-.516-.918-1.218-.918-2.106 0-.912.3-1.614.9-2.106a3.268 3.268 0 012.142-.756c1.236 0 2.196.396 2.88 1.188v-1.566c0-.576-.204-1.026-.612-1.35-.408-.324-.936-.486-1.584-.486-1.02 0-1.908.402-2.664 1.206l-.63-.936c.924-.96 2.082-1.44 3.474-1.44.996 0 1.806.24 2.43.72.624.48.936 1.218.936 2.214V165zm-3.744-.756c1.08 0 1.878-.36 2.394-1.08v-1.638c-.516-.72-1.314-1.08-2.394-1.08-.624 0-1.14.18-1.548.54-.396.348-.594.804-.594 1.368 0 .552.198 1.008.594 1.368.408.348.924.522 1.548.522zm13.467.972c-1.344 0-2.406-.504-3.186-1.512l.864-.792c.588.792 1.344 1.188 2.268 1.188.828 0 1.5-.264 2.016-.792.528-.528.84-1.236.936-2.124h-4.374v-1.17h4.356c-.108-.852-.426-1.53-.954-2.034-.516-.516-1.176-.774-1.98-.774-.936 0-1.692.396-2.268 1.188l-.864-.792c.78-1.008 1.842-1.512 3.186-1.512 1.284 0 2.328.432 3.132 1.296.816.864 1.224 1.95 1.224 3.258s-.408 2.4-1.224 3.276c-.804.864-1.848 1.296-3.132 1.296zm9.47-.216h-1.35v-7.506h-2.52v-1.188h6.408v1.188h-2.538V165zm5.604 0h-1.296v-8.694h1.35v6.642l4.554-6.642h1.332V165h-1.35v-6.768l-4.59 6.768zm19.361-8.694v1.188h-4.734V165h-1.35v-8.694h6.084zm8.667 7.596c-.78.876-1.818 1.314-3.114 1.314-1.296 0-2.34-.438-3.132-1.314-.78-.876-1.17-1.962-1.17-3.258s.39-2.376 1.17-3.24c.792-.876 1.836-1.314 3.132-1.314s2.334.438 3.114 1.314c.792.864 1.188 1.944 1.188 3.24 0 1.296-.396 2.382-1.188 3.258zm-5.238-.864c.528.648 1.236.972 2.124.972.888 0 1.59-.324 2.106-.972.516-.66.774-1.458.774-2.394 0-.936-.258-1.728-.774-2.376-.516-.648-1.218-.972-2.106-.972-.888 0-1.596.33-2.124.99-.516.648-.774 1.434-.774 2.358 0 .936.258 1.734.774 2.394zm7.601 4.176v-3.33c.444-.084.792-.348 1.044-.792.252-.456.456-1.29.612-2.502l.558-4.284h6.048v7.506h1.008v3.402h-1.35V165h-6.57v2.214h-1.35zm3.402-9.72l-.396 3.258c-.204 1.524-.624 2.544-1.26 3.06h5.166v-6.318h-3.51zm7.714-1.188h1.35v3.366h3.258c.864 0 1.536.258 2.016.774.48.504.72 1.134.72 1.89s-.246 1.392-.738 1.908c-.48.504-1.146.756-1.998.756h-4.608v-8.694zm4.464 4.554h-3.114v2.952h3.114c.48 0 .846-.132 1.098-.396.264-.276.396-.636.396-1.08 0-.444-.132-.798-.396-1.062-.252-.276-.618-.414-1.098-.414zm5.652 4.14h-1.35v-8.694h1.35V165z" fill="#000"/><defs><filter id="filter0_d" x="0" y="0" width="410" height="259" filterUnits="userSpaceOnUse" color-interpolation-filters="sRGB"><feFlood flood-opacity="0" result="BackgroundImageFix"/><feColorMatrix in="SourceAlpha" values="0 0 0 0 0 0 0 0 0 0 0 0 0 0 0 0 0 0 127 0"/><feOffset dy="20"/><feGaussianBlur stdDeviation="27.5"/><feColorMatrix values="0 0 0 0 0 0 0 0 0 0 0 0 0 0 0 0 0 0 0.05 0"/><feBlend in2="BackgroundImageFix" result="effect1_dropShadow"/><feBlend in="SourceGraphic" in2="effect1_dropShadow" result="shape"/></filter></defs></svg>