<svg width="410" height="259" fill="none" xmlns="http://www.w3.org/2000/svg"><g filter="url(#filter0_d)"><path fill="#fff" d="M55 35h300v149H55z"/></g><path d="M161.399 99.576c-5.28 0-9.392-1.6-12.336-4.8l3.792-4.752c2.24 2.336 5.072 3.504 8.496 3.504 1.824 0 3.264-.448 4.32-1.344 1.088-.928 1.632-2.064 1.632-3.408 0-1.44-.512-2.592-1.536-3.456-1.024-.864-2.432-1.296-4.224-1.296-2.656 0-4.896.864-6.72 2.592l-4.752-1.248V66.984h21.984v6h-15.168v7.824c1.792-1.792 4.144-2.688 7.056-2.688 2.848 0 5.264.944 7.248 2.832 2.016 1.888 3.024 4.4 3.024 7.536 0 3.392-1.168 6.096-3.504 8.112-2.336 1.984-5.44 2.976-9.312 2.976zm27.66 0v-4.992c.96 0 1.728-.56 2.304-1.68.576-1.152 1.04-3.104 1.392-5.856l1.488-11.232h18.768V99h-6.096V81.144h-7.344l-.768 6.624c-.48 4.064-1.504 7.056-3.072 8.976-1.536 1.888-3.76 2.832-6.672 2.832zm40.9 0c-3.584 0-6.544-1.12-8.88-3.36-2.336-2.24-3.504-5.184-3.504-8.832 0-3.424 1.12-6.304 3.36-8.64 2.272-2.336 5.152-3.504 8.64-3.504 3.456 0 6.256 1.184 8.4 3.552 2.144 2.336 3.216 5.408 3.216 9.216v1.344h-17.232c.192 1.536.88 2.816 2.064 3.84 1.184 1.024 2.72 1.536 4.608 1.536 1.024 0 2.128-.208 3.312-.624 1.216-.416 2.176-.976 2.88-1.68l2.688 3.936c-2.336 2.144-5.52 3.216-9.552 3.216zm5.328-14.352c-.096-1.312-.624-2.496-1.584-3.552-.928-1.056-2.304-1.584-4.128-1.584-1.728 0-3.072.528-4.032 1.584-.96 1.024-1.52 2.208-1.68 3.552h11.424zM256.01 99h-6.144V81.144h-6.48v-5.328h19.104v5.328h-6.48V99z" fill="#053365"/><path d="M85.991 131h-1.494v-5.508h-7.02V131h-1.494v-12.006h1.494v5.166h7.02v-5.166h1.494V131zm9.539 0h-1.35v-.99c-.732.804-1.692 1.206-2.88 1.206a3.197 3.197 0 01-2.124-.774c-.612-.516-.918-1.218-.918-2.106 0-.912.3-1.614.9-2.106a3.268 3.268 0 012.142-.756c1.236 0 2.196.396 2.88 1.188v-1.566c0-.576-.204-1.026-.612-1.35-.408-.324-.936-.486-1.584-.486-1.02 0-1.908.402-2.664 1.206l-.63-.936c.924-.96 2.082-1.44 3.474-1.44.996 0 1.806.24 2.43.72.624.48.936 1.218.936 2.214V131zm-3.744-.756c1.08 0 1.878-.36 2.394-1.08v-1.638c-.516-.72-1.314-1.08-2.394-1.08-.624 0-1.14.18-1.548.54-.396.348-.594.804-.594 1.368 0 .552.198 1.008.594 1.368.408.348.924.522 1.548.522zm15.374.972c-1.224 0-2.202-.51-2.934-1.53v4.626h-1.35v-12.006h1.35v1.296a3.604 3.604 0 011.26-1.098 3.494 3.494 0 011.674-.414c1.152 0 2.082.414 2.79 1.242.72.816 1.08 1.92 1.08 3.312s-.36 2.502-1.08 3.33c-.708.828-1.638 1.242-2.79 1.242zm-.342-1.206c.852 0 1.53-.312 2.034-.936.504-.636.756-1.446.756-2.43 0-.984-.252-1.788-.756-2.412-.504-.624-1.182-.936-2.034-.936-.516 0-1.02.138-1.512.414-.48.264-.84.588-1.08.972v3.924c.24.396.6.732 1.08 1.008.492.264.996.396 1.512.396zm6.359-7.704h1.35v3.366h3.258c.864 0 1.536.258 2.016.774.48.504.72 1.134.72 1.89s-.246 1.392-.738 1.908c-.48.504-1.146.756-1.998.756h-4.608v-8.694zm4.464 4.554h-3.114v2.952h3.114c.48 0 .846-.132 1.098-.396.264-.276.396-.636.396-1.08 0-.444-.132-.798-.396-1.062-.252-.276-.618-.414-1.098-.414zm5.652 4.14h-1.35v-8.694h1.35V131zm4.049 0h-1.35v-8.694h1.35v3.618h4.536v-3.618h1.35V131h-1.35v-3.888h-4.536V131zm16.231 0h-1.728l-3.132-3.906-1.44 1.422V131h-1.35v-8.694h1.35v4.626l4.572-4.626h1.71l-3.852 3.942 3.87 4.752zm5.468.216c-1.296 0-2.358-.42-3.186-1.26-.828-.852-1.242-1.956-1.242-3.312 0-1.272.408-2.346 1.224-3.222.816-.888 1.836-1.332 3.06-1.332 1.284 0 2.298.444 3.042 1.332.756.876 1.134 1.986 1.134 3.33v.342h-7.038c.06.852.372 1.566.936 2.142.564.576 1.296.864 2.196.864 1.08 0 1.974-.366 2.682-1.098l.648.882c-.888.888-2.04 1.332-3.456 1.332zm2.7-5.112a3.112 3.112 0 00-.756-1.998c-.492-.6-1.194-.9-2.106-.9-.864 0-1.548.294-2.052.882a3.31 3.31 0 00-.792 2.016h5.706zM164.778 131H159.9v-8.694h4.788c.756 0 1.35.204 1.782.612.444.408.666.948.666 1.62 0 .492-.138.918-.414 1.278a1.92 1.92 0 01-.99.702c.444.108.816.366 1.116.774.312.408.468.858.468 1.35 0 .708-.228 1.278-.684 1.71-.444.432-1.062.648-1.854.648zm-.27-1.188c.432 0 .774-.12 1.026-.36s.378-.564.378-.972c0-.372-.126-.69-.378-.954s-.594-.396-1.026-.396h-3.258v2.682h3.258zm-.054-3.87c.408 0 .726-.108.954-.324.228-.228.342-.522.342-.882 0-.384-.114-.684-.342-.9-.228-.228-.546-.342-.954-.342h-3.204v2.448h3.204zm12.325 3.96c-.78.876-1.818 1.314-3.114 1.314-1.296 0-2.34-.438-3.132-1.314-.78-.876-1.17-1.962-1.17-3.258s.39-2.376 1.17-3.24c.792-.876 1.836-1.314 3.132-1.314s2.334.438 3.114 1.314c.792.864 1.188 1.944 1.188 3.24 0 1.296-.396 2.382-1.188 3.258zm-5.238-.864c.528.648 1.236.972 2.124.972.888 0 1.59-.324 2.106-.972.516-.66.774-1.458.774-2.394 0-.936-.258-1.728-.774-2.376-.516-.648-1.218-.972-2.106-.972-.888 0-1.596.33-2.124.99-.516.648-.774 1.434-.774 2.358 0 .936.258 1.734.774 2.394zm7.6 4.176v-3.33c.444-.084.792-.348 1.044-.792.252-.456.456-1.29.612-2.502l.558-4.284h6.048v7.506h1.008v3.402h-1.35V131h-6.57v2.214h-1.35zm3.402-9.72l-.396 3.258c-.204 1.524-.624 2.544-1.26 3.06h5.166v-6.318h-3.51zm14.626 6.408c-.78.876-1.818 1.314-3.114 1.314-1.296 0-2.34-.438-3.132-1.314-.78-.876-1.17-1.962-1.17-3.258s.39-2.376 1.17-3.24c.792-.876 1.836-1.314 3.132-1.314s2.334.438 3.114 1.314c.792.864 1.188 1.944 1.188 3.24 0 1.296-.396 2.382-1.188 3.258zm-5.238-.864c.528.648 1.236.972 2.124.972.888 0 1.59-.324 2.106-.972.516-.66.774-1.458.774-2.394 0-.936-.258-1.728-.774-2.376-.516-.648-1.218-.972-2.106-.972-.888 0-1.596.33-2.124.99-.516.648-.774 1.434-.774 2.358 0 .936.258 1.734.774 2.394zm9.923 1.962h-1.296v-8.694h1.35v6.642l4.554-6.642h1.332V131h-1.35v-6.768l-4.59 6.768zm11.714.216c-1.668 0-2.976-.474-3.924-1.422l.666-.864c.816.78 1.902 1.17 3.258 1.17.78 0 1.398-.138 1.854-.414.468-.276.702-.642.702-1.098 0-.96-.912-1.44-2.736-1.44h-1.944v-1.098h1.944c.756 0 1.374-.12 1.854-.36.48-.252.72-.618.72-1.098 0-.408-.24-.738-.72-.99-.48-.264-1.086-.396-1.818-.396-1.212 0-2.184.372-2.916 1.116l-.702-.828c.9-.924 2.088-1.386 3.564-1.386 1.188-.012 2.148.192 2.88.612.744.408 1.116.978 1.116 1.71 0 .6-.246 1.086-.738 1.458a3.21 3.21 0 01-1.602.666 3.474 3.474 0 011.71.612c.54.36.81.864.81 1.512 0 .744-.36 1.356-1.08 1.836-.708.468-1.674.702-2.898.702zM228.61 131h-1.35v-6.822L224.434 131h-.504l-2.844-6.822V131h-1.35v-8.694h1.782l2.664 6.444 2.628-6.444h1.8V131zm6.616.216c-1.296 0-2.358-.42-3.186-1.26-.828-.852-1.242-1.956-1.242-3.312 0-1.272.408-2.346 1.224-3.222.816-.888 1.836-1.332 3.06-1.332 1.284 0 2.298.444 3.042 1.332.756.876 1.134 1.986 1.134 3.33v.342h-7.038c.06.852.372 1.566.936 2.142.564.576 1.296.864 2.196.864 1.08 0 1.974-.366 2.682-1.098l.648.882c-.888.888-2.04 1.332-3.456 1.332zm2.7-5.112a3.112 3.112 0 00-.756-1.998c-.492-.6-1.194-.9-2.106-.9-.864 0-1.548.294-2.052.882a3.31 3.31 0 00-.792 2.016h5.706zm7.803 5.112c-1.224 0-2.202-.51-2.934-1.53v4.626h-1.35v-12.006h1.35v1.296a3.604 3.604 0 011.26-1.098 3.494 3.494 0 011.674-.414c1.152 0 2.082.414 2.79 1.242.72.816 1.08 1.92 1.08 3.312s-.36 2.502-1.08 3.33c-.708.828-1.638 1.242-2.79 1.242zm-.342-1.206c.852 0 1.53-.312 2.034-.936.504-.636.756-1.446.756-2.43 0-.984-.252-1.788-.756-2.412-.504-.624-1.182-.936-2.034-.936-.516 0-1.02.138-1.512.414-.48.264-.84.588-1.08.972v3.924c.24.396.6.732 1.08 1.008.492.264.996.396 1.512.396zm7.655.99h-1.296v-8.694h1.35v6.642l4.554-6.642h1.332V131h-1.35v-6.768l-4.59 6.768zm11.569 0h-1.35v-7.506h-2.52v-1.188h6.408v1.188h-2.538V131zm8.232.216c-1.296 0-2.358-.42-3.186-1.26-.828-.852-1.242-1.956-1.242-3.312 0-1.272.408-2.346 1.224-3.222.816-.888 1.836-1.332 3.06-1.332 1.284 0 2.298.444 3.042 1.332.756.876 1.134 1.986 1.134 3.33v.342h-7.038c.06.852.372 1.566.936 2.142.564.576 1.296.864 2.196.864 1.08 0 1.974-.366 2.682-1.098l.648.882c-.888.888-2.04 1.332-3.456 1.332zm2.7-5.112a3.112 3.112 0 00-.756-1.998c-.492-.6-1.194-.9-2.106-.9-.864 0-1.548.294-2.052.882a3.31 3.31 0 00-.792 2.016h5.706zm2.493 5.112V130.1c.408 0 .744-.27 1.008-.81s.48-1.44.648-2.7l.558-4.284h6.048V131h-1.35v-7.506h-3.51l-.396 3.258c-.192 1.596-.528 2.742-1.008 3.438-.48.684-1.146 1.026-1.998 1.026zm10.958-8.91h1.35v3.366h3.258c.864 0 1.536.258 2.016.774.48.504.72 1.134.72 1.89s-.246 1.392-.738 1.908c-.48.504-1.146.756-1.998.756h-4.608v-8.694zm4.464 4.554h-3.114v2.952h3.114c.48 0 .846-.132 1.098-.396.264-.276.396-.636.396-1.08 0-.444-.132-.798-.396-1.062-.252-.276-.618-.414-1.098-.414zm6.29 4.14h-1.35v-8.694h1.35v3.618h4.536v-3.618h1.35V131h-1.35v-3.888h-4.536V131zm15.493-1.098c-.78.876-1.818 1.314-3.114 1.314-1.296 0-2.34-.438-3.132-1.314-.78-.876-1.17-1.962-1.17-3.258s.39-2.376 1.17-3.24c.792-.876 1.836-1.314 3.132-1.314s2.334.438 3.114 1.314c.792.864 1.188 1.944 1.188 3.24 0 1.296-.396 2.382-1.188 3.258zm-5.238-.864c.528.648 1.236.972 2.124.972.888 0 1.59-.324 2.106-.972.516-.66.774-1.458.774-2.394 0-.936-.258-1.728-.774-2.376-.516-.648-1.218-.972-2.106-.972-.888 0-1.596.33-2.124.99-.516.648-.774 1.434-.774 2.358 0 .936.258 1.734.774 2.394zm14.711-6.732v1.188h-4.734V131h-1.35v-8.694h6.084zm8.668 7.596c-.78.876-1.818 1.314-3.114 1.314-1.296 0-2.34-.438-3.132-1.314-.78-.876-1.17-1.962-1.17-3.258s.39-2.376 1.17-3.24c.792-.876 1.836-1.314 3.132-1.314s2.334.438 3.114 1.314c.792.864 1.188 1.944 1.188 3.24 0 1.296-.396 2.382-1.188 3.258zm-5.238-.864c.528.648 1.236.972 2.124.972.888 0 1.59-.324 2.106-.972.516-.66.774-1.458.774-2.394 0-.936-.258-1.728-.774-2.376-.516-.648-1.218-.972-2.106-.972-.888 0-1.596.33-2.124.99-.516.648-.774 1.434-.774 2.358 0 .936.258 1.734.774 2.394zm-174.718 22.864c-.78.876-1.818 1.314-3.114 1.314-1.296 0-2.34-.438-3.132-1.314-.78-.876-1.17-1.962-1.17-3.258s.39-2.376 1.17-3.24c.792-.876 1.836-1.314 3.132-1.314s2.334.438 3.114 1.314c.792.864 1.188 1.944 1.188 3.24 0 1.296-.396 2.382-1.188 3.258zm-5.238-.864c.528.648 1.236.972 2.124.972.888 0 1.59-.324 2.106-.972.516-.66.774-1.458.774-2.394 0-.936-.258-1.728-.774-2.376-.516-.648-1.218-.972-2.106-.972-.888 0-1.596.33-2.124.99-.516.648-.774 1.434-.774 2.358 0 .936.258 1.734.774 2.394zm10.301 0c.528.648 1.236.972 2.124.972.888 0 1.59-.324 2.106-.972.516-.66.774-1.464.774-2.412 0-.924-.258-1.71-.774-2.358-.516-.648-1.218-.972-2.106-.972-.888 0-1.596.324-2.124.972-.516.648-.774 1.434-.774 2.358 0 .948.258 1.752.774 2.412zm2.124 2.178c-1.308 0-2.352-.462-3.132-1.386-.78-.924-1.17-2.118-1.17-3.582 0-2.064.372-3.588 1.116-4.572.744-.996 1.89-1.596 3.438-1.8.924-.144 1.56-.282 1.908-.414.36-.132.54-.288.54-.468h1.314c0 .336-.102.63-.306.882-.204.24-.498.432-.882.576a9.003 9.003 0 01-1.062.342c-.324.072-.714.138-1.17.198-1.2.168-2.07.498-2.61.99-.528.492-.876 1.146-1.044 1.962.792-1.236 1.884-1.854 3.276-1.854 1.2 0 2.178.438 2.934 1.314.756.876 1.134 1.95 1.134 3.222 0 1.296-.39 2.388-1.17 3.276-.78.876-1.818 1.314-3.114 1.314zm13.503-1.314c-.78.876-1.818 1.314-3.114 1.314-1.296 0-2.34-.438-3.132-1.314-.78-.876-1.17-1.962-1.17-3.258s.39-2.376 1.17-3.24c.792-.876 1.836-1.314 3.132-1.314s2.334.438 3.114 1.314c.792.864 1.188 1.944 1.188 3.24 0 1.296-.396 2.382-1.188 3.258zm-5.238-.864c.528.648 1.236.972 2.124.972.888 0 1.59-.324 2.106-.972.516-.66.774-1.458.774-2.394 0-.936-.258-1.728-.774-2.376-.516-.648-1.218-.972-2.106-.972-.888 0-1.596.33-2.124.99-.516.648-.774 1.434-.774 2.358 0 .936.258 1.734.774 2.394zm12.91 2.178c-1.224 0-2.202-.51-2.934-1.53v4.626h-1.35v-12.006h1.35v1.296a3.604 3.604 0 011.26-1.098 3.494 3.494 0 011.674-.414c1.152 0 2.082.414 2.79 1.242.72.816 1.08 1.92 1.08 3.312s-.36 2.502-1.08 3.33c-.708.828-1.638 1.242-2.79 1.242zm-.342-1.206c.852 0 1.53-.312 2.034-.936.504-.636.756-1.446.756-2.43 0-.984-.252-1.788-.756-2.412-.504-.624-1.182-.936-2.034-.936-.516 0-1.02.138-1.512.414-.48.264-.84.588-1.08.972v3.924c.24.396.6.732 1.08 1.008.492.264.996.396 1.512.396zm5.873 4.392l.216-1.224a1.8 1.8 0 00.738.144c.312 0 .57-.066.774-.198.204-.132.378-.372.522-.72l.576-1.314-3.636-8.784h1.458l2.898 7.128 2.88-7.128h1.476l-4.356 10.458c-.48 1.152-1.332 1.74-2.556 1.764-.36 0-.69-.042-.99-.126zm8.284-1.188v-3.33c.444-.084.792-.348 1.044-.792.252-.456.456-1.29.612-2.502l.558-4.284h6.048v7.506h1.008v3.402h-1.35V153h-6.57v2.214h-1.35zm3.402-9.72l-.396 3.258c-.204 1.524-.624 2.544-1.26 3.06h5.166v-6.318h-3.51zm14.626 6.408c-.78.876-1.818 1.314-3.114 1.314-1.296 0-2.34-.438-3.132-1.314-.78-.876-1.17-1.962-1.17-3.258s.39-2.376 1.17-3.24c.792-.876 1.836-1.314 3.132-1.314s2.334.438 3.114 1.314c.792.864 1.188 1.944 1.188 3.24 0 1.296-.396 2.382-1.188 3.258zm-5.238-.864c.528.648 1.236.972 2.124.972.888 0 1.59-.324 2.106-.972.516-.66.774-1.458.774-2.394 0-.936-.258-1.728-.774-2.376-.516-.648-1.218-.972-2.106-.972-.888 0-1.596.33-2.124.99-.516.648-.774 1.434-.774 2.358 0 .936.258 1.734.774 2.394zM221.898 153h-4.878v-8.694h4.788c.756 0 1.35.204 1.782.612.444.408.666.948.666 1.62 0 .492-.138.918-.414 1.278a1.92 1.92 0 01-.99.702c.444.108.816.366 1.116.774.312.408.468.858.468 1.35 0 .708-.228 1.278-.684 1.71-.444.432-1.062.648-1.854.648zm-.27-1.188c.432 0 .774-.12 1.026-.36s.378-.564.378-.972c0-.372-.126-.69-.378-.954s-.594-.396-1.026-.396h-3.258v2.682h3.258zm-.054-3.87c.408 0 .726-.108.954-.324.228-.228.342-.522.342-.882 0-.384-.114-.684-.342-.9-.228-.228-.546-.342-.954-.342h-3.204v2.448h3.204zM233.773 153h-1.35v-.99c-.732.804-1.692 1.206-2.88 1.206a3.197 3.197 0 01-2.124-.774c-.612-.516-.918-1.218-.918-2.106 0-.912.3-1.614.9-2.106a3.268 3.268 0 012.142-.756c1.236 0 2.196.396 2.88 1.188v-1.566c0-.576-.204-1.026-.612-1.35-.408-.324-.936-.486-1.584-.486-1.02 0-1.908.402-2.664 1.206l-.63-.936c.924-.96 2.082-1.44 3.474-1.44.996 0 1.806.24 2.43.72.624.48.936 1.218.936 2.214V153zm-3.744-.756c1.08 0 1.878-.36 2.394-1.08v-1.638c-.516-.72-1.314-1.08-2.394-1.08-.624 0-1.14.18-1.548.54-.396.348-.594.804-.594 1.368 0 .552.198 1.008.594 1.368.408.348.924.522 1.548.522zm7.8.756h-1.35v-8.694h1.35v3.618h4.536v-3.618h1.35V153h-1.35v-3.888h-4.536V153zm9.878 0h-1.296v-8.694h1.35v6.642l4.554-6.642h1.332V153h-1.35v-6.768l-4.59 6.768zm9.931 0h-1.584l2.322-3.42c-.66-.084-1.2-.36-1.62-.828-.408-.468-.612-1.062-.612-1.782 0-.768.246-1.404.738-1.908s1.164-.756 2.016-.756h4.59V153h-1.35v-3.366h-2.376L257.638 153zm1.404-4.554h3.096v-2.952h-3.096c-.468 0-.84.138-1.116.414-.264.264-.396.618-.396 1.062 0 .444.132.804.396 1.08.264.264.636.396 1.116.396z" fill="#000"/><defs><filter id="filter0_d" x="0" y="0" width="410" height="259" filterUnits="userSpaceOnUse" color-interpolation-filters="sRGB"><feFlood flood-opacity="0" result="BackgroundImageFix"/><feColorMatrix in="SourceAlpha" values="0 0 0 0 0 0 0 0 0 0 0 0 0 0 0 0 0 0 127 0"/><feOffset dy="20"/><feGaussianBlur stdDeviation="27.5"/><feColorMatrix values="0 0 0 0 0 0 0 0 0 0 0 0 0 0 0 0 0 0 0.05 0"/><feBlend in2="BackgroundImageFix" result="effect1_dropShadow"/><feBlend in="SourceGraphic" in2="effect1_dropShadow" result="shape"/></filter></defs></svg>