<svg width="95" height="78" fill="none" xmlns="http://www.w3.org/2000/svg"><path opacity=".2" d="M15.502 72.03C5.167 62.48 0 45.766 0 21.889 0 14.194 1.722 8.622 5.167 5.173 8.877 1.724 14.707 0 22.657 0c7.95 0 13.25 1.46 15.9 4.378 2.65 2.653 3.974 6.765 3.974 12.336 0 7.96-.795 13.266-2.385 15.919-1.325 3.98-5.83 5.969-13.514 5.969-4.77 0-7.155 2.388-7.155 7.163 0 10.878 3.312 20.296 9.937 28.255 0 2.654-.927 3.98-2.782 3.98-3.445-.53-7.155-2.52-11.13-5.97zm52.469 0c-10.335-9.55-15.502-26.265-15.502-50.142 0-7.694 1.722-13.266 5.167-16.715C61.346 1.724 67.176 0 75.126 0c7.95 0 13.25 1.46 15.9 4.378C93.674 7.03 95 11.143 95 16.714c0 7.96-.795 13.266-2.385 15.919-1.325 3.98-5.83 5.969-13.515 5.969-4.77 0-7.154 2.388-7.154 7.163 0 10.878 3.312 20.296 9.937 28.255 0 2.654-.928 3.98-2.783 3.98-3.444-.53-7.154-2.52-11.13-5.97z" fill="#3195F1"/></svg>