<svg width="54" height="54" viewBox="0 0 54 54" fill="none" xmlns="http://www.w3.org/2000/svg">
<circle cx="27" cy="27" r="27" fill="#003458"/>
<path d="M33.2162 29.039L31.4051 29.3696C30.5566 29.3696 29.8061 29.039 29.1535 28.3778C28.4682 27.7533 28.1255 26.8165 28.1255 25.5676C28.1255 24.3553 28.4845 23.3267 29.2024 22.4818C29.9203 21.6369 30.9319 21.2145 32.2372 21.2145C33.5099 21.2145 34.5704 21.7655 35.4189 22.8676C36.2347 23.9696 36.6426 25.3839 36.6426 27.1104C36.6426 28.8737 36.0552 30.6186 34.8804 32.3451C33.673 34.0716 31.9598 35.5043 29.7408 36.6431L29.3982 35.7063C32.4656 33.7961 33.9994 31.8676 33.9994 29.9206C33.9994 29.3329 33.7383 29.039 33.2162 29.039ZM22.4475 29.039L20.6364 29.3696C19.788 29.3696 19.0374 29.039 18.3848 28.3778C17.6995 27.7533 17.3569 26.8165 17.3569 25.5676C17.3569 24.3553 17.7158 23.3267 18.4337 22.4818C19.1516 21.6369 20.1632 21.2145 21.4685 21.2145C22.7412 21.2145 23.8018 21.7655 24.6502 22.8676C25.466 23.9696 25.8739 25.3839 25.8739 27.1104C25.8739 28.8737 25.2865 30.6186 24.1118 32.3451C22.9044 34.0716 21.1912 35.5043 18.9722 36.6431L18.6295 35.7063C21.697 33.7961 23.2307 31.8676 23.2307 29.9206C23.2307 29.3329 22.9696 29.039 22.4475 29.039Z" fill="white"/>
</svg>
