<svg width="86" height="86" viewBox="0 0 86 86" fill="none" xmlns="http://www.w3.org/2000/svg">
<g clip-path="url(#clip0)">
<path d="M74.6714 32.1056H34.6948C33.9991 32.1056 33.4351 32.6696 33.4351 33.3654C33.4351 34.0611 33.9991 34.6251 34.6948 34.6251H74.6714C75.3671 34.6251 75.9311 34.0611 75.9311 33.3654C75.9311 32.6696 75.3671 32.1056 74.6714 32.1056Z" fill="#003458"/>
<path d="M74.6714 41.7358H34.6948C33.9991 41.7358 33.4351 42.2998 33.4351 42.9955C33.4351 43.6913 33.9991 44.2553 34.6948 44.2553H74.6714C75.3671 44.2553 75.9311 43.6913 75.9311 42.9955C75.9311 42.2998 75.3671 41.7358 74.6714 41.7358Z" fill="#003458"/>
<path d="M74.6714 51.3658H34.6948C33.9991 51.3658 33.4351 51.9299 33.4351 52.6256C33.4351 53.3213 33.9991 53.8854 34.6948 53.8854H74.6714C75.3671 53.8854 75.9311 53.3213 75.9311 52.6256C75.9311 51.9299 75.3671 51.3658 74.6714 51.3658Z" fill="#003458"/>
<path d="M78.673 21.0883H30.6933C26.6532 21.0883 23.3662 24.3751 23.3662 28.4154V58.5854C23.3662 62.6256 26.653 65.9126 30.6933 65.9126H64.3225C64.6822 65.9126 65.0163 66.0743 65.2393 66.3567L76.0993 80.1054C76.5273 80.6473 77.1518 80.9426 77.8057 80.9426C78.0488 80.9426 78.296 80.9018 78.5386 80.8174C79.4334 80.5067 80.0115 79.6939 80.0115 78.7467V65.7874C83.4087 65.1528 86.0001 62.1494 86.0001 58.5854V28.4152C86.0001 24.3751 82.7133 21.0883 78.673 21.0883ZM83.4806 58.5854C83.4806 61.2019 81.3519 63.3578 78.7354 63.391C78.0461 63.3999 77.4918 63.9613 77.4918 64.6508V77.8036L67.2165 64.7949C66.5129 63.9038 65.458 63.3929 64.3225 63.3929H30.6933C28.0425 63.3929 25.8857 61.2361 25.8857 58.5853V28.4152C25.8857 25.7643 28.0423 23.6076 30.6933 23.6076H78.673C81.3238 23.6076 83.4806 25.7643 83.4806 28.4152V58.5854Z" fill="#003458"/>
<path d="M18.5595 41.9183C17.6979 42.0406 16.9262 42.4842 16.3867 43.1672L7.73278 54.1231V43.1428C7.73278 42.4533 7.17848 41.892 6.48914 41.8831C4.30034 41.8552 2.51953 40.0517 2.51953 37.8627V11.599C2.51953 9.38129 4.32385 7.57697 6.54154 7.57697H48.3092C50.5268 7.57697 52.3312 9.38129 52.3312 11.599V16.4586C52.3312 17.1544 52.8952 17.7184 53.5909 17.7184C54.2867 17.7184 54.8507 17.1544 54.8507 16.4586V11.599C54.8507 7.99202 51.9161 5.05743 48.3092 5.05743H6.54154C2.93458 5.05743 0 7.99202 0 11.599V37.8627C0 40.9982 2.24591 43.6472 5.21341 44.2664V55.4138C5.21341 56.3087 5.75965 57.0769 6.6052 57.3705C6.83448 57.4501 7.06796 57.4887 7.29774 57.4887C7.91536 57.4887 8.50577 57.2095 8.91007 56.6977L18.364 44.729C18.5004 44.5561 18.6958 44.4439 18.9138 44.4128C19.6026 44.3151 20.0818 43.6773 19.9839 42.9885C19.8862 42.2996 19.2494 41.8201 18.5595 41.9183Z" fill="#003458"/>
</g>
<defs>
<clipPath id="clip0">
<rect width="86" height="86" fill="white"/>
</clipPath>
</defs>
</svg>
