<svg width="72" height="72" viewBox="0 0 72 72" fill="none" xmlns="http://www.w3.org/2000/svg">
<g clip-path="url(#clip0)">
<path d="M70.1107 55.5439L55.5376 45.8254C53.6883 44.602 51.2093 45.0045 49.842 46.7504L45.597 52.2084C45.0515 52.9277 44.0598 53.1363 43.2706 52.6979L42.4631 52.2528C39.7863 50.7937 36.4557 48.9773 29.745 42.2643C23.0344 35.5513 21.2143 32.2181 19.7553 29.5462L19.3125 28.7387C18.8681 27.9496 19.0728 26.9537 19.7924 26.4038L25.2467 22.1601C26.9919 20.7928 27.395 18.3145 26.173 16.4645L16.4544 1.89148C15.2021 0.00767062 12.6895 -0.557839 10.7507 0.607628L4.65676 4.26826C2.74202 5.39393 1.33724 7.21701 0.737002 9.35546C-1.45741 17.351 0.193425 31.1502 20.5209 51.48C36.6909 67.6488 48.7287 71.997 57.0027 71.997C58.9069 72.0051 60.8037 71.7574 62.6419 71.2604C64.7808 70.6608 66.6041 69.2559 67.7291 67.3406L71.3934 61.2503C72.5606 59.3111 71.9953 56.797 70.1107 55.5439ZM69.326 60.0192L65.6701 66.1131C64.8624 67.4956 63.5509 68.512 62.0106 68.9495C54.6293 70.9761 41.7337 69.2975 22.2185 49.7824C2.70335 30.2672 1.02496 17.3727 3.05149 9.99028C3.48961 8.44814 4.5073 7.13504 5.89141 6.326L11.9853 2.67015C12.8266 2.16398 13.9171 2.40933 14.4605 3.2268L19.7398 11.1528L24.1708 17.7986C24.7014 18.601 24.5271 19.6765 23.7701 20.2703L18.3145 24.514C16.6542 25.7835 16.1801 28.0806 17.2023 29.9036L17.6355 30.6907C19.1689 33.5031 21.0754 37.0017 28.0356 43.9608C34.9958 50.9197 38.4933 52.8263 41.3044 54.3596L42.0926 54.7939C43.9156 55.816 46.2127 55.342 47.4823 53.6818L51.726 48.2262C52.3199 47.4696 53.395 47.2954 54.1977 47.8255L68.7695 57.544C69.5875 58.087 69.8328 59.1781 69.326 60.0192Z" fill="#003458"/>
<path d="M40.7979 12.0062C52.0576 12.0188 61.1823 21.1435 61.1949 32.4033C61.1949 33.0659 61.732 33.603 62.3947 33.603C63.0574 33.603 63.5945 33.0659 63.5945 32.4033C63.5806 19.8188 53.3824 9.62047 40.7979 9.60669C40.1353 9.60669 39.5981 10.1438 39.5981 10.8065C39.5981 11.4691 40.1353 12.0062 40.7979 12.0062Z" fill="#003458"/>
<path d="M40.7979 19.2052C48.0835 19.2138 53.9874 25.1178 53.996 32.4033C53.996 33.066 54.5333 33.6031 55.1958 33.6031C55.8585 33.6031 56.3956 33.066 56.3956 32.4033C56.3856 23.793 49.4081 16.8155 40.7979 16.8057C40.1353 16.8057 39.5981 17.3428 39.5981 18.0054C39.5981 18.6681 40.1353 19.2052 40.7979 19.2052Z" fill="#003458"/>
<path d="M40.7979 26.4042C44.1094 26.4081 46.793 29.0917 46.7971 32.4033C46.7971 33.066 47.3343 33.6031 47.9969 33.6031C48.6594 33.6031 49.1966 33.066 49.1966 32.4033C49.1913 27.7671 45.4342 24.0098 40.7979 24.0046C40.1353 24.0046 39.5981 24.5417 39.5981 25.2044C39.5981 25.8671 40.1353 26.4042 40.7979 26.4042Z" fill="#003458"/>
</g>
<defs>
<clipPath id="clip0">
<rect width="72" height="72" fill="white"/>
</clipPath>
</defs>
</svg>
