<svg width="95" height="78" viewBox="0 0 95 78" fill="none" xmlns="http://www.w3.org/2000/svg">
<path opacity="0.2" d="M15.5021 72.0306C5.16736 62.4796 0 45.7653 0 21.8878C0 14.1939 1.72245 8.62246 5.16736 5.17348C8.87727 1.7245 14.7071 0 22.6569 0C30.6067 0 35.9066 1.45918 38.5565 4.37754C41.2064 7.03062 42.5314 11.1429 42.5314 16.7143C42.5314 24.6735 41.7364 29.9796 40.1464 32.6327C38.8215 36.6122 34.3166 38.602 26.6318 38.602C21.8619 38.602 19.477 40.9898 19.477 45.7653C19.477 56.6429 22.7894 66.0612 29.4142 74.0204C29.4142 76.6735 28.4867 78 26.6318 78C23.1869 77.4694 19.477 75.4796 15.5021 72.0306ZM67.9707 72.0306C57.636 62.4796 52.4686 45.7653 52.4686 21.8878C52.4686 14.1939 54.1911 8.62246 57.636 5.17348C61.3459 1.7245 67.1757 0 75.1255 0C83.0753 0 88.3752 1.45918 91.0251 4.37754C93.675 7.03062 95 11.1429 95 16.7143C95 24.6735 94.205 29.9796 92.6151 32.6327C91.2901 36.6122 86.7852 38.602 79.1004 38.602C74.3305 38.602 71.9456 40.9898 71.9456 45.7653C71.9456 56.6429 75.258 66.0612 81.8828 74.0204C81.8828 76.6735 80.9554 78 79.1004 78C75.6555 77.4694 71.9456 75.4796 67.9707 72.0306Z" fill="#3195F1"/>
</svg>
