<svg width="166" height="92" viewBox="0 0 166 92" fill="none" xmlns="http://www.w3.org/2000/svg">
<mask id="mask0" mask-type="alpha" maskUnits="userSpaceOnUse" x="53" y="9" width="60" height="63">
<ellipse rx="29.1881" ry="45.4882" transform="matrix(0.753011 -0.369587 0.417779 0.635592 82.983 40.3898)" fill="#003458" fill-opacity="0.8"/>
<path d="M104.585 29.787C109.799 37.7192 112.065 46.0857 111.533 53.1896C111 60.2982 107.676 66.0894 101.778 68.9839C95.8806 71.8784 88.4219 71.3798 81.0834 68.1344C73.7499 64.8912 66.5944 58.9247 61.3805 50.9925C56.1666 43.0603 53.901 34.6939 54.4333 27.59C54.966 20.4813 58.2904 14.6902 64.1879 11.7956C70.0853 8.90111 77.544 9.39978 84.8825 12.6452C92.2161 15.8884 99.3715 21.8548 104.585 29.787Z" stroke="#003458" stroke-opacity="0.8"/>
</mask>
<g mask="url(#mask0)">
<line y1="-0.5" x2="118.757" y2="-0.5" transform="matrix(0.378925 0.635778 -0.723269 0.38444 40.4644 19.4324)" stroke="#003458" stroke-opacity="0.8"/>
<line y1="-0.5" x2="118.758" y2="-0.5" transform="matrix(0.37892 0.635778 -0.72326 0.384444 37.5 22.2087)" stroke="#003458" stroke-opacity="0.8"/>
<line y1="-0.5" x2="118.758" y2="-0.5" transform="matrix(0.37892 0.635778 -0.723259 0.384445 47.3921 15.5579)" stroke="#003458" stroke-opacity="0.8"/>
<line y1="-0.5" x2="118.758" y2="-0.5" transform="matrix(0.378922 0.635778 -0.723264 0.384442 54.3208 11.6833)" stroke="#003458" stroke-opacity="0.8"/>
<line y1="-0.5" x2="118.758" y2="-0.5" transform="matrix(0.37892 0.635778 -0.723259 0.384445 61.2485 7.80835)" stroke="#003458" stroke-opacity="0.8"/>
<line y1="-0.5" x2="118.757" y2="-0.5" transform="matrix(0.378925 0.635778 -0.723268 0.38444 71.6411 1.99585)" stroke="#003458" stroke-opacity="0.8"/>
<line y1="-0.5" x2="118.758" y2="-0.5" transform="matrix(0.378922 0.635778 -0.723263 0.384443 82.0332 -3.81616)" stroke="#003458" stroke-opacity="0.8"/>
<line y1="-0.5" x2="118.758" y2="-0.5" transform="matrix(0.37892 0.635778 -0.72326 0.384444 43.9282 17.4954)" stroke="#003458" stroke-opacity="0.8"/>
<line y1="-0.5" x2="118.756" y2="-0.5" transform="matrix(0.378927 0.635778 -0.723272 0.384438 50.8564 13.6208)" stroke="#003458" stroke-opacity="0.8"/>
<line y1="-0.5" x2="118.758" y2="-0.5" transform="matrix(0.378922 0.635778 -0.723263 0.384443 57.7847 9.74585)" stroke="#003458" stroke-opacity="0.8"/>
<line y1="-0.5" x2="118.757" y2="-0.5" transform="matrix(0.378925 0.635778 -0.723268 0.38444 68.1768 3.93433)" stroke="#003458" stroke-opacity="0.8"/>
<line y1="-0.5" x2="118.758" y2="-0.5" transform="matrix(0.378922 0.635778 -0.723264 0.384442 78.5693 -1.87866)" stroke="#003458" stroke-opacity="0.8"/>
<line y1="-0.5" x2="118.758" y2="-0.5" transform="matrix(0.378922 0.635778 -0.723264 0.384442 64.7129 5.87134)" stroke="#003458" stroke-opacity="0.8"/>
<line y1="-0.5" x2="118.757" y2="-0.5" transform="matrix(0.378925 0.635778 -0.723268 0.38444 75.105 0.0588379)" stroke="#003458" stroke-opacity="0.8"/>
<line y1="-0.5" x2="118.758" y2="-0.5" transform="matrix(0.378922 0.635778 -0.723264 0.384442 85.4976 -5.75366)" stroke="#003458" stroke-opacity="0.8"/>
<line y1="-0.5" x2="118.76" y2="-0.5" transform="matrix(0.378915 0.635778 -0.72325 0.384449 89.4614 -6.85278)" stroke="#003458" stroke-opacity="0.8"/>
</g>
<path d="M114.128 83.4409C110.992 85.4249 107.376 86.4169 103.28 86.4169C99.184 86.4169 95.536 85.4249 92.336 83.4409C89.136 81.4569 86.64 78.8329 84.848 75.5689C83.12 72.2409 81.808 68.7209 80.912 65.0089C80.016 61.2329 79.568 57.3289 79.568 53.2969C79.568 49.2649 80.016 45.3929 80.912 41.6809C81.808 37.9049 83.12 34.3849 84.848 31.1209C86.64 27.8569 89.104 25.2329 92.24 23.2489C95.44 21.2649 99.12 20.2729 103.28 20.2729C107.376 20.2729 110.992 21.2649 114.128 23.2489C117.264 25.2329 119.728 27.8569 121.52 31.1209C123.312 34.3849 124.656 37.9049 125.552 41.6809C126.448 45.3929 126.896 49.2649 126.896 53.2969C126.896 57.2649 126.448 61.1369 125.552 64.9129C124.656 68.6889 123.312 72.2409 121.52 75.5689C119.728 78.8329 117.264 81.4569 114.128 83.4409ZM103.28 81.4249C106.48 81.4249 109.264 80.5929 111.632 78.9289C114.064 77.2649 115.92 75.0569 117.2 72.3049C118.544 69.4889 119.504 66.5129 120.08 63.3769C120.72 60.1769 121.04 56.8169 121.04 53.2969C121.04 49.7769 120.72 46.4489 120.08 43.3129C119.504 40.1129 118.544 37.1369 117.2 34.3849C115.92 31.5689 114.064 29.3609 111.632 27.7609C109.264 26.0969 106.48 25.2649 103.28 25.2649C100.016 25.2649 97.168 26.0969 94.736 27.7609C92.368 29.3609 90.512 31.5689 89.168 34.3849C87.888 37.1369 86.928 40.1129 86.288 43.3129C85.648 46.4489 85.328 49.7769 85.328 53.2969C85.328 56.8169 85.648 60.1769 86.288 63.3769C86.928 66.5129 87.888 69.4889 89.168 72.3049C90.512 75.0569 92.368 77.2649 94.736 78.9289C97.168 80.5929 100.016 81.4249 103.28 81.4249ZM154.006 85.2649H148.534V28.7209L138.262 39.6649L134.902 36.1129L149.014 21.2329H154.006V85.2649Z" fill="#003458"/>
</svg>
