<svg width="189" height="100" viewBox="0 0 189 100" fill="none" xmlns="http://www.w3.org/2000/svg">
<mask id="mask0" mask-type="alpha" maskUnits="userSpaceOnUse" x="53" y="9" width="60" height="63">
<ellipse rx="29.1881" ry="45.488" transform="matrix(0.753015 -0.36959 0.417779 0.635599 82.9825 40.3901)" fill="#003458" fill-opacity="0.8"/>
<path d="M104.585 29.7873C109.799 37.7195 112.065 46.086 111.532 53.1899C110.999 60.2986 107.675 66.0898 101.778 68.9844C95.8801 71.879 88.4213 71.3803 81.0828 68.1349C73.7493 64.8916 66.5938 58.9252 61.38 50.9929C56.1661 43.0607 53.9005 34.6942 54.4328 27.5903C54.9656 20.4816 58.29 14.6904 64.1874 11.7958C70.0849 8.90125 77.5436 9.39992 84.8821 12.6453C92.2157 15.8886 99.3711 21.855 104.585 29.7873Z" stroke="#003458" stroke-opacity="0.8"/>
</mask>
<g mask="url(#mask0)">
<line y1="-0.5" x2="118.756" y2="-0.5" transform="matrix(0.378926 0.635785 -0.723273 0.384443 40.4639 19.4336)" stroke="#003458" stroke-opacity="0.8"/>
<line y1="-0.5" x2="118.756" y2="-0.5" transform="matrix(0.378929 0.635785 -0.723277 0.384441 37.4995 22.2095)" stroke="#003458" stroke-opacity="0.8"/>
<line y1="-0.5" x2="118.757" y2="-0.5" transform="matrix(0.378924 0.635785 -0.723268 0.384446 47.3921 15.5581)" stroke="#003458" stroke-opacity="0.8"/>
<line y1="-0.5" x2="118.756" y2="-0.5" transform="matrix(0.378926 0.635785 -0.723273 0.384443 54.3203 11.6836)" stroke="#003458" stroke-opacity="0.8"/>
<line y1="-0.5" x2="118.756" y2="-0.5" transform="matrix(0.378929 0.635785 -0.723277 0.384441 61.2485 7.80908)" stroke="#003458" stroke-opacity="0.8"/>
<line y1="-0.5" x2="118.756" y2="-0.5" transform="matrix(0.378927 0.635785 -0.723273 0.384443 71.6411 1.99609)" stroke="#003458" stroke-opacity="0.8"/>
<line y1="-0.5" x2="118.757" y2="-0.5" transform="matrix(0.378923 0.635785 -0.723267 0.384446 82.0327 -3.81592)" stroke="#003458" stroke-opacity="0.8"/>
<line y1="-0.5" x2="118.756" y2="-0.5" transform="matrix(0.378926 0.635785 -0.723273 0.384443 43.9277 17.4961)" stroke="#003458" stroke-opacity="0.8"/>
<line y1="-0.5" x2="118.756" y2="-0.5" transform="matrix(0.378928 0.635785 -0.723276 0.384441 50.8564 13.6211)" stroke="#003458" stroke-opacity="0.8"/>
<line y1="-0.5" x2="118.757" y2="-0.5" transform="matrix(0.378924 0.635785 -0.723268 0.384446 57.7842 9.74609)" stroke="#003458" stroke-opacity="0.8"/>
<line y1="-0.5" x2="118.756" y2="-0.5" transform="matrix(0.378929 0.635785 -0.723277 0.384441 68.1768 3.93457)" stroke="#003458" stroke-opacity="0.8"/>
<line y1="-0.5" x2="118.757" y2="-0.5" transform="matrix(0.378924 0.635785 -0.723268 0.384446 78.5688 -1.87891)" stroke="#003458" stroke-opacity="0.8"/>
<line y1="-0.5" x2="118.756" y2="-0.5" transform="matrix(0.378926 0.635785 -0.723273 0.384443 64.7124 5.87158)" stroke="#003458" stroke-opacity="0.8"/>
<line y1="-0.5" x2="118.756" y2="-0.5" transform="matrix(0.378926 0.635785 -0.723273 0.384443 75.105 0.059082)" stroke="#003458" stroke-opacity="0.8"/>
<line y1="-0.5" x2="118.756" y2="-0.5" transform="matrix(0.378929 0.635785 -0.723277 0.384441 85.4971 -5.75293)" stroke="#003458" stroke-opacity="0.8"/>
<line y1="-0.5" x2="118.757" y2="-0.5" transform="matrix(0.378923 0.635785 -0.723267 0.384446 89.4614 -6.85205)" stroke="#003458" stroke-opacity="0.8"/>
</g>
<path d="M114.128 91.6701C110.992 93.6541 107.376 94.6461 103.28 94.6461C99.1835 94.6461 95.5355 93.6541 92.3355 91.6701C89.1355 89.6861 86.6395 87.0621 84.8475 83.7981C83.1195 80.4701 81.8075 76.9501 80.9115 73.2381C80.0155 69.4621 79.5675 65.5581 79.5675 61.5261C79.5675 57.4941 80.0155 53.6221 80.9115 49.9101C81.8075 46.1341 83.1195 42.6141 84.8475 39.3501C86.6395 36.0861 89.1035 33.4621 92.2395 31.4781C95.4395 29.4941 99.1195 28.5021 103.28 28.5021C107.376 28.5021 110.992 29.4941 114.128 31.4781C117.264 33.4621 119.728 36.0861 121.52 39.3501C123.312 42.6141 124.656 46.1341 125.552 49.9101C126.448 53.6221 126.896 57.4941 126.896 61.5261C126.896 65.4941 126.448 69.3661 125.552 73.1421C124.656 76.9181 123.312 80.4701 121.52 83.7981C119.728 87.0621 117.264 89.6861 114.128 91.6701ZM103.28 89.6541C106.48 89.6541 109.264 88.8221 111.632 87.1581C114.064 85.4941 115.92 83.2861 117.2 80.5341C118.544 77.7181 119.504 74.7421 120.08 71.6061C120.72 68.4061 121.04 65.0461 121.04 61.5261C121.04 58.0061 120.72 54.6781 120.08 51.5421C119.504 48.3421 118.544 45.3661 117.2 42.6141C115.92 39.7981 114.064 37.5901 111.632 35.9901C109.264 34.3261 106.48 33.4941 103.28 33.4941C100.016 33.4941 97.1675 34.3261 94.7355 35.9901C92.3675 37.5901 90.5115 39.7981 89.1675 42.6141C87.8875 45.3661 86.9275 48.3421 86.2875 51.5421C85.6475 54.6781 85.3275 58.0061 85.3275 61.5261C85.3275 65.0461 85.6475 68.4061 86.2875 71.6061C86.9275 74.7421 87.8875 77.7181 89.1675 80.5341C90.5115 83.2861 92.3675 85.4941 94.7355 87.1581C97.1675 88.8221 100.016 89.6541 103.28 89.6541ZM171.574 93.4941H166.102V76.0221H135.766V71.1261L164.182 29.4621H171.574V71.0301H180.982V76.0221H171.574V93.4941ZM166.102 71.0301V34.9341L141.43 71.0301H166.102Z" fill="#003458"/>
</svg>
