<svg width="189" height="100" viewBox="0 0 189 100" fill="none" xmlns="http://www.w3.org/2000/svg">
<mask id="mask0" mask-type="alpha" maskUnits="userSpaceOnUse" x="53" y="9" width="60" height="63">
<ellipse rx="29.188" ry="45.488" transform="matrix(0.753014 -0.36959 0.417779 0.635599 82.9834 40.3901)" fill="#003458" fill-opacity="0.8"/>
<path d="M104.586 29.7873C109.8 37.7195 112.065 46.086 111.533 53.1899C111 60.2986 107.676 66.0898 101.778 68.9844C95.881 71.8789 88.4223 71.3803 81.0838 68.1349C73.7502 64.8916 66.5948 58.9252 61.3809 50.9929C56.1671 43.0607 53.9014 34.6942 54.4338 27.5903C54.9665 20.4816 58.2909 14.6904 64.1884 11.7958C70.0859 8.90125 77.5446 9.39992 84.8831 12.6453C92.2166 15.8886 99.3721 21.855 104.586 29.7873Z" stroke="#003458" stroke-opacity="0.8"/>
</mask>
<g mask="url(#mask0)">
<line y1="-0.5" x2="118.756" y2="-0.5" transform="matrix(0.378927 0.635785 -0.723274 0.384443 40.4644 19.4336)" stroke="#003458" stroke-opacity="0.8"/>
<line y1="-0.5" x2="118.755" y2="-0.5" transform="matrix(0.378929 0.635785 -0.723277 0.384441 37.5005 22.2095)" stroke="#003458" stroke-opacity="0.8"/>
<line y1="-0.5" x2="118.757" y2="-0.5" transform="matrix(0.378923 0.635785 -0.723267 0.384446 47.3926 15.5581)" stroke="#003458" stroke-opacity="0.8"/>
<line y1="-0.5" x2="118.756" y2="-0.5" transform="matrix(0.378926 0.635785 -0.723273 0.384443 54.3208 11.6836)" stroke="#003458" stroke-opacity="0.8"/>
<line y1="-0.5" x2="118.755" y2="-0.5" transform="matrix(0.378929 0.635785 -0.723277 0.384441 61.249 7.80908)" stroke="#003458" stroke-opacity="0.8"/>
<line y1="-0.5" x2="118.757" y2="-0.5" transform="matrix(0.378924 0.635785 -0.723268 0.384446 71.6411 1.99609)" stroke="#003458" stroke-opacity="0.8"/>
<line y1="-0.5" x2="118.757" y2="-0.5" transform="matrix(0.378924 0.635785 -0.723268 0.384446 82.0337 -3.81592)" stroke="#003458" stroke-opacity="0.8"/>
<line y1="-0.5" x2="118.756" y2="-0.5" transform="matrix(0.378926 0.635785 -0.723273 0.384443 43.9282 17.4961)" stroke="#003458" stroke-opacity="0.8"/>
<line y1="-0.5" x2="118.755" y2="-0.5" transform="matrix(0.378929 0.635785 -0.723277 0.384441 50.8564 13.6211)" stroke="#003458" stroke-opacity="0.8"/>
<line y1="-0.5" x2="118.757" y2="-0.5" transform="matrix(0.378924 0.635785 -0.723268 0.384445 57.7847 9.74609)" stroke="#003458" stroke-opacity="0.8"/>
<line y1="-0.5" x2="118.755" y2="-0.5" transform="matrix(0.378929 0.635785 -0.723277 0.384441 68.1772 3.93457)" stroke="#003458" stroke-opacity="0.8"/>
<line y1="-0.5" x2="118.757" y2="-0.5" transform="matrix(0.378924 0.635785 -0.723268 0.384445 78.5693 -1.87891)" stroke="#003458" stroke-opacity="0.8"/>
<line y1="-0.5" x2="118.756" y2="-0.5" transform="matrix(0.378926 0.635785 -0.723273 0.384443 64.7129 5.87158)" stroke="#003458" stroke-opacity="0.8"/>
<line y1="-0.5" x2="118.756" y2="-0.5" transform="matrix(0.378927 0.635785 -0.723274 0.384443 75.1055 0.059082)" stroke="#003458" stroke-opacity="0.8"/>
<line y1="-0.5" x2="118.755" y2="-0.5" transform="matrix(0.378929 0.635785 -0.723277 0.384441 85.4976 -5.75293)" stroke="#003458" stroke-opacity="0.8"/>
<line y1="-0.5" x2="118.757" y2="-0.5" transform="matrix(0.378924 0.635785 -0.723268 0.384446 89.4614 -6.85205)" stroke="#003458" stroke-opacity="0.8"/>
</g>
<path d="M114.128 91.6699C110.992 93.6539 107.376 94.6459 103.28 94.6459C99.184 94.6459 95.536 93.6539 92.336 91.6699C89.136 89.6859 86.64 87.0619 84.848 83.7979C83.12 80.4699 81.808 76.9499 80.912 73.2379C80.016 69.4619 79.568 65.5579 79.568 61.5259C79.568 57.4939 80.016 53.6219 80.912 49.9099C81.808 46.1339 83.12 42.6139 84.848 39.3499C86.64 36.0859 89.104 33.4619 92.24 31.4779C95.44 29.4939 99.12 28.5019 103.28 28.5019C107.376 28.5019 110.992 29.4939 114.128 31.4779C117.264 33.4619 119.728 36.0859 121.52 39.3499C123.312 42.6139 124.656 46.1339 125.552 49.9099C126.448 53.6219 126.896 57.4939 126.896 61.5259C126.896 65.4939 126.448 69.3659 125.552 73.1419C124.656 76.9179 123.312 80.4699 121.52 83.7979C119.728 87.0619 117.264 89.6859 114.128 91.6699ZM103.28 89.6539C106.48 89.6539 109.264 88.8219 111.632 87.1579C114.064 85.4939 115.92 83.2859 117.2 80.5339C118.544 77.7179 119.504 74.7419 120.08 71.6059C120.72 68.4059 121.04 65.0459 121.04 61.5259C121.04 58.0059 120.72 54.6779 120.08 51.5419C119.504 48.3419 118.544 45.3659 117.2 42.6139C115.92 39.7979 114.064 37.5899 111.632 35.9899C109.264 34.3259 106.48 33.4939 103.28 33.4939C100.016 33.4939 97.168 34.3259 94.736 35.9899C92.368 37.5899 90.512 39.7979 89.168 42.6139C87.888 45.3659 86.928 48.3419 86.288 51.5419C85.648 54.6779 85.328 58.0059 85.328 61.5259C85.328 65.0459 85.648 68.4059 86.288 71.6059C86.928 74.7419 87.888 77.7179 89.168 80.5339C90.512 83.2859 92.368 85.4939 94.736 87.1579C97.168 88.8219 100.016 89.6539 103.28 89.6539ZM161.11 94.6459C151.574 94.6459 144.374 91.1579 139.51 84.1819L143.158 80.5339C147.446 86.6139 153.43 89.6539 161.11 89.6539C165.718 89.6539 169.526 88.1819 172.534 85.2379C175.606 82.2939 177.142 78.6139 177.142 74.1979C177.142 69.3979 175.638 65.5899 172.63 62.7739C169.686 59.9579 165.878 58.5499 161.206 58.5499C155.382 58.5499 150.198 60.6299 145.654 64.7899L141.526 63.0619V29.4619H178.486V34.4539H146.998V59.5099C151.094 55.5419 156.182 53.5579 162.262 53.5579C167.958 53.5579 172.79 55.3819 176.758 59.0299C180.726 62.6139 182.71 67.6059 182.71 74.0059C182.71 80.2139 180.63 85.2059 176.47 88.9819C172.31 92.7579 167.19 94.6459 161.11 94.6459Z" fill="#003458"/>
</svg>
