<svg width="170" height="73" viewBox="0 0 170 73" fill="none" xmlns="http://www.w3.org/2000/svg">
<g clip-path="url(#clip0)">
<path d="M20.4404 72.9959C16.557 73.1082 7.25685 71.6066 1.75715 57.1397C0.186398 53.0052 -3.3737 38.975 8.35099 27.6527C8.66183 27.3574 9.0224 27.5737 9.37053 27.3033C9.61929 27.1811 9.88699 27.1023 10.1621 27.0704C11.2065 26.7959 12.682 26.7709 13.6891 27.8191C13.6891 27.8191 15.6204 29.3249 13.8093 31.0386C13.8093 31.0386 7.30244 34.2789 8.77373 36.0301C12.2261 40.1896 10.8915 39.4201 22.1769 47.8473C25.9069 50.6259 31.4108 57.277 31.1787 64.2401C31.0875 66.8814 29.7406 71.2656 22.409 72.8046C21.758 72.9139 21.1002 72.9779 20.4404 72.9959Z" fill="url(#paint0_linear)"/>
<path d="M9.05975 36.4462C9.05975 36.4462 3.45229 29.2377 10.5932 26.3093C12.1059 25.6896 15.3676 27.4823 14.4931 30.3857C13.9875 32.0703 9.69385 32.4696 9.05975 36.4462Z" fill="url(#paint1_linear)"/>
<path d="M37.3872 52.772C37.9902 54.1544 38.159 55.6885 37.8709 57.1696C37.5829 58.6508 36.8517 60.0086 35.775 61.0619C35.058 61.7815 34.1628 62.4221 33.3712 63.2457C30.8596 65.8621 33.7069 70.97 38.759 68.3495C42.518 66.3945 46.3806 57.2102 38.1166 53.0548L37.3872 52.772Z" fill="url(#paint2_linear)"/>
<path d="M5.6695 31.3173C5.91402 30.4854 4.14848 37.5858 4.64996 43.38C5.62805 54.6607 11.5132 67.888 21.2278 69.8971C25.9608 70.8746 31.4646 66.4072 29.9851 61.7194C27.3326 53.3088 7.19051 41.4375 5.83527 32.3822C5.82284 32.299 5.6695 31.3173 5.6695 31.3173Z" fill="#48C4EB"/>
<path d="M5.69032 31.1424C5.7442 30.8845 5.30903 34.4701 11.4926 40.6595C13.7306 42.9015 17.5642 45.3265 21.5968 48.4461C25.9816 51.8362 33.7028 62.6759 28.6134 67.0975C28.6134 67.0975 25.389 69.951 23.2256 64.3647C23.2256 64.3647 20.6933 56.628 10.2244 45.106C8.08997 42.7559 5.06036 36.7869 5.4458 33.1307C5.49553 32.6274 5.69032 31.1424 5.69032 31.1424Z" fill="#85D0F0"/>
<path d="M23.4245 0C23.4245 0 17.5808 4.34256 23.7353 16.2222C25.0822 18.8219 21.7004 22.4615 19.0728 19.2379C18.3143 18.3103 18.1403 12.9986 18.1403 12.9986C18.1403 12.9986 4.46354 32.486 38.4481 55.3469C40.4623 56.7029 42.5512 58.6745 42.4641 61.5155C42.4227 63.0337 41.9419 64.161 39.6459 67.7299C39.6459 67.7299 62.8798 51.3828 36.1853 23.8134C35.3564 22.9815 33.2841 21.6296 33.8022 15.4943C33.8022 15.4943 29.5293 17.6281 32.5589 28.3889C32.7205 28.9754 32.9733 34.2954 27.9585 33.867C26.0396 33.7006 22.5997 32.1366 24.788 26.4131C25.4884 24.5413 26.6364 22.7735 29.0112 19.5499C29.0112 19.5499 30.669 16.9501 29.4256 14.4544C27.7679 11.1268 23.8638 10.245 23.209 0.935897C23.2439 0.616523 23.3163 0.302395 23.4245 0V0Z" fill="url(#paint3_linear)"/>
</g>
<path d="M77.735 33.583V29.971C78.393 29.957 78.918 29.81 79.31 29.53C79.716 29.25 80.087 28.662 80.423 27.766C80.759 26.87 81.039 25.582 81.263 23.902L82.166 16.993H90.041V29.908H91.28V33.583H90.083V31H78.953V33.583H77.735ZM82.481 24.007C82.075 27.157 81.277 29.124 80.087 29.908H88.823V18.085H83.237L82.481 24.007ZM93.7957 16.993H102.532V18.085H94.9927V22.81H99.0457C100.334 22.81 101.356 23.209 102.112 24.007C102.882 24.791 103.267 25.757 103.267 26.905C103.267 28.053 102.889 29.026 102.133 29.824C101.377 30.608 100.348 31 99.0457 31H93.7957V16.993ZM98.9197 23.902H94.9927V29.908H98.9197C99.8437 29.908 100.586 29.628 101.146 29.068C101.72 28.508 102.007 27.787 102.007 26.905C102.007 26.023 101.72 25.302 101.146 24.742C100.586 24.182 99.8437 23.902 98.9197 23.902ZM107.011 31.252C105.849 31.252 104.967 30.839 104.365 30.013L105.016 29.11C105.576 29.81 106.227 30.16 106.969 30.16C107.487 30.16 107.907 30.013 108.229 29.719C108.551 29.425 108.929 28.872 109.363 28.06L109.846 27.157L104.365 16.993H105.751L110.539 26.044L115.327 16.993H116.713L110.413 28.627C109.923 29.537 109.433 30.202 108.943 30.622C108.453 31.042 107.809 31.252 107.011 31.252ZM86.639 57H85.547V47.823H79.793V57H78.701V46.857H86.639V57ZM94.6618 57.252C93.2058 57.252 92.0298 56.622 91.1338 55.362V60.864H90.0418V46.857H91.1338V48.453C91.5118 47.907 92.0088 47.466 92.6248 47.13C93.2548 46.78 93.9338 46.605 94.6618 46.605C96.0198 46.605 97.1118 47.088 97.9378 48.054C98.7778 49.006 99.1978 50.294 99.1978 51.918C99.1978 53.528 98.7778 54.823 97.9378 55.803C97.1118 56.769 96.0198 57.252 94.6618 57.252ZM94.4728 56.265C95.5788 56.265 96.4468 55.859 97.0768 55.047C97.7068 54.235 98.0218 53.192 98.0218 51.918C98.0218 50.658 97.7068 49.622 97.0768 48.81C96.4468 47.998 95.5788 47.592 94.4728 47.592C93.7868 47.592 93.1358 47.767 92.5198 48.117C91.9038 48.467 91.4418 48.894 91.1338 49.398V54.417C91.4418 54.921 91.9038 55.355 92.5198 55.719C93.1498 56.083 93.8008 56.265 94.4728 56.265ZM106.241 57.252C104.785 57.252 103.609 56.741 102.713 55.719C101.817 54.697 101.369 53.43 101.369 51.918C101.369 50.406 101.817 49.146 102.713 48.138C103.609 47.116 104.785 46.605 106.241 46.605C107.711 46.605 108.894 47.116 109.79 48.138C110.686 49.146 111.134 50.406 111.134 51.918C111.134 53.43 110.686 54.697 109.79 55.719C108.894 56.741 107.711 57.252 106.241 57.252ZM106.241 56.265C107.389 56.265 108.292 55.845 108.95 55.005C109.622 54.151 109.958 53.122 109.958 51.918C109.958 50.728 109.622 49.713 108.95 48.873C108.292 48.019 107.389 47.592 106.241 47.592C105.107 47.592 104.204 48.019 103.532 48.873C102.874 49.713 102.545 50.728 102.545 51.918C102.545 53.108 102.874 54.13 103.532 54.984C104.204 55.838 105.107 56.265 106.241 56.265ZM119.246 57H113.954V46.857H119.162C120.002 46.857 120.667 47.095 121.157 47.571C121.661 48.033 121.913 48.663 121.913 49.461C121.913 50.035 121.752 50.532 121.43 50.952C121.122 51.358 120.744 51.631 120.296 51.771C120.8 51.911 121.227 52.219 121.577 52.695C121.927 53.171 122.102 53.689 122.102 54.249C122.102 55.103 121.843 55.775 121.325 56.265C120.821 56.755 120.128 57 119.246 57ZM119.015 56.013C119.617 56.013 120.086 55.852 120.422 55.53C120.772 55.194 120.947 54.739 120.947 54.165C120.947 53.647 120.772 53.199 120.422 52.821C120.086 52.443 119.617 52.254 119.015 52.254H115.046V56.013H119.015ZM118.973 51.288C119.547 51.288 119.988 51.127 120.296 50.805C120.618 50.483 120.779 50.07 120.779 49.566C120.779 49.034 120.618 48.614 120.296 48.306C119.988 47.984 119.547 47.823 118.973 47.823H115.046V51.288H118.973ZM129.809 57.252C128.325 57.252 127.107 56.755 126.155 55.761C125.203 54.767 124.727 53.486 124.727 51.918C124.727 50.434 125.189 49.181 126.113 48.159C127.051 47.123 128.22 46.605 129.62 46.605C131.104 46.605 132.273 47.123 133.127 48.159C133.981 49.181 134.408 50.455 134.408 51.981V52.275H125.924C125.98 53.423 126.365 54.382 127.079 55.152C127.793 55.922 128.731 56.307 129.893 56.307C131.237 56.307 132.343 55.838 133.211 54.9L133.778 55.614C132.728 56.706 131.405 57.252 129.809 57.252ZM133.295 51.414C133.281 50.434 132.952 49.545 132.308 48.747C131.678 47.949 130.775 47.55 129.599 47.55C128.493 47.55 127.611 47.949 126.953 48.747C126.309 49.531 125.966 50.42 125.924 51.414H133.295ZM141.85 57.252C140.394 57.252 139.218 56.622 138.322 55.362V60.864H137.23V46.857H138.322V48.453C138.7 47.907 139.197 47.466 139.813 47.13C140.443 46.78 141.122 46.605 141.85 46.605C143.208 46.605 144.3 47.088 145.126 48.054C145.966 49.006 146.386 50.294 146.386 51.918C146.386 53.528 145.966 54.823 145.126 55.803C144.3 56.769 143.208 57.252 141.85 57.252ZM141.661 56.265C142.767 56.265 143.635 55.859 144.265 55.047C144.895 54.235 145.21 53.192 145.21 51.918C145.21 50.658 144.895 49.622 144.265 48.81C143.635 47.998 142.767 47.592 141.661 47.592C140.975 47.592 140.324 47.767 139.708 48.117C139.092 48.467 138.63 48.894 138.322 49.398V54.417C138.63 54.921 139.092 55.355 139.708 55.719C140.338 56.083 140.989 56.265 141.661 56.265ZM157.65 57H156.18L152.127 52.17L150.237 53.955V57H149.145V46.857H150.237V52.653L156.222 46.857H157.671L152.946 51.435L157.65 57ZM167.287 57H166.195V55.803C165.313 56.769 164.165 57.252 162.751 57.252C161.813 57.252 160.987 56.951 160.273 56.349C159.559 55.733 159.202 54.907 159.202 53.871C159.202 52.821 159.552 52.002 160.252 51.414C160.966 50.812 161.799 50.511 162.751 50.511C164.179 50.511 165.327 50.994 166.195 51.96V49.902C166.195 49.174 165.936 48.607 165.418 48.201C164.9 47.781 164.249 47.571 163.465 47.571C162.219 47.571 161.162 48.068 160.294 49.062L159.685 48.306C160.735 47.172 162.037 46.605 163.591 46.605C164.683 46.605 165.572 46.878 166.258 47.424C166.944 47.97 167.287 48.782 167.287 49.86V57ZM163.129 56.391C164.459 56.391 165.481 55.929 166.195 55.005V52.779C165.467 51.841 164.445 51.372 163.129 51.372C162.303 51.372 161.631 51.61 161.113 52.086C160.609 52.562 160.357 53.164 160.357 53.892C160.357 54.62 160.609 55.222 161.113 55.698C161.631 56.16 162.303 56.391 163.129 56.391Z" fill="black"/>
<path d="M64 0L64 73" stroke="#D8D8D8"/>
<defs>
<linearGradient id="paint0_linear" x1="-0.000103097" y1="49.9562" x2="31.1828" y2="49.9562" gradientUnits="userSpaceOnUse">
<stop stop-color="#72CEFB"/>
<stop offset="0.7" stop-color="#0067BA"/>
</linearGradient>
<linearGradient id="paint1_linear" x1="6.9668" y1="31.3174" x2="14.6382" y2="31.3174" gradientUnits="userSpaceOnUse">
<stop stop-color="#0079A4"/>
<stop offset="1" stop-color="#72CEFB"/>
</linearGradient>
<linearGradient id="paint2_linear" x1="32.4428" y1="60.9247" x2="43.0195" y2="60.9247" gradientUnits="userSpaceOnUse">
<stop stop-color="#FF8600"/>
<stop offset="1" stop-color="#982A05"/>
</linearGradient>
<linearGradient id="paint3_linear" x1="15.4215" y1="33.867" x2="48.9999" y2="33.867" gradientUnits="userSpaceOnUse">
<stop stop-color="#FF8600"/>
<stop offset="1" stop-color="#DA2A00"/>
</linearGradient>
<clipPath id="clip0">
<rect width="49" height="73" fill="white"/>
</clipPath>
</defs>
</svg>
