<svg width="21" height="21" viewBox="0 0 21 21" fill="none" xmlns="http://www.w3.org/2000/svg">
<path d="M15.4849 0H6.14071C3.09957 0 0.625488 2.47408 0.625488 5.51522V14.8595C0.625488 17.9005 3.09957 20.3746 6.14071 20.3746H15.485C18.526 20.3746 21.0001 17.9005 21.0001 14.8595V5.51522C21.0001 2.47408 18.526 0 15.4849 0V0ZM10.8128 15.7583C7.74087 15.7583 5.24177 13.2592 5.24177 10.1873C5.24177 7.11538 7.74087 4.61628 10.8128 4.61628C13.8847 4.61628 16.3838 7.11538 16.3838 10.1873C16.3838 13.2592 13.8847 15.7583 10.8128 15.7583ZM16.517 5.93011C15.6092 5.93011 14.8709 5.19174 14.8709 4.28393C14.8709 3.37613 15.6092 2.63761 16.517 2.63761C17.4248 2.63761 18.1634 3.37613 18.1634 4.28393C18.1634 5.19174 17.4248 5.93011 16.517 5.93011Z" fill="#003458"/>
<path d="M10.8131 5.81104C8.39996 5.81104 6.43652 7.77432 6.43652 10.1876C6.43652 12.6008 8.39996 14.5642 10.8131 14.5642C13.2264 14.5642 15.1897 12.6008 15.1897 10.1876C15.1897 7.77432 13.2264 5.81104 10.8131 5.81104Z" fill="#003458"/>
<path d="M16.5167 3.83203C16.2676 3.83203 16.0649 4.03473 16.0649 4.28376C16.0649 4.53278 16.2676 4.73548 16.5167 4.73548C16.7658 4.73548 16.9685 4.53294 16.9685 4.28376C16.9685 4.03458 16.7658 3.83203 16.5167 3.83203Z" fill="#003458"/>
</svg>
