<svg width="16" height="22" viewBox="0 0 16 22" fill="none" xmlns="http://www.w3.org/2000/svg">
<path d="M7.73438 0C3.46964 0 0 3.46964 0 7.73438C0 9.17529 0.399137 10.5815 1.15453 11.8015L7.29412 21.6953C7.41172 21.8848 7.61892 22 7.84175 22C7.84347 22 7.84515 22 7.84687 22C8.07164 21.9982 8.27926 21.8795 8.39472 21.6867L14.3778 11.697C15.0915 10.5028 15.4688 9.13253 15.4688 7.73438C15.4688 3.46964 11.9991 0 7.73438 0ZM13.2716 11.0351L7.832 20.1174L2.25014 11.1223C1.62138 10.1069 1.28047 8.93535 1.28047 7.73438C1.28047 4.18043 4.18043 1.28047 7.73438 1.28047C11.2883 1.28047 14.184 4.18043 14.184 7.73438C14.184 8.89973 13.8655 10.0413 13.2716 11.0351Z" fill="#053365"/>
<path d="M7.73438 3.86719C5.60201 3.86719 3.86719 5.60201 3.86719 7.73438C3.86719 9.85312 5.57378 11.6016 7.73438 11.6016C9.92161 11.6016 11.6016 9.82983 11.6016 7.73438C11.6016 5.60201 9.86674 3.86719 7.73438 3.86719ZM7.73438 10.3211C6.30536 10.3211 5.14766 9.15952 5.14766 7.73438C5.14766 6.3128 6.3128 5.14766 7.73438 5.14766C9.15595 5.14766 10.3168 6.3128 10.3168 7.73438C10.3168 9.13872 9.18603 10.3211 7.73438 10.3211Z" fill="#053365"/>
</svg>
