<svg width="19" height="19" viewBox="0 0 19 19" fill="none" xmlns="http://www.w3.org/2000/svg">
<g clip-path="url(#clip0)">
<path d="M16.6805 2.27051H2.3234C1.0418 2.27051 0 3.3123 0 4.59391V14.4064C0 15.6881 1.0418 16.7299 2.3234 16.7299H16.6766C17.9582 16.7299 19 15.6881 19 14.4064V4.59784C19.0039 3.31624 17.9621 2.27051 16.6805 2.27051ZM17.9425 14.4064C17.9425 15.1023 17.3764 15.6684 16.6805 15.6684H2.3234C1.62756 15.6684 1.06145 15.1023 1.06145 14.4064V4.59784C1.06145 3.902 1.62756 3.33589 2.3234 3.33589H16.6766C17.3724 3.33589 17.9385 3.902 17.9385 4.59784V14.4064H17.9425Z" fill="#053365"/>
<path d="M11.9825 9.3781L16.6293 5.21091C16.8455 5.01435 16.8652 4.68018 16.6686 4.46003C16.472 4.24381 16.1379 4.22415 15.9177 4.42072L9.50968 10.1722L8.25953 9.05573C8.2556 9.0518 8.25166 9.04787 8.25166 9.04393C8.22414 9.01641 8.19663 8.99283 8.16518 8.96924L3.07807 4.41679C2.85791 4.22022 2.52375 4.23988 2.32719 4.46003C2.13062 4.68018 2.15028 5.01435 2.37043 5.21091L7.07227 9.41348L2.39009 13.7969C2.1778 13.9974 2.166 14.3315 2.3665 14.5478C2.47265 14.6578 2.61417 14.7168 2.7557 14.7168C2.88543 14.7168 3.01517 14.6696 3.11738 14.5753L7.87033 10.129L9.1598 11.2808C9.26201 11.3713 9.38781 11.4145 9.51361 11.4145C9.63942 11.4145 9.76915 11.3673 9.86743 11.2769L11.1923 10.0897L15.9177 14.5792C16.0199 14.6775 16.1536 14.7247 16.2833 14.7247C16.4248 14.7247 16.5624 14.6696 16.6686 14.5596C16.8691 14.3473 16.8612 14.0092 16.6489 13.8087L11.9825 9.3781Z" fill="#053365"/>
</g>
<defs>
<clipPath id="clip0">
<rect width="19" height="19" fill="white"/>
</clipPath>
</defs>
</svg>
