<svg width="12" height="22" viewBox="0 0 12 22" fill="none" xmlns="http://www.w3.org/2000/svg">
<path d="M6.08678 0.799805C3.13878 0.799805 0.749023 3.18964 0.749023 6.13756C0.749023 9.08556 3.13878 11.4755 6.08678 11.4755C9.03477 11.4755 11.4245 9.08556 11.4245 6.13756C11.4245 3.18964 9.03477 0.799805 6.08678 0.799805ZM6.08678 8.34422C4.86818 8.34422 3.88027 7.35624 3.88027 6.13764C3.88027 4.91904 4.86818 3.93113 6.08678 3.93113C7.30538 3.93113 8.29329 4.91904 8.29329 6.13764C8.29329 7.35624 7.30538 8.34422 6.08678 8.34422Z" fill="#003458"/>
<path d="M7.97135 15.7225C10.1083 15.2872 11.3888 14.2752 11.4566 14.2209C12.0819 13.7195 12.1823 12.806 11.6808 12.1806C11.1794 11.5553 10.2661 11.4549 9.64063 11.9563C9.62742 11.967 8.26162 13.0147 6.0144 13.0162C3.76725 13.0147 2.37258 11.967 2.35937 11.9563C1.73391 11.4549 0.820554 11.5553 0.319152 12.1806C-0.182328 12.806 -0.0818787 13.7195 0.543424 14.2209C0.612095 14.276 1.9455 15.3143 4.14231 15.7394L1.08065 18.9391C0.524251 19.5161 0.540979 20.4349 1.11801 20.9913C1.39964 21.2629 1.76263 21.3979 2.12532 21.3979C2.50557 21.3979 2.88544 21.2493 3.17021 20.9539L6.01448 17.924L9.14603 20.9735C9.71343 21.54 10.6322 21.5391 11.1985 20.9719C11.7649 20.4047 11.7642 19.4857 11.1969 18.9194L7.97135 15.7225Z" fill="#003458"/>
</svg>
