<svg width="20" height="21" viewBox="0 0 20 21" fill="none" xmlns="http://www.w3.org/2000/svg">
<path d="M15.8157 12.5267C15.4056 12.0957 14.911 11.8652 14.3868 11.8652C13.8668 11.8652 13.368 12.0914 12.941 12.5225L11.6051 13.8669C11.4952 13.8072 11.3852 13.7517 11.2796 13.6962C11.1274 13.6194 10.9836 13.5468 10.861 13.47C9.60967 12.6676 8.47247 11.6219 7.38176 10.2689C6.85332 9.59458 6.49821 9.02693 6.24033 8.45074C6.58699 8.13064 6.90828 7.79773 7.22112 7.47762C7.33949 7.35812 7.45786 7.23434 7.57623 7.11484C8.46401 6.21855 8.46401 5.05763 7.57623 4.16134L6.42211 2.99616C6.29106 2.86385 6.15578 2.72727 6.02895 2.5907C5.7753 2.32608 5.50896 2.05292 5.23417 1.79684C4.8241 1.3871 4.33371 1.16943 3.81795 1.16943C3.30219 1.16943 2.80334 1.3871 2.38059 1.79684C2.37636 1.80111 2.37636 1.80111 2.37213 1.80537L0.934771 3.26932C0.393646 3.81563 0.0850362 4.48145 0.0173957 5.25396C-0.0840652 6.50024 0.279503 7.66115 0.55852 8.42086C1.24338 10.286 2.26644 12.0146 3.79258 13.8669C5.64425 16.0991 7.87216 17.8618 10.4171 19.1038C11.3895 19.569 12.6873 20.1196 14.1374 20.2135C14.2261 20.2178 14.3191 20.222 14.4037 20.222C15.3803 20.222 16.2004 19.8678 16.843 19.1636C16.8472 19.155 16.8557 19.1508 16.8599 19.1422C17.0797 18.8733 17.3334 18.6301 17.5997 18.3697C17.7815 18.1947 17.9675 18.0112 18.1493 17.8191C18.5678 17.3795 18.7877 16.8673 18.7877 16.3424C18.7877 15.8131 18.5636 15.3052 18.1366 14.8784L15.8157 12.5267ZM17.3292 17.021C17.3249 17.021 17.3249 17.0253 17.3292 17.021C17.1643 17.2003 16.9952 17.3624 16.8134 17.5417C16.5386 17.8063 16.2596 18.0837 15.9975 18.3953C15.5705 18.8563 15.0674 19.0739 14.4079 19.0739C14.3445 19.0739 14.2769 19.0739 14.2135 19.0697C12.9579 18.9886 11.7911 18.4935 10.916 18.0709C8.5232 16.9015 6.42211 15.2412 4.67614 13.1371C3.23455 11.3829 2.27067 9.76103 1.63231 8.01967C1.23915 6.95692 1.09542 6.12892 1.15883 5.34786C1.20111 4.8485 1.39134 4.4345 1.74223 4.08025L3.18382 2.62484C3.39097 2.42851 3.6108 2.32181 3.82641 2.32181C4.09274 2.32181 4.30834 2.484 4.44363 2.62057C4.44785 2.62484 4.45208 2.62911 4.45631 2.63338C4.71419 2.87666 4.95938 3.12847 5.21726 3.39736C5.34832 3.53394 5.4836 3.67052 5.61888 3.81136L6.773 4.97654C7.22112 5.42896 7.22112 5.84723 6.773 6.29964C6.6504 6.42341 6.53203 6.54719 6.40943 6.66669C6.05432 7.03374 5.71611 7.37519 5.34832 7.7081C5.33986 7.71663 5.33141 7.7209 5.32718 7.72944C4.96361 8.09649 5.03125 8.45501 5.10735 8.69829C5.11158 8.71109 5.1158 8.7239 5.12003 8.7367C5.42019 9.47081 5.84294 10.1622 6.48552 10.986L6.48975 10.9902C7.65655 12.4414 8.88677 13.5724 10.2438 14.4388C10.4171 14.5498 10.5947 14.6394 10.7638 14.7248C10.916 14.8016 11.0597 14.8742 11.1823 14.951C11.1992 14.9595 11.2161 14.9723 11.233 14.9809C11.3768 15.0534 11.5121 15.0876 11.6516 15.0876C12.0025 15.0876 12.2223 14.8656 12.2942 14.7931L13.74 13.3334C13.8837 13.1883 14.112 13.0133 14.3783 13.0133C14.6404 13.0133 14.856 13.1797 14.9871 13.3249C14.9913 13.3291 14.9913 13.3291 14.9956 13.3334L17.3249 15.6851C17.7604 16.1204 17.7604 16.5686 17.3292 17.021Z" fill="#053365"/>
<path d="M10.8116 4.81001C11.9192 4.9978 12.9253 5.52704 13.7286 6.33797C14.5318 7.14891 15.0518 8.1647 15.242 9.28294C15.2885 9.56463 15.5295 9.76096 15.8043 9.76096C15.8381 9.76096 15.8677 9.75669 15.9015 9.75242C16.2144 9.7012 16.4215 9.40244 16.3708 9.08661C16.1425 7.73363 15.5084 6.50016 14.5403 5.52278C13.5722 4.54539 12.3504 3.90518 11.0103 3.67471C10.6974 3.62349 10.4057 3.83262 10.3508 4.14419C10.2958 4.45576 10.4987 4.75879 10.8116 4.81001Z" fill="#053365"/>
<path d="M19.992 8.92054C19.6157 6.6926 18.5757 4.66526 16.9777 3.05193C15.3797 1.43859 13.3716 0.388643 11.1649 0.00878434C10.8562 -0.0467007 10.5645 0.166703 10.5096 0.478273C10.4589 0.794111 10.666 1.08861 10.9788 1.14409C12.9489 1.48127 14.7456 2.42452 16.1745 3.86286C17.6034 5.30547 18.5335 7.11941 18.8674 9.10833C18.9139 9.39003 19.1549 9.58636 19.4297 9.58636C19.4635 9.58636 19.4931 9.58209 19.5269 9.57782C19.8355 9.53087 20.0469 9.23211 19.992 8.92054Z" fill="#053365"/>
</svg>
