<svg width="18" height="18" viewBox="0 0 18 18" fill="none" xmlns="http://www.w3.org/2000/svg">
<path d="M12.0658 8.99991H9.21913V5.0583C9.21913 4.69545 8.92505 4.40137 8.5622 4.40137C8.19936 4.40137 7.90527 4.69545 7.90527 5.0583V9.65684C7.90527 10.0197 8.19936 10.3138 8.5622 10.3138H12.0658C12.4287 10.3138 12.7228 10.0197 12.7228 9.65684C12.7228 9.29399 12.4287 8.99991 12.0658 8.99991Z" fill="#053365"/>
<path d="M9 0C4.03752 0 0 4.03731 0 9C0 13.9627 4.03752 18 9 18C13.9627 18 18 13.9627 18 9C18 4.03731 13.9625 0 9 0ZM9 16.6861C4.76191 16.6861 1.31386 13.2381 1.31386 9C1.31386 4.76191 4.76191 1.31386 9 1.31386C13.2381 1.31386 16.6861 4.76188 16.6861 8.99979C16.6861 13.2381 13.2381 16.6861 9 16.6861Z" fill="#053365"/>
</svg>
