<svg width="46" height="46" viewBox="0 0 46 46" fill="none" xmlns="http://www.w3.org/2000/svg">
<path d="M34.4635 0H11.5C5.18413 0 0 5.18413 0 11.5365V34.5C0 40.8159 5.18413 46 11.5 46H34.4635C40.8159 46 46 40.8159 46 34.4635V11.5365C46 5.18413 40.8159 0 34.4635 0ZM21.7587 9.45556C21.8317 8.32381 22.8905 8.7254 23.4381 8.65238C30.3016 8.87143 36.2159 15.0413 36.1429 21.6857C36.1429 22.3429 36.3619 23.2921 35.3762 23.2921C34.427 23.2921 34.6825 22.3063 34.573 21.6492C33.6603 14.6032 30.3746 11.281 23.219 10.1857C22.6349 10.1127 21.7222 10.2222 21.7587 9.45556ZM32.0175 21.9778C30.9222 22.1238 31.1413 21.1746 31.0317 20.554C30.3016 16.246 28.7683 14.6762 24.3508 13.727C23.6936 13.581 22.6714 13.6905 22.854 12.7048C23 11.7556 23.9127 12.0841 24.6063 12.1571C29.0238 12.6683 32.6381 16.4286 32.6016 20.554C32.5286 20.9921 32.8206 21.8317 32.0175 21.9778ZM29.2794 19.7143C29.2794 20.2984 29.2063 20.846 28.5492 20.919C28.0746 20.9921 27.7825 20.5905 27.7095 20.1159C27.527 18.3635 26.5778 17.3048 24.7524 17.0127C24.2048 16.9397 23.6937 16.7571 23.9492 16.027C24.1317 15.5524 24.5698 15.4794 25.0444 15.4794C27.0159 15.4429 29.2794 17.7429 29.2794 19.7143ZM36.2159 33.1857C35.4492 35.2667 32.8571 37.3841 30.6302 37.3476C30.3016 37.2746 29.681 37.1651 29.1333 36.946C19.3492 32.8206 12.2302 26.0302 8.21429 16.319C6.86349 13.0698 8.2873 10.2952 11.6825 9.2C12.3032 8.98095 12.8873 8.98095 13.5079 9.2C14.9683 9.71111 18.6556 14.7127 18.7286 16.173C18.8016 17.3048 17.9984 17.9254 17.2317 18.4365C15.7349 19.4222 15.7349 20.6635 16.3921 22.0873C17.8159 25.227 20.2619 27.4175 23.4381 28.8048C24.5698 29.3159 25.7016 29.2794 26.4683 28.1111C27.8556 26.0302 29.5714 26.1397 31.4333 27.4175C32.3825 28.0746 33.3317 28.6952 34.2079 29.3889C35.4127 30.3746 36.946 31.1778 36.2159 33.1857Z" fill="white"/>
</svg>
