<svg width="24" height="13" viewBox="0 0 24 13" fill="none" xmlns="http://www.w3.org/2000/svg">
<path d="M19.7497 7.72419C19.3649 7.30769 19.475 7.12239 19.7497 6.75009C19.7547 6.74584 22.9311 2.98374 23.2584 1.70789L23.2603 1.70704C23.423 1.24209 23.2603 0.900391 22.4739 0.900391H19.8717C19.2092 0.900391 18.9038 1.19364 18.7402 1.52174C18.7402 1.52174 17.4153 4.24004 15.5409 6.00209C14.936 6.51124 14.6563 6.67444 14.3261 6.67444C14.1635 6.67444 13.9106 6.51124 13.9106 6.04629V1.70704C13.9106 1.14944 13.7251 0.900391 13.1767 0.900391H9.08497C8.66945 0.900391 8.42252 1.16049 8.42252 1.40274C8.42252 1.93144 9.35967 2.05299 9.45686 3.54049V6.76794C9.45686 7.47514 9.30711 7.60519 8.97489 7.60519C8.0903 7.60519 5.94326 4.87584 4.67091 1.75209C4.41406 1.14604 4.16316 0.901241 3.49575 0.901241H0.892531C0.149747 0.901241 0 1.19449 0 1.52259C0 2.10229 0.884597 4.98464 4.11358 8.79264C6.26557 11.3919 9.29621 12.8004 12.0531 12.8004C13.7103 12.8004 13.9126 12.4876 13.9126 11.9495C13.9126 9.46584 13.7628 9.23124 14.5929 9.23124C14.9777 9.23124 15.6401 9.39444 17.1872 10.6482C18.9554 12.1348 19.2459 12.8004 20.2357 12.8004H22.8379C23.5797 12.8004 23.9555 12.4876 23.7393 11.8705C23.2445 10.5725 19.9005 7.90269 19.7497 7.72419Z" fill="#003458"/>
</svg>
