<svg width="48" height="48" viewBox="0 0 48 48" fill="none" xmlns="http://www.w3.org/2000/svg">
<path d="M33.9218 12.3569C33.9218 10.3943 33.3398 8.47569 32.2494 6.84381C31.1591 5.21193 29.6092 3.94004 27.796 3.18897C25.9827 2.43789 23.9875 2.24138 22.0626 2.62427C20.1376 3.00717 18.3695 3.95227 16.9817 5.34007C15.5939 6.72787 14.6488 8.49603 14.2659 10.421C13.883 12.3459 14.0795 14.3411 14.8306 16.1544C15.5816 17.9676 16.8535 19.5175 18.4854 20.6078C20.1173 21.6982 22.0359 22.2802 23.9985 22.2802C26.6294 22.2772 29.1517 21.2308 31.012 19.3704C32.8724 17.5101 33.9188 14.9878 33.9218 12.3569ZM17.0186 17.2043L17.4236 16.9702C17.5817 16.8739 17.6959 16.7196 17.7417 16.5402C17.7875 16.3608 17.7613 16.1707 17.6687 16.0103C17.5762 15.85 17.4245 15.7323 17.2462 15.6823C17.068 15.6324 16.8772 15.6541 16.7148 15.743L16.3098 15.9759C15.8767 15.0606 15.6122 14.0748 15.5289 13.0657H15.9991C16.1871 13.0657 16.3674 12.991 16.5003 12.8581C16.6332 12.7252 16.7079 12.5449 16.7079 12.3569C16.7079 12.1689 16.6332 11.9886 16.5003 11.8557C16.3674 11.7228 16.1871 11.6481 15.9991 11.6481H15.5289C15.6131 10.6388 15.8786 9.653 16.3126 8.73794L16.7176 8.97083C16.798 9.01816 16.887 9.04902 16.9794 9.06159C17.0719 9.07417 17.1659 9.06822 17.256 9.0441C17.3461 9.01997 17.4305 8.97814 17.5043 8.92106C17.578 8.86398 17.6397 8.79278 17.6857 8.71161C17.7328 8.63118 17.7634 8.54219 17.7759 8.44981C17.7884 8.35743 17.7824 8.26349 17.7583 8.17345C17.7342 8.08341 17.6924 7.99904 17.6354 7.92525C17.5785 7.85146 17.5074 7.78971 17.4264 7.74358L17.0214 7.50947C17.6007 6.67826 18.3227 5.95626 19.1539 5.37697L19.388 5.78201C19.4843 5.94014 19.6386 6.05431 19.818 6.10012C19.9974 6.14593 20.1876 6.11974 20.3479 6.02715C20.5082 5.93455 20.626 5.78291 20.6759 5.60464C20.7259 5.42637 20.7041 5.23563 20.6153 5.0732L20.3824 4.66817C21.2974 4.23412 22.2833 3.96863 23.2925 3.88443V4.35751C23.2925 4.54549 23.3672 4.72578 23.5001 4.85871C23.6331 4.99164 23.8134 5.06631 24.0013 5.06631C24.1893 5.06631 24.3696 4.99164 24.5025 4.85871C24.6355 4.72578 24.7102 4.54549 24.7102 4.35751V3.88726C25.7194 3.97146 26.7053 4.23695 27.6203 4.671L27.3874 5.07603C27.3383 5.15672 27.3058 5.24641 27.2918 5.33984C27.2778 5.43327 27.2827 5.52854 27.3061 5.62007C27.3294 5.7116 27.3709 5.79753 27.4279 5.87282C27.485 5.94811 27.5565 6.01123 27.6383 6.05848C27.7201 6.10572 27.8105 6.13614 27.9043 6.14794C27.998 6.15974 28.0931 6.15269 28.1841 6.1272C28.2751 6.1017 28.36 6.05828 28.434 5.99949C28.5079 5.9407 28.5693 5.86772 28.6147 5.78484L28.8488 5.37981C29.68 5.9591 30.402 6.68109 30.9813 7.51231L30.5762 7.74642C30.4413 7.82493 30.336 7.9457 30.2766 8.09006C30.2172 8.23442 30.207 8.39432 30.2475 8.54507C30.2881 8.69581 30.3772 8.82899 30.501 8.92403C30.6249 9.01908 30.7766 9.07068 30.9327 9.07088C31.0566 9.06967 31.178 9.03616 31.2851 8.97367L31.6901 8.74077C32.1218 9.65533 32.3854 10.6401 32.4682 11.6481H31.9979C31.8099 11.6481 31.6296 11.7228 31.4967 11.8557C31.3638 11.9886 31.2891 12.1689 31.2891 12.3569C31.2891 12.5449 31.3638 12.7252 31.4967 12.8581C31.6296 12.991 31.8099 13.0657 31.9979 13.0657H32.4682C32.384 14.075 32.1185 15.0608 31.6844 15.9759L31.2794 15.743C31.117 15.6541 30.9262 15.6324 30.7479 15.6823C30.5697 15.7323 30.418 15.85 30.3254 16.0103C30.2328 16.1707 30.2067 16.3608 30.2525 16.5402C30.2983 16.7196 30.4124 16.8739 30.5706 16.9702L30.9756 17.2043C30.1946 18.333 29.1516 19.2555 27.9359 19.8927C26.7203 20.5298 25.3682 20.8627 23.9957 20.8627C22.6231 20.8627 21.2711 20.5298 20.0554 19.8927C18.8397 19.2555 17.7967 18.333 17.0157 17.2043H17.0186Z" fill="white"/>
<path d="M23.0361 14.0233C23.4781 14.278 24.0032 14.3469 24.4959 14.2148C24.9887 14.0828 25.4089 13.7606 25.6644 13.3189C26.0265 12.6907 26.7247 9.57076 26.9301 8.62946C26.9623 8.48253 26.9469 8.32918 26.8861 8.19159C26.8254 8.05399 26.7224 7.93929 26.5922 7.86406C26.4619 7.78884 26.3111 7.75699 26.1616 7.77314C26.0121 7.78928 25.8715 7.85257 25.7603 7.95386C25.0479 8.60192 22.6946 10.7668 22.3317 11.3966C22.0779 11.8386 22.0094 12.3631 22.1414 12.8554C22.2734 13.3477 22.5951 13.7677 23.0361 14.0233ZM23.5586 12.1059C24.0105 11.5675 24.4985 11.0604 25.0191 10.5882C24.8705 11.2756 24.6757 11.9522 24.4359 12.6134C24.368 12.728 24.2576 12.8112 24.1288 12.845C24 12.8788 23.863 12.8604 23.7476 12.7939C23.6322 12.7274 23.5476 12.6181 23.5122 12.4897C23.4768 12.3613 23.4935 12.2241 23.5586 12.1079V12.1059Z" fill="white"/>
<path d="M27.1374 17.1424C27.1373 16.9544 27.0626 16.7742 26.9297 16.6413C26.7968 16.5084 26.6165 16.4337 26.4286 16.4336H21.5682C21.3802 16.4336 21.1999 16.5083 21.067 16.6412C20.9341 16.7741 20.8594 16.9544 20.8594 17.1424C20.8594 17.3304 20.9341 17.5107 21.067 17.6436C21.1999 17.7765 21.3802 17.8512 21.5682 17.8512H26.4286C26.6165 17.8511 26.7968 17.7764 26.9297 17.6435C27.0626 17.5106 27.1373 17.3304 27.1374 17.1424Z" fill="white"/>
<path d="M47.2876 32.6087H44.8574C44.6695 32.6088 44.4892 32.6836 44.3563 32.8165C44.2234 32.9494 44.1487 33.1296 44.1486 33.3176V34.4314H32.6862C32.5257 33.7411 32.1365 33.1254 31.5818 32.6842C31.0272 32.243 30.3397 32.0023 29.631 32.0012H27.1372V27.1408H28.2511C28.439 27.1407 28.6192 27.066 28.7521 26.9331C28.885 26.8002 28.9598 26.6199 28.9599 26.432V23.6668C31.5573 22.5277 33.6836 20.5295 34.9817 18.0078C36.2799 15.4862 36.6708 12.5946 36.0889 9.81875C35.5069 7.04289 33.9876 4.55182 31.7859 2.76387C29.5842 0.975921 26.8344 0 23.9982 0C21.162 0 18.4122 0.975921 16.2105 2.76387C14.0089 4.55182 12.4895 7.04289 11.9075 9.81875C11.3256 12.5946 11.7165 15.4862 13.0147 18.0078C14.3129 20.5295 16.4392 22.5277 19.0366 23.6668V26.432C19.0367 26.6199 19.1114 26.8002 19.2443 26.9331C19.3772 27.066 19.5574 27.1407 19.7454 27.1408H20.8592V32.0012H18.3683C17.6596 32.0023 16.9721 32.243 16.4174 32.6842C15.8628 33.1254 15.4736 33.7411 15.3131 34.4314H3.84781V33.3176C3.84771 33.1296 3.773 32.9494 3.64009 32.8165C3.50719 32.6836 3.32696 32.6088 3.13901 32.6087H0.708808C0.520853 32.6088 0.340628 32.6836 0.207723 32.8165C0.0748195 32.9494 0.000107311 33.1296 0 33.3176V46.6836C0.000107311 46.8716 0.0748195 47.0518 0.207723 47.1847C0.340628 47.3176 0.520853 47.3923 0.708808 47.3924H3.13901C3.32696 47.3923 3.50719 47.3176 3.64009 47.1847C3.773 47.0518 3.84771 46.8716 3.84781 46.6836V45.5698H15.3103C15.4708 46.2601 15.86 46.8758 16.4146 47.317C16.9692 47.7582 17.6567 47.9989 18.3654 48H29.6282C30.3369 47.9989 31.0244 47.7582 31.579 47.317C32.1336 46.8758 32.5228 46.2601 32.6833 45.5698H44.1458V46.6836C44.1459 46.8716 44.2206 47.0518 44.3535 47.1847C44.4864 47.3176 44.6666 47.3923 44.8546 47.3924H47.2848C47.4727 47.3923 47.653 47.3176 47.7859 47.1847C47.9188 47.0518 47.9935 46.8716 47.9936 46.6836V33.3176C47.9935 33.1301 47.9192 32.9503 47.7869 32.8175C47.6546 32.6846 47.4751 32.6096 47.2876 32.6087ZM13.0623 12.3571C13.0623 10.1942 13.7037 8.07983 14.9053 6.28143C16.107 4.48303 17.815 3.08135 19.8132 2.25364C21.8115 1.42593 24.0103 1.20936 26.1317 1.63133C28.2531 2.05329 30.2016 3.09483 31.7311 4.62424C33.2605 6.15366 34.302 8.10225 34.724 10.2236C35.1459 12.345 34.9294 14.5438 34.1017 16.5421C33.274 18.5403 31.8723 20.2483 30.0739 21.45C28.2755 22.6516 26.1611 23.293 23.9982 23.293C21.0988 23.2898 18.3191 22.1366 16.2689 20.0864C14.2187 18.0362 13.0655 15.2565 13.0623 12.3571ZM20.4542 24.1901C22.7659 24.8841 25.2305 24.8841 27.5423 24.1901V25.7232H20.4542V24.1901ZM22.2768 27.1408H25.7196V32.0012H22.2768V27.1408ZM2.4302 45.9748H1.41762V34.0264H2.4302V45.9748ZM3.84781 35.849H15.2292V44.1522H3.84781V35.849ZM31.3496 44.861C31.349 45.3174 31.1675 45.7549 30.8448 46.0776C30.5221 46.4003 30.0846 46.5818 29.6282 46.5824H18.3683C17.9119 46.5818 17.4743 46.4003 17.1516 46.0776C16.8289 45.7549 16.6474 45.3174 16.6469 44.861V35.1402C16.6474 34.6838 16.8289 34.2463 17.1516 33.9236C17.4743 33.6009 17.9119 33.4193 18.3683 33.4188H29.6282C30.0846 33.4193 30.5221 33.6009 30.8448 33.9236C31.1675 34.2463 31.349 34.6838 31.3496 35.1402V44.861ZM32.7672 44.1522V35.849H44.1486V44.1522H32.7672ZM46.5788 45.9748H45.5662V34.0264H46.5788V45.9748Z" fill="white"/>
<path d="M29.6282 39.8311C29.4403 39.8311 29.26 39.9057 29.127 40.0387C28.9941 40.1716 28.9194 40.3519 28.9194 40.5399V43.1726C28.9194 43.3606 28.9941 43.5409 29.127 43.6738C29.26 43.8067 29.4403 43.8814 29.6282 43.8814C29.8162 43.8814 29.9965 43.8067 30.1294 43.6738C30.2624 43.5409 30.3371 43.3606 30.3371 43.1726V40.5399C30.3369 40.3519 30.2622 40.1717 30.1293 40.0388C29.9964 39.9059 29.8162 39.8312 29.6282 39.8311Z" fill="white"/>
</svg>
