<svg width="51" height="51" viewBox="0 0 51 51" fill="none" xmlns="http://www.w3.org/2000/svg">
<path d="M46.1756 46.6062H4.82421C4.07818 46.6053 3.36297 46.3085 2.83545 45.781C2.30793 45.2535 2.01117 44.5383 2.01025 43.7923V4.27277C2.01044 3.52626 2.30688 2.81035 2.83448 2.28223C3.36208 1.75411 4.07771 1.45697 4.82421 1.45605H46.1756C46.9221 1.45697 47.6377 1.75411 48.1653 2.28223C48.6929 2.81035 48.9893 3.52626 48.9895 4.27277V43.7923C48.9886 44.5383 48.6919 45.2535 48.1643 45.781C47.6368 46.3085 46.9216 46.6053 46.1756 46.6062ZM4.82421 2.83443C4.44316 2.83498 4.07792 2.98678 3.80874 3.25648C3.53955 3.52619 3.38845 3.89172 3.38863 4.27277V43.7923C3.38918 44.1728 3.5406 44.5377 3.80971 44.8068C4.07881 45.0759 4.44364 45.2273 4.82421 45.2278H46.1756C46.5561 45.2273 46.921 45.0759 47.1901 44.8068C47.4592 44.5377 47.6106 44.1728 47.6111 43.7923V4.27277C47.6113 3.89172 47.4602 3.52619 47.191 3.25648C46.9219 2.98678 46.5566 2.83498 46.1756 2.83443H4.82421Z" fill="white"/>
<path d="M11.9501 50.1419H7.67713C7.25372 50.1414 6.84781 49.973 6.54835 49.6737C6.24889 49.3743 6.08032 48.9685 6.07959 48.5451V45.9172C6.07959 45.7344 6.1522 45.5591 6.28145 45.4299C6.4107 45.3006 6.586 45.228 6.76878 45.228H12.8564C13.0392 45.228 13.2145 45.3006 13.3437 45.4299C13.473 45.5591 13.5456 45.7344 13.5456 45.9172V48.5451C13.545 48.9682 13.3768 49.3738 13.0778 49.6731C12.7787 49.9725 12.3732 50.141 11.9501 50.1419ZM7.45935 46.6064V48.5451C7.45971 48.603 7.48294 48.6585 7.52398 48.6994C7.56502 48.7403 7.62056 48.7634 7.67851 48.7636H11.9515C12.0094 48.7634 12.0648 48.7403 12.1058 48.6994C12.1467 48.6584 12.1698 48.603 12.17 48.5451V46.6064H7.45935Z" fill="white"/>
<path d="M43.3217 50.1419H38.3595C37.9362 50.1414 37.5304 49.973 37.231 49.6736C36.9317 49.3743 36.7632 48.9684 36.7627 48.5451V45.9172C36.7627 45.7344 36.8353 45.5591 36.9646 45.4299C37.0938 45.3006 37.2691 45.228 37.4519 45.228H44.2287C44.4115 45.228 44.5868 45.3006 44.716 45.4299C44.8453 45.5591 44.9179 45.7344 44.9179 45.9172V48.5451C44.9172 48.9683 44.7488 49.3739 44.4496 49.6732C44.1505 49.9725 43.7449 50.141 43.3217 50.1419ZM38.1425 46.6064V48.5451C38.1426 48.603 38.1657 48.6584 38.2066 48.6994C38.2476 48.7403 38.303 48.7634 38.3609 48.7636H43.3231C43.381 48.7634 43.4366 48.7403 43.4776 48.6994C43.5187 48.6585 43.5419 48.603 43.5423 48.5451V46.6064H38.1425Z" fill="white"/>
<path d="M42.1943 23.6434H24.866C24.2347 23.6427 23.6295 23.3916 23.1831 22.9452C22.7367 22.4988 22.4856 21.8936 22.4849 21.2623V7.69833C22.4858 7.06715 22.737 6.4621 23.1833 6.01586C23.6297 5.56961 24.2348 5.3186 24.866 5.31787H42.1943C42.8255 5.3186 43.4306 5.56961 43.877 6.01586C44.3234 6.4621 44.5745 7.06715 44.5754 7.69833V21.2623C44.5747 21.8936 44.3236 22.4988 43.8772 22.9452C43.4308 23.3916 42.8256 23.6427 42.1943 23.6434ZM24.866 6.69625C24.6002 6.69643 24.3454 6.80204 24.1574 6.98991C23.9694 7.17778 23.8636 7.43256 23.8632 7.69833V21.2623C23.8634 21.5282 23.9691 21.7831 24.1571 21.9711C24.3452 22.1591 24.6001 22.2649 24.866 22.265H42.1943C42.4601 22.2647 42.715 22.1589 42.903 21.9709C43.0909 21.783 43.1967 21.5281 43.1971 21.2623V7.69833C43.1967 7.43256 43.0909 7.17778 42.9029 6.98991C42.7149 6.80204 42.4601 6.69643 42.1943 6.69625H24.866Z" fill="white"/>
<path d="M27.7316 20.042C27.1249 20.0413 26.5432 19.7999 26.1143 19.3708C25.6853 18.9417 25.4441 18.36 25.4435 17.7533V14.8745C25.4432 14.6333 25.3472 14.4022 25.1767 14.2316C25.0061 14.0611 24.775 13.9651 24.5338 13.9648H23.1775C22.9947 13.9648 22.8194 13.8922 22.6901 13.7629C22.5609 13.6337 22.4883 13.4584 22.4883 13.2756C22.4883 13.0928 22.5609 12.9175 22.6901 12.7883C22.8194 12.659 22.9947 12.5864 23.1775 12.5864H24.5352C25.1418 12.5869 25.7235 12.8282 26.1525 13.2572C26.5815 13.6862 26.8227 14.2678 26.8233 14.8745V17.7533C26.8199 17.8749 26.841 17.9959 26.8852 18.1093C26.9295 18.2226 26.996 18.3259 27.0808 18.4131C27.1656 18.5003 27.2671 18.5697 27.3792 18.617C27.4913 18.6643 27.6117 18.6887 27.7334 18.6887C27.855 18.6887 27.9755 18.6643 28.0875 18.617C28.1996 18.5697 28.3011 18.5003 28.3859 18.4131C28.4708 18.3259 28.5373 18.2226 28.5815 18.1093C28.6257 17.9959 28.6468 17.8749 28.6434 17.7533V11.9007C28.6434 11.2061 28.9194 10.5399 29.4105 10.0488C29.9016 9.55766 30.5678 9.28174 31.2624 9.28174C31.9569 9.28174 32.6231 9.55766 33.1142 10.0488C33.6054 10.5399 33.8813 11.2061 33.8813 11.9007V14.8042C33.8822 15.0629 33.9852 15.3109 34.168 15.494C34.3507 15.6772 34.5984 15.7807 34.8572 15.7822C35.1167 15.7818 35.3655 15.6787 35.5493 15.4955C35.733 15.3123 35.8368 15.0637 35.8379 14.8042V13.9772C35.8487 13.3333 36.112 12.7195 36.5712 12.268C37.0303 11.8164 37.6485 11.5634 38.2924 11.5634C38.9364 11.5634 39.5546 11.8164 40.0137 12.268C40.4728 12.7195 40.7362 13.3333 40.747 13.9772V14.9813C40.7473 15.2226 40.8433 15.4538 41.0138 15.6245C41.1843 15.7951 41.4155 15.8912 41.6567 15.8918H43.8876C44.0704 15.8918 44.2457 15.9644 44.375 16.0936C44.5042 16.2229 44.5768 16.3982 44.5768 16.5809C44.5768 16.7637 44.5042 16.939 44.375 17.0683C44.2457 17.1975 44.0704 17.2701 43.8876 17.2701H41.6567C41.05 17.2694 40.4683 17.028 40.0393 16.5989C39.6104 16.1698 39.3692 15.5881 39.3686 14.9813V13.9793C39.3679 13.6941 39.2543 13.4209 39.0527 13.2193C38.8511 13.0177 38.5779 12.9042 38.2928 12.9034C38.0074 12.9036 37.7338 13.017 37.532 13.2187C37.3302 13.4204 37.2166 13.6939 37.2163 13.9793V14.8063C37.2216 15.1194 37.1646 15.4305 37.0484 15.7214C36.9323 16.0122 36.7594 16.2771 36.5398 16.5004C36.3203 16.7238 36.0584 16.9012 35.7696 17.0222C35.4808 17.1433 35.1707 17.2057 34.8575 17.2057C34.5443 17.2057 34.2343 17.1433 33.9454 17.0222C33.6566 16.9012 33.3947 16.7238 33.1752 16.5004C32.9556 16.2771 32.7827 16.0122 32.6666 15.7214C32.5505 15.4305 32.4934 15.1194 32.4988 14.8063V11.9007C32.4988 11.5716 32.3681 11.2561 32.1354 11.0235C31.9028 10.7908 31.5872 10.6601 31.2582 10.6601C30.9292 10.6601 30.6137 10.7908 30.381 11.0235C30.1484 11.2561 30.0177 11.5716 30.0177 11.9007V17.7533C30.0182 18.054 29.9594 18.3518 29.8446 18.6298C29.7297 18.9077 29.5612 19.1602 29.3485 19.3729C29.1359 19.5855 28.8833 19.7541 28.6054 19.8689C28.3275 19.9838 28.0296 20.0426 27.7289 20.042H27.7316Z" fill="white"/>
<path d="M43.4191 41.9109H7.58128C7.39849 41.9109 7.2232 41.8383 7.09395 41.709C6.9647 41.5798 6.89209 41.4045 6.89209 41.2217V31.6599C6.89209 31.4771 6.9647 31.3018 7.09395 31.1726C7.2232 31.0433 7.39849 30.9707 7.58128 30.9707H43.4191C43.6019 30.9707 43.7772 31.0433 43.9064 31.1726C44.0357 31.3018 44.1083 31.4771 44.1083 31.6599V41.2217C44.1083 41.4045 44.0357 41.5798 43.9064 41.709C43.7772 41.8383 43.6019 41.9109 43.4191 41.9109ZM8.27047 40.5325H42.7299V32.3491H8.27047V40.5325Z" fill="white"/>
<path d="M12.6852 22.0394C11.19 22.0394 9.72839 21.596 8.48518 20.7653C7.24198 19.9346 6.27303 18.7539 5.70087 17.3725C5.12872 15.9911 4.97905 14.471 5.2708 13.0046C5.56255 11.5381 6.28261 10.1911 7.33993 9.13387C8.39724 8.07665 9.74432 7.35671 11.2108 7.0651C12.6773 6.77348 14.1973 6.92329 15.5787 7.49557C16.96 8.06785 18.1406 9.03691 18.9712 10.2802C19.8018 11.5235 20.2451 12.9851 20.2449 14.4803C20.2427 16.4846 19.4455 18.4061 18.0283 19.8232C16.611 21.2403 14.6894 22.0374 12.6852 22.0394ZM12.6852 8.29899C11.4627 8.29899 10.2676 8.66152 9.25104 9.34074C8.23453 10.02 7.44225 10.9853 6.9744 12.1148C6.50655 13.2443 6.38413 14.4872 6.62264 15.6863C6.86115 16.8853 7.44987 17.9867 8.31434 18.8512C9.17882 19.7157 10.2802 20.3044 11.4793 20.5429C12.6784 20.7814 13.9212 20.659 15.0507 20.1911C16.1802 19.7233 17.1456 18.931 17.8248 17.9145C18.504 16.898 18.8665 15.7029 18.8665 14.4803C18.8649 12.8414 18.2131 11.2701 17.0543 10.1113C15.8954 8.95241 14.3241 8.30063 12.6852 8.29899Z" fill="white"/>
<path d="M12.6853 15.1701C12.5464 15.17 12.4106 15.1279 12.296 15.0493C12.1814 14.9707 12.0932 14.8593 12.043 14.7297L10.4703 10.6731C10.4376 10.5887 10.4219 10.4986 10.424 10.4081C10.4261 10.3176 10.4461 10.2284 10.4827 10.1456C10.5193 10.0628 10.5719 9.98798 10.6374 9.92548C10.7029 9.86298 10.7801 9.81399 10.8645 9.78132C10.9489 9.74865 11.039 9.73292 11.1295 9.73505C11.22 9.73718 11.3092 9.75712 11.392 9.79373C11.4749 9.83033 11.5497 9.88289 11.6122 9.9484C11.6747 10.0139 11.7236 10.0911 11.7563 10.1755L13.3283 14.2314C13.3689 14.3359 13.3834 14.4487 13.3705 14.5601C13.3577 14.6714 13.3178 14.7779 13.2545 14.8704C13.1911 14.9629 13.1062 15.0385 13.007 15.0907C12.9078 15.1429 12.7974 15.1702 12.6853 15.1701Z" fill="white"/>
<path d="M12.6853 9.16628C12.5025 9.16628 12.3272 9.09367 12.198 8.96442C12.0687 8.83517 11.9961 8.65987 11.9961 8.47709V7.61009C11.9961 7.4273 12.0687 7.25201 12.198 7.12276C12.3272 6.99351 12.5025 6.9209 12.6853 6.9209C12.8681 6.9209 13.0434 6.99351 13.1726 7.12276C13.3019 7.25201 13.3745 7.4273 13.3745 7.61009V8.47709C13.3745 8.65987 13.3019 8.83517 13.1726 8.96442C13.0434 9.09367 12.8681 9.16628 12.6853 9.16628Z" fill="white"/>
<path d="M12.6853 22.0395C12.5025 22.0395 12.3272 21.9669 12.198 21.8376C12.0687 21.7084 11.9961 21.5331 11.9961 21.3503V20.4861C11.9961 20.3033 12.0687 20.128 12.198 19.9987C12.3272 19.8695 12.5025 19.7969 12.6853 19.7969C12.8681 19.7969 13.0434 19.8695 13.1726 19.9987C13.3019 20.128 13.3745 20.3033 13.3745 20.4861V21.3503C13.3745 21.5331 13.3019 21.7084 13.1726 21.8376C13.0434 21.9669 12.8681 22.0395 12.6853 22.0395Z" fill="white"/>
<path d="M6.67941 15.1699H5.81517C5.63238 15.1699 5.45708 15.0973 5.32784 14.968C5.19859 14.8388 5.12598 14.6635 5.12598 14.4807C5.12598 14.2979 5.19859 14.1226 5.32784 13.9934C5.45708 13.8641 5.63238 13.7915 5.81517 13.7915H6.67941C6.8622 13.7915 7.03749 13.8641 7.16674 13.9934C7.29599 14.1226 7.3686 14.2979 7.3686 14.4807C7.3686 14.6635 7.29599 14.8388 7.16674 14.968C7.03749 15.0973 6.8622 15.1699 6.67941 15.1699Z" fill="white"/>
<path d="M19.5549 15.1699H18.6907C18.5079 15.1699 18.3326 15.0973 18.2033 14.968C18.0741 14.8388 18.0015 14.6635 18.0015 14.4807C18.0015 14.2979 18.0741 14.1226 18.2033 13.9934C18.3326 13.8641 18.5079 13.7915 18.6907 13.7915H19.5549C19.7377 13.7915 19.913 13.8641 20.0422 13.9934C20.1715 14.1226 20.2441 14.2979 20.2441 14.4807C20.2441 14.6635 20.1715 14.8388 20.0422 14.968C19.913 15.0973 19.7377 15.1699 19.5549 15.1699Z" fill="white"/>
<path d="M16.9312 10.9231C16.7949 10.9231 16.6617 10.8826 16.5484 10.8069C16.4351 10.7312 16.3468 10.6235 16.2946 10.4976C16.2425 10.3717 16.2288 10.2331 16.2554 10.0995C16.282 9.96581 16.3476 9.84302 16.444 9.74663L17.056 9.13532C17.12 9.07133 17.196 9.02058 17.2797 8.98597C17.3633 8.95136 17.4529 8.93356 17.5435 8.93359C17.634 8.93363 17.7236 8.95149 17.8072 8.98616C17.8909 9.02083 17.9668 9.07163 18.0308 9.13567C18.0948 9.1997 18.1456 9.27571 18.1802 9.35935C18.2148 9.443 18.2326 9.53264 18.2326 9.62317C18.2325 9.71369 18.2147 9.80332 18.18 9.88694C18.1453 9.97056 18.0945 10.0465 18.0305 10.1105L17.4185 10.7218C17.2892 10.8508 17.1139 10.9232 16.9312 10.9231Z" fill="white"/>
<path d="M7.82723 20.0271C7.69094 20.0271 7.55772 19.9866 7.44441 19.9109C7.3311 19.8352 7.24279 19.7275 7.19064 19.6016C7.13849 19.4757 7.12484 19.3372 7.15142 19.2035C7.178 19.0698 7.24361 18.947 7.33997 18.8506L7.95197 18.2393C8.08129 18.1101 8.25665 18.0375 8.43947 18.0376C8.62229 18.0377 8.7976 18.1104 8.92683 18.2397C9.05605 18.369 9.12862 18.5443 9.12855 18.7272C9.12849 18.91 9.0558 19.0853 8.92648 19.2145L8.31448 19.8258C8.18515 19.9548 8.0099 20.0272 7.82723 20.0271Z" fill="white"/>
<path d="M8.43902 10.9231C8.25635 10.9232 8.0811 10.8508 7.95177 10.7218L7.33977 10.1105C7.21045 9.9813 7.13776 9.80599 7.1377 9.62317C7.13763 9.44035 7.21019 9.26499 7.33942 9.13567C7.46865 9.00635 7.64396 8.93366 7.82678 8.93359C8.0096 8.93353 8.18496 9.00609 8.31428 9.13532L8.92628 9.74663C9.02264 9.84302 9.08825 9.96581 9.11483 10.0995C9.14141 10.2331 9.12776 10.3717 9.07561 10.4976C9.02346 10.6235 8.93515 10.7312 8.82184 10.8069C8.70853 10.8826 8.57531 10.9231 8.43902 10.9231Z" fill="white"/>
<path d="M17.5435 20.0271C17.3608 20.0272 17.1856 19.9548 17.0563 19.8258L16.4443 19.2145C16.3149 19.0853 16.2423 18.91 16.2422 18.7272C16.2421 18.5443 16.3147 18.369 16.4439 18.2397C16.5731 18.1104 16.7485 18.0377 16.9313 18.0376C17.1141 18.0375 17.2895 18.1101 17.4188 18.2393L18.0308 18.8506C18.1271 18.947 18.1927 19.0698 18.2193 19.2035C18.2459 19.3372 18.2323 19.4757 18.1801 19.6016C18.128 19.7275 18.0396 19.8352 17.9263 19.9109C17.813 19.9866 17.6798 20.0271 17.5435 20.0271Z" fill="white"/>
<path d="M33.8769 29.4819C33.4466 29.4819 33.0259 29.3543 32.6681 29.1152C32.3103 28.8761 32.0314 28.5362 31.8667 28.1386C31.7021 27.741 31.659 27.3035 31.743 26.8814C31.827 26.4593 32.0343 26.0717 32.3387 25.7674C32.643 25.4631 33.0308 25.256 33.4529 25.1721C33.875 25.0882 34.3125 25.1314 34.71 25.2962C35.1076 25.461 35.4474 25.74 35.6864 26.0978C35.9254 26.4557 36.0528 26.8765 36.0527 27.3068C36.052 27.8836 35.8225 28.4365 35.4146 28.8443C35.0067 29.252 34.4537 29.4814 33.8769 29.4819ZM33.8769 26.5094C33.7192 26.5094 33.5651 26.5562 33.4339 26.6438C33.3028 26.7314 33.2006 26.856 33.1402 27.0017C33.0799 27.1474 33.0641 27.3077 33.0949 27.4624C33.1256 27.6171 33.2016 27.7591 33.3131 27.8707C33.4246 27.9822 33.5667 28.0581 33.7214 28.0889C33.8761 28.1197 34.0364 28.1039 34.1821 28.0435C34.3278 27.9832 34.4523 27.881 34.5399 27.7498C34.6276 27.6187 34.6743 27.4645 34.6743 27.3068C34.6741 27.0954 34.5901 26.8927 34.4406 26.7432C34.2911 26.5937 34.0884 26.5096 33.8769 26.5094Z" fill="white"/>
<path d="M25.5002 29.4819C25.0698 29.482 24.649 29.3545 24.2911 29.1155C23.9332 28.8765 23.6542 28.5367 23.4895 28.1391C23.3247 27.7415 23.2816 27.304 23.3655 26.8818C23.4494 26.4597 23.6567 26.072 23.961 25.7676C24.2653 25.4633 24.6531 25.2561 25.0752 25.1721C25.4973 25.0882 25.9348 25.1314 26.3324 25.2961C26.73 25.4609 27.0698 25.7399 27.3089 26.0978C27.5479 26.4557 27.6754 26.8764 27.6753 27.3068C27.6745 27.8835 27.4451 28.4363 27.0374 28.844C26.6296 29.2518 26.0768 29.4812 25.5002 29.4819ZM25.5002 26.5094C25.3425 26.5093 25.1882 26.556 25.057 26.6435C24.9258 26.731 24.8235 26.8555 24.763 27.0012C24.7025 27.1469 24.6867 27.3072 24.7173 27.462C24.748 27.6167 24.8239 27.7588 24.9354 27.8704C25.0469 27.982 25.189 28.058 25.3437 28.0889C25.4984 28.1197 25.6587 28.1039 25.8045 28.0436C25.9502 27.9833 26.0748 27.8811 26.1625 27.7499C26.2501 27.6188 26.2969 27.4646 26.2969 27.3068C26.2969 27.0955 26.213 26.8928 26.0636 26.7432C25.9142 26.5937 25.7116 26.5096 25.5002 26.5094Z" fill="white"/>
<path d="M17.1229 29.4819C16.6925 29.4822 16.2717 29.3548 15.9137 29.1159C15.5557 28.8769 15.2766 28.5372 15.1118 28.1396C14.9469 27.742 14.9036 27.3044 14.9875 26.8823C15.0713 26.4601 15.2785 26.0723 15.5828 25.7679C15.8871 25.4635 16.2749 25.2562 16.697 25.1722C17.1192 25.0882 17.5567 25.1313 17.9544 25.2961C18.352 25.4608 18.6918 25.7398 18.9309 26.0977C19.17 26.4556 19.2975 26.8764 19.2973 27.3068C19.2966 27.8834 19.0673 28.4361 18.6597 28.8438C18.2521 29.2515 17.6995 29.481 17.1229 29.4819ZM17.1229 26.5094C16.9652 26.5092 16.8109 26.5557 16.6796 26.6432C16.5483 26.7306 16.4458 26.8551 16.3853 27.0007C16.3247 27.1464 16.3087 27.3068 16.3393 27.4616C16.3699 27.6163 16.4458 27.7585 16.5572 27.8702C16.6687 27.9818 16.8108 28.0579 16.9655 28.0888C17.1202 28.1197 17.2806 28.104 17.4264 28.0437C17.5722 27.9834 17.6968 27.8811 17.7845 27.75C17.8722 27.6188 17.919 27.4646 17.919 27.3068C17.9188 27.0956 17.8349 26.8931 17.6857 26.7437C17.5365 26.5942 17.3341 26.51 17.1229 26.5094Z" fill="white"/>
</svg>
