<svg width="50" height="50" viewBox="0 0 50 50" fill="none" xmlns="http://www.w3.org/2000/svg">
<rect width="50" height="50" rx="25" fill="#003458"/>
<path fill-rule="evenodd" clip-rule="evenodd" d="M22.3904 31.5896C22.1404 31.3267 22 30.9702 22 30.5985C22 30.2269 22.1404 29.8704 22.3904 29.6075L26.7814 24.9915L22.3904 20.3756C22.1475 20.1112 22.0131 19.7571 22.0162 19.3896C22.0192 19.022 22.1594 18.6705 22.4067 18.4106C22.6539 18.1507 22.9883 18.0032 23.3379 18.0001C23.6876 17.9969 24.0244 18.1381 24.2759 18.3935L29.6096 24.0005C29.8596 24.2634 30 24.6198 30 24.9915C30 25.3632 29.8596 25.7197 29.6096 25.9826L24.2759 31.5896C24.0258 31.8524 23.6867 32 23.3331 32C22.9796 32 22.6405 31.8524 22.3904 31.5896Z" fill="white"/>
</svg>
