<svg width="895" height="895" fill="none" xmlns="http://www.w3.org/2000/svg"><circle cx="447.5" cy="447.5" r="445.5" stroke="#053365" stroke-width="4"/><circle cx="447.719" cy="447.719" r="368.719" fill="#053365"/><mask id="a" maskUnits="userSpaceOnUse" x="79" y="79" width="738" height="738"><circle cx="447.719" cy="447.719" r="368.719" fill="#1292EE" fill-opacity=".5"/></mask><g mask="url(#a)" stroke="#fff" stroke-width="2" stroke-miterlimit="10"><path d="M342.169-157.072C464.091-124.956 569.361-30.689 608.614 89.152c12.192 37.469 18.437 77.019 33.306 113.596 24.682 60.367 74.045 109.73 133.52 136.197 53.824 23.789 116.272 15.463 169.799 40.145 49.959 22.897 79.101 71.369 74.041 126.383-4.75 54.419-35.68 102.891-59.172 151.065-22.006 44.903-43.714 92.483-84.157 124.004-62.448 49.066-145.415 57.096-221.244 68.693-121.328 18.437-244.44 28.845-367.255 28.845-65.124 0-132.628-5.055-190.615-34.792C13.573 800.466-37.576 713.633-69.99 625.611c-60.069-163.852-70.775-353.278-30.332-523.375C-78.018 8.862-28.06-94.029 64.126-134.769c88.022-38.956 184.965-46.688 278.043-22.303z"/><path d="M93.27-66.67c30.63-14.274 62.449-24.088 95.16-29.44 49.958-8.327 101.106-5.948 151.362 6.542 108.541 27.655 202.808 110.325 240.277 215 11.895 32.711 18.437 67.206 32.116 99.322 22.6 52.338 66.909 96.051 119.841 120.138 47.877 21.709 102.593 15.761 149.578 38.361 43.714 20.816 69.288 63.638 65.124 111.812-3.865 48.175-30.926 90.699-52.04 132.926-19.626 39.253-39.253 80.587-75.532 108.243-55.906 42.822-128.762 49.364-195.671 58.285-106.757 14.571-214.703 20.221-322.054 18.14-56.798-.893-115.38-5.65-165.934-31.819C62.641 743.371 17.441 668.136-11.999 592.306c-22.006-57.095-37.172-117.759-45.498-179.315-11.895-90.996-8.921-184.371 10.408-272.096 10.11-46.687 28.548-96.348 57.69-137.386 21.411-29.44 48.77-54.419 82.67-70.18z"/><path d="M122.119 1.725c26.169-13.084 54.122-22.303 82.67-27.655 43.713-8.03 88.616-6.542 132.33 4.163C432.278 1.131 515.84 72.5 551.227 162.009c11.3 28.25 18.14 57.69 30.927 85.048 20.518 44.309 59.771 82.372 106.161 104.378 41.632 19.329 88.915 16.355 129.655 36.874 37.469 18.734 59.474 55.609 56.203 97.241-2.974 41.632-25.871 78.506-44.903 115.083-17.248 33.305-34.793 68.395-66.612 92.185-49.363 36.577-112.406 41.632-170.096 48.174-92.186 10.408-184.668 11.598-276.854 7.732-48.174-2.082-98.132-6.542-141.549-28.845-62.15-32.116-101.7-95.754-128.167-159.392-19.924-48.174-33.9-99.024-42.227-150.767C-8.13 333.593-7.832 255.086 6.441 180.446c7.435-39.848 22.006-82.075 46.093-117.462C70.376 37.113 93.572 15.702 122.12 1.725z"/><path d="M150.961 69.823c22.006-11.895 45.498-20.518 69.883-25.574 37.469-7.732 75.83-7.137 113.596 1.487 81.777 18.437 154.039 78.209 187.939 152.552 10.705 23.492 18.14 47.877 29.737 70.774 18.437 36.28 52.338 68.991 92.483 88.617 35.387 17.248 75.235 16.95 109.433 35.09 31.224 16.653 49.661 47.877 47.579 82.67-2.081 35.089-21.113 66.314-37.766 97.24-14.869 27.656-30.332 56.501-57.987 76.127-42.525 30.332-95.754 34.198-144.523 38.064-77.614 6.542-154.931 2.974-231.951-2.676-39.847-2.974-80.885-7.435-116.867-26.169-51.742-27.061-85.346-78.804-108.838-130.546-17.545-38.956-30.63-79.993-38.658-121.923-11.895-61.259-14.274-125.193-5.056-186.452 5.056-32.711 15.464-67.801 34.793-97.538 13.976-21.114 33.008-39.253 56.203-51.743z"/><path d="M180.102 137.922c17.545-10.705 36.874-18.734 57.095-23.492 31.224-7.434 63.341-7.732 94.862-1.19 68.396 13.977 129.654 62.151 161.473 121.328 10.111 18.735 17.842 38.064 28.548 56.203 16.355 28.548 45.2 55.312 78.803 72.857 29.143 15.166 61.854 17.247 89.212 33.603 24.682 14.571 39.848 39.847 38.658 68.098-1.189 28.548-16.058 54.122-30.629 79.398-12.49 21.708-26.169 44.606-49.364 60.367-35.982 24.087-79.398 26.466-118.949 27.953-63.042 2.379-124.896-5.65-186.749-13.085-31.224-3.866-63.935-8.029-92.483-23.195-41.335-21.708-69.288-61.853-89.212-101.404-15.166-30.034-27.358-61.258-35.387-93.077-11.895-46.687-16.95-95.456-12.787-143.333 2.379-25.574 8.921-53.527 23.493-77.317 10.705-18.14 24.979-32.711 43.416-43.714z"/><path d="M208.949 206.317c13.382-9.516 28.25-16.95 44.308-21.708 24.98-7.137 50.554-8.326 76.128-3.866 55.013 9.516 105.269 46.093 135.304 90.104 9.516 13.976 17.545 28.25 27.061 41.929 14.273 20.519 38.063 41.632 65.124 57.096 22.898 13.084 48.174 17.842 68.99 31.819 18.438 12.489 30.035 32.116 29.738 53.527-.298 22.303-11.003 41.929-23.195 61.258-10.111 16.058-21.709 32.711-40.443 44.309-29.44 18.139-62.745 18.734-93.375 17.842-48.769-1.784-94.862-13.977-141.549-23.492-22.898-4.758-46.687-8.922-68.098-20.519-30.629-16.653-52.932-44.903-69.883-72.559-12.787-20.816-23.789-42.524-32.116-64.53-11.895-31.818-19.924-66.016-20.518-100.511-.298-18.735 2.379-39.253 12.192-57.393 7.137-13.084 17.247-24.087 30.332-33.306z"/><path d="M237.792 274.415c8.921-8.624 19.924-15.166 31.819-19.626 18.734-6.84 38.064-8.624 57.393-6.542 41.632 4.757 81.182 30.034 109.135 58.879 9.219 9.219 17.248 18.735 25.872 27.656 11.895 12.489 30.926 27.953 51.445 41.037 16.653 11.003 34.495 18.14 49.066 30.332 12.193 10.408 20.222 24.087 20.816 38.658.595 15.761-5.947 30.035-16.058 43.417-7.731 10.408-17.247 20.816-31.818 28.547-22.601 11.895-46.39 11.003-67.801 7.435-34.198-5.65-64.827-22.303-96.349-34.198-14.274-5.353-29.44-9.813-43.416-17.545-20.221-11.3-36.577-27.656-50.553-43.416-10.408-11.895-20.519-23.493-28.845-35.685-11.598-16.95-22.601-36.577-28.251-57.393-2.973-11.597-3.866-24.682.892-37.469 2.974-8.623 8.922-16.652 16.653-24.087z"/><path d="M262.772 357.382c.893 19.329 28.846 28.25 46.391 32.116 28.25 6.542 54.419 16.058 75.532 36.28 25.871 24.682 51.743 61.556 93.375 47.282 41.037-14.274 37.766-38.956 19.924-62.151-17.843-23.195-49.959-45.2-66.314-53.824-42.524-22.303-97.241-57.69-146.01-31.819-7.732 4.163-14.868 9.813-19.032 17.545-2.676 5.353-3.866 10.11-3.866 14.571z"/></g></svg>