<svg width="622" height="584" fill="none" xmlns="http://www.w3.org/2000/svg"><g clip-path="url(#clip0)" fill="#053365"><path fill-rule="evenodd" clip-rule="evenodd" d="M313.062 0h-11.431L299.8 1.197v2.42h-3.627v1.795h-3.023l.033 3.057 1.198-.636-.351 1.723.351 3.689 1.479 1.196v4.144l-.28 1.9-1.583 1.86-.215.384-1.654 1.126-1.934 2.283-.632 1.548-1.374 1.685-2.847 3.129-3.622 1.23h-3.627l-2.424-1.23-3.028 2.426h-1.792l-1.797 1.19h-.632l-1.055.11-.352.385-2.814 3.129h-1.797l-1.792 1.19h-6.65v-1.19h-6.051l-3.588-3.623-3.023 3.623v4.813l1.83-.247v2.212l-.632 2.849h1.193v2.42l2.429 2.388.033 1.762 1.022.983.489 2.283.989.878 2.32 3.057 2.39.665 1.094 1.828.703 3.622 6.683 10.116 1.759.703v3.019l6.051 7.207 4.221 1.19 1.797 1.23h.599l3.023 1.197h6.051l.104-1.054 6.507-.736 8.409-.175 3.061-.461 4.012-3.195 3.237-4.007h1.792l3.622-4.814h1.341l-.143-4.424.566-1.794-1.231-5.127.033-5.34 3.27-.846 1.335-1.685 5.419-1.372 1.479-1.23.175-.664 2.215-.11 3.028-1.19 4.573-.072-.104-.56.912-.598 5.38.033 9.36-7.065-.209-7.097-.566-1.542-3.056.95-2.396-3.623-2.286-.104-1.336-1.087V32.5l-1.198-1.79v-8.436l-2.424-1.191V17.46l-2.429-1.79-2.39.599-2.43-1.828h-2.39v-1.196h-2.429v-1.191h-2.43v-1.197h-2.39v-1.23h-1.83l-1.193-2.387h-2.396l-3.622-3.623v-2.42h-1.231V0zM202.703 79.018l-.038 1.054-4.221 1.794-.137 1.686-4.084 4.352-1.687.039-.808 1.789.704 1.757-1.831 2.354-1.126.214-1.264.456v2.42h-5.419l-4.221-2.42h-1.83v1.196h-4.82l-.143 1.685-4.078 4.359h-2.429l-1.193 2.387h-4.82v1.23h-6.05v1.191h-2.397l-3.022 2.393h-1.831l-.071.209-.528 1.613h-2.39l-3.028 1.197h-.594l-1.094.104-3.132 3.513h-2.424v1.164l-6.018.631.632.95h-1.088l-1.968.279-2.995 2.986h-1.825l-1.797 2.427-.033 2.459-1.335-.319-1.83 1.757-.528-.247.737.916.56 2.635v1.229l.039 1.197.56 1.789h1.83l4.82 3.025 3.622 3.617.038 2.355 1.017.664.742 2.393v1.789l-1.973 1.301-.528 1.334.176 6.148 3.237 2.881 12.525 9.068 1.094 5.165.242 5.478-1.368 2.426.527 2.387-.742 1.971 7.321.983h4.82v1.191l7.243.598h6.051l1.759-.104 2.324-.527.737-1.757h3.028l4.82-3.617 3.023.071 1.198-.669h2.391l1.83-1.197h2.39l1.83-3.019.033-2.986 1.759-4.852v-1.191l1.231-1.795v-2.42l6.018-6.609h1.792l4.435-4.001 4.43-2.114 1.549-2.036.528-1.756 3.765-5.132 5.556-2.35 1.407-.988v-2.7l-3.446-6.746 1.341-2.042.385-2.986 2.358-.949-2.853-3.546.742-12.828 1.407-3.474 3.094-3.799 3.589-1.438.071-1.723 2.424-2.245v-1.054l-.984-2.322-1.407-.598-.033-1.828-1.198-.593-2.286-.11-3.133-3.512h-1.758l-.665-1.191h-1.797l-1.83-1.197h-1.792l-2.567-2.882-2.885-2.42-2.396-.703h-1.193l-1.797.137-3.023.599z"/><path fill-rule="evenodd" clip-rule="evenodd" d="M57.905 97.57l-3.622 3.585v1.789h-1.198v3.024h-3.022l-2.397-1.235v-2.387h-1.23l-.352-.385.351-.806h-2.39l-1.83-1.23h-1.792v9.029l.209.527 1.55 1.894-.67 1.932 1.934 1.69-.528 9.518 1.726 1.301v3.024l-1.792 1.192.594 12.053-1.83 2.388v.598l.39 1.724-.984 2.596-1.797-.703-.138.072-1.093.527-1.198-.599-1.193.599-1.83-.599-1.198.599h-1.792l1.792 2.426 1.797.247 4.254.351 3.627-.247 2.495 4.391 2.325 5.478v2.426l2.39 2.388 7.843 3.622h6.051l7.32 3.37 2.639-5.9 3.869-3.727.95-1.158h14.988l6.787 4.144 1.792.038 2.396-2.53-.39-2.986.494-1.723-.104-1.301 3.765-3.124-.039-3.2 1.27-2.074.033-2.388 1.445-.95 2.215-4.424.071-1.756 5.167-4.358-.528-.456-1.929.033-.813-2.283-.033-2.426-.567-2.525-.807-1.054-5.98-4.814h-3.622l-2.989 1.23h-2.43l-3.022-1.23h-1.798v-1.196h-4.22l-2.43-3.618h-2.39v-1.196h-6.051v1.196h-3.622v1.23h-4.22l-2.397-2.426v-2.388l-1.231-1.828v-.598l-1.193-3.019v-3.584h-1.198v-3.617l-2.429-3.025v-1.932l-4.22.774zm304.62-60.257h-2.99l-3.028 1.23-3.128.033.704 1.756v7.24l-9.607 7.273h-5.419l-.56.351.247.807-5.1.071-3.028 1.197-1.726.071-.209.489-1.726 1.51-5.347 1.371-1.336 1.62-2.989.878v4.808l1.231 5.412-.599 1.828v6.01h-1.231l.038 1.685 2.885.774.704 1.757v2.42l4.221 1.795v2.426l.104 1.757.495 2.459 5.452 7.201-.105 8.398.105 2.179-.814 1.125-1.616 1.543v2.426l-.104 1.756-.495 2.459-2.423 2.986-.143 6.362-1.654 3.897v15.039l1.198 1.79v2.426l12.662 5.412 1.759.033.67 1.158 10.239 5.445h15.685l1.83-1.822h4.221l1.517-2.459.242-.461.071-.033 1.759-.072 4.292-5.9 1.759-.703v-3.024l5.419-4.216h1.83v-1.789h6.612v-6.01h1.231v-2.426l1.198-1.79v-.598l1.198-3.019v-7.24l-1.198-2.986V121.6h-1.83v-3.617H394.5v-2.393l-3.023-1.822-2.99-6.609-1.231-1.789v-2.426h-2.396l-1.825-1.79v-5.445l-1.198-3.584h-1.198l.038-8.508 1.16.67v-2.42l5.419-5.413V74.66l-1.198-3.02v-9.627h-1.198V54.74l-1.825-.565V51.19l-2.396-3.019v-1.827l-1.231-1.79-.105-1.69-1.687-1.933h-1.791l-4.227-3.617h-.632l-2.989-1.196h-2.43l-3.022 1.196z"/><path fill-rule="evenodd" clip-rule="evenodd" d="M241.296 58.396l1.198 3.019v3.617h-1.198v2.393l2.391 3.02v7.837l-1.232 3.475-1.758.702-.352.599.352 1.23-1.231 2.387h-2.391v1.23l-2.638-.176v1.196l-2.99 1.795-.038 1.263 1.445.526 1.231 2.81v1.439l-2.357 2.355-.11 1.827-3.798 1.828-3.309 3.552-1.192 3.617v1.196l-.495 10.857 1.687 1.998 11.822 15.671 2.429 3.974 3.732 5.582.033 2.322 2.566 3.37h2.325l3.902 5.763v1.757l1.902 2.497-.214 10.292-.633 1.196.105 3.865 1.934.982-.137 6.713 3.27 4.989 5.315.703.983-1.339.457-.632.423-.422 2.286.598 2.814 1.125 7.073 2.673h6.013l.247-2.601 1.231-2.706.104-2.531 6.266-16.269v-2.387l4.819-2.426 5.7.214 3.198 1.613.599.319.176.313 1.407.565 5.699-9.732 3.133-2.635 5.732-1.86 2.71 1.158.351-.28-.28-.143-.038-.422-.105-2.141-1.231-1.724.072-15.39 1.654-3.897.104-6.433 2.429-2.986.704-2.355.066-1.757.071-2.738 1.583-1.406.846-1.053-.175-2.037.137-8.222-5.38-7.169-.528-2.563-.072-3.936-4.292-1.86-.066-2.569-.566-1.367-2.99-.845v-2.492h1.16v-1.125l-.912.033-3.732 4.99-1.759-.034-3.094 3.76-4.254 3.442-3.099.56-8.585-.034-6.117.736-.176 1.092-6.545-.038-2.885-1.158-.808-.033-1.759-1.197-4.364-1.262-6.331-7.449-.071-2.81-1.55-.74-5.59-8.608-1.126-1.685-.704-3.447-.917-1.476-2.391-.736-2.462-3.057-1.127-1.015-.456-2.284-1.231-1.339-.033-1.438-2.358-2.388-1.654 6.22z"/><path fill-rule="evenodd" clip-rule="evenodd" d="M222.649 129.927l-1.159 1.685 3.517 6.856v3.019l-1.83 1.196-5.413 2.388-3.628 4.814-.527 1.756-1.545 2.316-1.868.741-2.886 1.581-4.748 4.183h-1.616l-5.595 5.867v2.317l-.142.422-1.017 1.438v1.23l-1.687 4.638-.039 3.129-.423 1.086 5.067 6.856 6.123 5.725.033 1.581 8.584 6.85h.495l3.022 1.229 7.387.176 2.885 2.25h.286l2.319.033 5.381 4.359 1.445 2.179-.456.878.033 2.212v1.196l4.221 6.044h1.83l1.973-.209.418 2.102h1.725l2.495 2.953 2.254.072.632 2.986 2.357 2.739 2.886.071 1.687-3.546 4.259.072-1.407-3.656v-7.24l1.83-.56 1.193-2.426v-.488l7.145-.286.28-2.179 2.215-1.125-.489-3.123-.143-1.757-2.743-2.848-2.462-11.417-2.006-.56-.319.313-.247.351-1.159 1.619-5.771-.702-3.479-5.275.176-6.603-1.797-.911-.105-4.183.671-1.158v-10.226l-1.83-2.426v-1.789l-3.628-5.412h-2.39l-3.023-3.618v-2.426l-3.627-5.412-2.567-4.04-3.023-4.215-3.237-3.968-4.155-5.38-2.247.879-.391 2.777zM0 207.683v12.048h1.198l1.231 2.426.066 1.685 2.325 1.899v1.828l1.231 1.789-.352.56.352 1.197 1.198.67v2.387h1.193l.038 2.355.138.318 1.022.346.033 1.762 1.198.631v2.421h2.99v2.426l4.852 6.609.11 1.685 1.088 1.333h1.199l1.192.105 2.43.494 8.48 6.114.208-.071 1.583-.631h1.792l7.848-6.011v-1.827l3.973-1.757h2.15l6.012-.56 1.23-.565-1.895-7.937 4.853-6.29v-1.092l-.632-1.054 2.885-1.823.736-3.584v-3.024l2.853-5.094-1.165-1.021-.49-.488.984-.456 1.231-1.548 1.407-2.81v-4.814l1.198-3.024v-3.617l-1.198-3.019v-6.011l-1.23-3.551-1.199-.664-1.231-5.412.286-11.28-2.22-.949-5.947.071-8.123-3.688-2.566-2.739-.072-2.427-2.182-5.406-2.286-4.111-3.38.28-6.403-.67-1.934-2.706-3.87-.703h-4.077l-1.231 3.623v2.421h1.23v2.322l1.232.735 1.16-.67v2.426l-1.199 2.986v2.426h-1.192v1.197h-2.43l-1.198 2.421H16.29v5.412h1.192v2.387h1.231l.039 1.093 2.358.735v4.814h1.23v4.215l-1.23 2.388h-1.797l-3.023 2.426h-3.028v1.197H9.64l-3.59 1.191-2.428 2.426-.033 1.723-2.39.665v8.436H0z"/><path fill-rule="evenodd" clip-rule="evenodd" d="M272.853 211.755l-2.11 1.093-.247 2.245-7.002.28-.561 1.476-.39 1.372-2.006.846.143 6.531 1.511 4.463-4.781-.176-1.303 3.162 2.534 4.852 11.607-.039 1.303-3.37 2.99 2.141 2.566-.033-.033 3.09 2.776-2.354 4.786-3.338-.033-3.793-.214-3.584-2.671-5.692-.038-1.581-7.068-5.34-.11-1.724-1.649-.527z"/><path fill-rule="evenodd" clip-rule="evenodd" d="M291.249 169.348l-.033 2.284-6.403 16.23-.143 2.531-1.16 2.777-.28 2.849h-6.331l-9.503-3.48 2.254 10.928 2.676 2.986.176 1.822.489 3.058 1.902.636.033.456.104 1.405 7.282 5.302-.104 1.515 2.781 5.934.209 3.48.071 1.443 15.691.176 3.165-1.164h5.315l2.286 1.444 12.877 11.417v-10.468l-2.605-3.655-1.759-7.591 1.127-1.581.209-6.922 1.198-1.899 4.292-3.227 1.16-4.605-.039-2.251-.665-2.387v-4.814l-2.99-6.642-5.737.11-8.162-5.516-2.495-7.031-1.55-4.6-1.758-.631-.247-.527-3.479-1.62-5.419-.384-4.435 2.212z"/><path fill-rule="evenodd" clip-rule="evenodd" d="M315.843 158.107l-2.924 2.355-2.743 4.528-2.885 5.269 1.55 4.325 2.462 6.889 7.777 5.198 5.66-.104 3.622 7.097-.033 5.055.495 2.393.066 2.317-1.336 4.918-4.501 3.161-1.055 1.828-.143 3.617-.104 3.304-.951 1.477.984 3.903.703 3.441 2.71 3.617.038 9.908 4.715-3.865 3.199-.279v-9.661l2.462-3.831 1.127-4.254 7.738-7.728.071-2.355 9.816-7.306.775-2.563 5.485-.461 1.759-.242 3.308-2.217v-1.054l1.022-1.894 1.759-6.57 2.495-1.795 1.022-.071v-1.471h4.925l1.264-3.129-1.545-2.81.033-4.43 1.726-.664.033-1.021-1.055-1.476-3.693-7.026-1.726 2.492h-4.221l-1.759 1.756-16.289.176-10.448-5.692-.665-1.191-1.621-.071-7.348-3.058-4.82-1.965-.671.736-2.918-1.301-5.347 1.795z"/><path fill-rule="evenodd" clip-rule="evenodd" d="M389.086 149.989h-2.149l-4.891 3.727.038 3.337-2.11.807-4.364 6.01-1.407.033 3.765 7.098 1.198 1.789-.143 1.548-1.725.631-.138 4.007 1.544 2.882-1.544 3.655h-4.611v1.51l-1.335.104-2.287 1.476-1.863 6.395-.989 1.828.071 1.158-3.621 2.492-1.759.285-5.386.351-.703 2.355-9.635 7.339-.071 2.217-7.601 8.009-.984 4.144-2.605 3.798v9.66l1.973 1.197 2.638.384 4.71.143h2.045l4.572 2.003-.351 5.868 7.067-5.236 14.075-.11 8.337-4.776-.071-6.498-1.369-2.602v-3.584l-1.621-.774-.846-2.141-.946-10.434 3.095-5.308 14.388-11.697.632-2.003 4.259-5.237 2.391-.033 7.914 2.986 5.314-5.379-5.419-7.799v-6.044l-2.39-2.986v-1.827l-1.231-2.388 2.423-6.043h1.198l-1.198-4.814-3.621-2.986h-4.221l-2.501-2.245-5.836-.071-.105 1.789zm-275.668-9.133v1.827l-2.677 4.776-1.159.669v2.179l-1.193 1.828v3.579l-3.627 3.024v1.197l-.352 1.542.352 3.272-2.814 2.986h-2.424l-6.617-4.221H78.415l-.528.741-4.084 3.688-2.638 6.499-5.347-2.459-.104 11.104 1.055 4.775 1.445 1.268 1.193 3.442-.138 5.939 1.231 3.2-.07 3.864-1.128 2.81v4.814l-1.374 2.915-1.472 1.58-.704.319 1.616 1.262-3.023 5.341v2.986l-.67 3.902-2.677 1.51.6.878v1.334l-4.82 6.186 1.692 7.832.033 1.795 1.088 1.823.742 2.991v3.019l.808 2.635 8.2 5.445 3.056-.247 4.22-3.618h6.018l1.726-1.125.105-3.688v-3.618l1.83-1.723 1.896-.033 2.286-1.861h3.028v-1.196h1.797l10.866-8.431h3.028l4.221 5.406h4.221v-6.004l1.198-3.025V236l3.022-3.617v-10.226l13.724-11.488-.814-.566 1.407-1.158-4.006-7.168-.039-5.445.671-1.197v-4.6l4.253-2.53h1.622l1.934-.631.775-1.899-.703-2.459 1.302-2.459-.247-5.198-1.055-5.061-8.585-5.939-3.797-2.843-3.413-3.2v-6.603l.599-1.197 1.934-1.405.033-1.477-.599-2.283-1.335-.911v-2.251l-3.446-3.441-3.628-2.108-5.028 4.216z"/><path fill-rule="evenodd" clip-rule="evenodd" d="M190.251 183.12l-2.324.038-1.792 1.23-2.429-.039-1.303.494-3.094-.038-4.853 3.518h-2.709l-.847 1.757-1.192.28-1.407.559-7.881-.071-7.81-.697-.038-1.301-4.359.072-7.496-1.164-1.967.67-1.583-.033-3.803 2.212-.066 4.528-.638 1.301.176 5.061 4.045 7.624-1.231 1.021 1.621 1.015h10.728l10.662 6.186v11.417l.561.422 4.748 3.233.704 1.757v8.151l-4.078 5.132-.742 2.388v2.387l.637.983-.813.285-1.616.56 5.419 4.814 2.391-1.197h.632l2.182-.104 3.204-4.007 2.423-1.581 4.82-2.069 1.621-1.899 1.473.104 3.1-1.685h6.122l.385-2.146 10.832.422 10.278-.279h.879l3.127 2.81 4.292 3.408 1.023 4.359 4.078 4.358h2.533l3.836 1.861h1.616l.775-2.355 3.979-3.722 2.743-2.53-.072-.95.456-1.053 1.621-6.609-1.83-.631-.071-1.899-1.264-3.091-.072-3.584-1.198-2.986-.033-4.671-1.093-4.605-4.221-6.005-.033-3.935.352-.879-1.198-1.652-5.134-4.182h-2.429l-3.023-2.421h-7.216l-3.022-1.197h-.599l-9.08-7.201v-1.828l-6.012-5.412-5.067-6.674-1.336 1.965z"/><path fill-rule="evenodd" clip-rule="evenodd" d="M239.994 226.971l.105 1.789v3.024l1.198 2.986v3.617l1.198 3.025.033 1.685 1.901.735-.494 2.426-1.44 5.374v1.197l-6.93 6.29-.352 1.229 5.485 1.51h14.212l6.051-1.965 3.622-3.447 6.331.214.247-5.659 2.006-1.724.072-2.245 1.901-2.146.105-3.826 1.264-.916.038-2.986-2.077.033-2.71-1.894-1.126 3.019-12.454.071-2.638-5.126-3.127-.072-2.638-2.92-.638-2.739-1.967-.033-2.572-2.92-1.896-.208-.423-1.965-1.44.208-2.006-.033.137.385 1.022 4.007zm185.254-12.718l.318 4.32.033 1.054 1.902.702.033 1.757 1.231 2.986-.033 4.989-1.198 2.986-.072 2.497-2.638 2.882-1.615 2.986.489 1.054-.456.208.28.456-1.72 3.337-1.797.039-.704 1.125-1.792.033-1.406 1.685.527.637-.071 1.086-2.957.456-1.088 3.376-3.622 4.671-.038 2.14 2.918 2.673-.066 9.524 3.622 6.498v1.087l2.039.039 1.407 1.932v1.789l.846.878-2.748-.175 4.507 5.763 4.995 5.654 1.583.142 1.654-2.634v-1.263l3.941-3.831h3.693l1.336-.631 2.319.104 2.325-1.756 1.83.033 1.863-1.263 1.198-.038 2.599-1.191-1.648-4.501v-2.284l-.709-1.262.11-4.183-1.973-3.688 1.302-3.09.072-2.673 1.791-.56-.033-9.771-2.566-2.985-.352-.774v-1.471l-1.341-3.343v-1.751l-.703-2.004 4.786-4.286 2.496-1.828v-4.078h-1.407l.038-2.284-2.885-3.09-.704-3.617-3.204-2.459-.632-.423-.352-.071-.033-2.459-3.412-2.602-2.638-3.409-11.261-.839-.281 1.476.072 3.513zm-99.838 29.124l1.369 16.406 6.193 3.689 1.726.071 1.336 1.581 2.989.741 2.567 1.054 4.963.911.56 1.476 2.358 3.129 2.814.071h1.198l5.172.066 1.231-.137.632-.247 1.83-.143-13.547-23.36.247-5.972-3.941-1.652-6.611-.214-2.957-.456-2.391-1.334-3.028.351-4.71 3.969z"/><path fill-rule="evenodd" clip-rule="evenodd" d="M406.743 191.518l-7.843-3.162h-2.429l-3.907 4.99-.632 1.932-14.389 11.944-2.918 4.885.28 3.902.671 6.356.665 1.971 1.687.84.039 3.831 1.335 2.497.071 6.85-8.656 5.165-13.965.072-7.314 5.335 13.574 23.053.814-.109 3.55-.033h36.344l2.99.774 4.605 1.158.039-9.238-2.957-2.673v-2.388l3.589-4.814 1.231-3.617 3.023-.247.071-.774-.56-.669 1.687-1.932 1.758-.033.633-1.159h1.83l1.055-2.074.456-1.054-.313-.494.417-.242-.417-.949 1.648-3.162 2.573-2.849v-2.426l1.192-3.019v-4.813l-1.192-2.986-.039-1.724-1.759-.702v-1.191l-.313-2.394-.319-5.445.209-1.542-2.599-.247-1.83-3.024.104-5.797v-1.053l-.071-.319-8.475-7.871.071-4.599-5.314 5.269zm-105.751 40.793l-15.652.072v1.789l-4.996 3.442-4.677 3.798v3.617l-1.797 2.388v2.426l-1.896 1.548-.423 5.796.033 12.509 1.302 4.32-.143 4.391 1.759 2.667-.176 2.953 1.094 1.757 1.72 1.548 6.051 6.005 4.331 2.497 2.182 1.756 1.687-.032 4.292 2.459 1.193-.039 2.995 1.125 1.687.143 1.16-.637 3.165.11 1.303.703 3.38-.105.703.105 3.232-3.162 4.402-3.129 2.424-.032 3.341-4.748 1.094-2.772-.566-2.108 1.055-10.928-.066-14.721-1.407-15.287-13.509-12.152-1.83-1.197h-4.924l-3.523 1.125z"/><path fill-rule="evenodd" clip-rule="evenodd" d="M326.779 274.576l-1.16 10.785 1.022 3.057.138 3.936 4.996 5.094 7.144 4.325 6.93-4.638 3.413-5.341 3.869-9.205.209-2.569 2.429-2.387 2.99-1.158 1.022-3.656-1.165.176-9.464-.176-3.022-4.528-4.644-.846-2.567-1.092-3.165-.702-1.517-1.543-1.583-.071-5.699-3.584-.176 14.123zm-134.978-27.544l-6.265-.142-3.094 1.69-1.479-.071-1.511 1.718-1.863.774-3.028 1.301-2.43 1.652-2.989 3.793.247.351.033 4.676-.874 2.317-.038 6.954.175.845 1.336 4.183 7.353 7.553.072 6.817-10.376 14.441-2.99 2.069-1.478 7.136 2.214 1.295 2.99 2.498 5.276-.247 2.429-3.123.775-.11 6.364-.84h2.182l3.095 1.471.95.038h2.534l2.709-.208 7.563-4.852 4.715-2.844 7.843-3.057 2.781-1.619 3.308-.351 5.243-3.299 2.391.066 4.996-3.93 24.203-7.207 2.006-1.016 2.248-1.268 10.695-8.326.105-4.073-1.264-4.358.033-12.542-6.293-.176-3.347 3.299-6.189 2.179h-12.134l-2.468.038-3.375-.982-2.11-.598-.352.878h-2.253l-3.693-1.899h-2.71l-4.325-4.71-.808-4.319-3.589-2.602-3.94-3.266-11.789.28-9.249-.423-.561 2.146z"/><path fill-rule="evenodd" clip-rule="evenodd" d="M257.689 289.055l-.742 7.553 1.83 2.53v1.79l3.133 4.814h1.055l1.231 2.497.951 7.306.879-.247v1.372l1.193 1.789v2.426l2.429 3.585h.599l3.622-1.795 3.028-3.019h1.193l8.447-3.584h16.284l4.221 1.191 6.37 2.706.984.949 7.633.039 1.869-1.197 1.264.774 3.589-1.899 2.39.038 2.391-1.756 1.869-.039-1.231-1.262-1.023-1.691v-2.986l.984-3.792-.384-1.652 4.534-3.371-6.931-4.182-5.237-5.269-.215-4.254-.769 2.25-3.627 4.989h-2.391l-4.397 2.739-3.275 3.552-.841-.176-3.589-.038-1.231-.664-2.99-.039-1.159.637h-1.83l-3.029-1.197h-1.192l-4.227-2.387h-1.791l-2.429-1.9-4.221-2.387-7.843-7.838-1.198-1.828.214-2.986-1.83-2.635-10.486 8.607-2.424 1.163-1.654.774zm197.143-68.128l-.072 1.718-1.758 1.301v1.795l-1.792 2.426v1.79h1.198v4.813l-2.638 1.932-4.611 4.112.632 1.789v1.828l1.198 2.986v1.827l.352.632 2.671 2.953v10.297l-1.83.56v2.387l-1.193 3.025 1.792 3.617v1.196l-.033 3.058.67 1.158v2.421l1.721 4.638-2.957 1.372h-1.193l-1.83 1.196h-1.792l-2.429 1.828-2.429-.071-1.16.664-3.731-.071-3.622 3.622.038 1.191-1.725 2.811v.565l-.632.911v1.197l-3.029 4.814 3.622 4.215 4.227 1.197 4.677.351.494 1.158-.319-.28.704.033.494-.033v1.789l1.193 3.025v4.215l2.429 1.191 1.759.039.632 1.158h1.83l1.792 1.197 1.236 1.827v1.79l1.193 1.827.104 1.159.528 2.321 1.759.736 1.055-.143h.176v.176l1.198-.033 2.429 1.789 4.221 1.795 3.589-2.986v-2.426l1.231-1.789v-1.828l1.192-1.795v-1.789l6.65-6.642v-1.789l5.386-4.852.632-2.986h10.272l1.792-3.019 7.249-2.393h9.04l1.831 1.196 2.286.105-.248 2.354 4.045 3.832.072-10.012 2.814-2.004 1.83-.071 2.742-1.092 1.127-2.772-.071-4.885 1.269-3.019-.104-3.623.632-1.158-.105-4.182 1.193-3.091.038-6.603 2.71-.038 1.583-2.421-.039-6.537.704-2.953-3.798-4.814h-5.419l-3.023 1.197h-6.018l-2.429-2.986v-1.828l-2.528-3.057.737-1.757-.633-1.196v-5.407h-2.396l-1.231-2.426h-2.39l-3.023 1.23h-6.018v-1.23h-3.622v-1.197h-3.627v-1.191h-5.414l-1.934-3.128-1.094 1.262-1.83-.56v-3.617h-2.319l-.671-1.196.599-2.388-1.863-1.268.665-1.158H467.5v-1.79h-7.848l-4.82 2.986zm-332.268 1.477l.039 10.044-3.133 3.727-.071 1.614-1.264 3.096-.072 6.46-4.853.072-4.188-5.55-2.676-.038-10.8 8.398-1.654-.033-.066 1.23-3.204.071-2.286 1.894h-1.687l-1.583 1.514-.039 4.639-.175 2.738.214 1.406 10.832 9.029h2.43l3.797 3.441 3.451 3.76 1.792 2.426 2.429 3.019v1.197l.632 2.146 9.074 8.431 9.359 11.065 3.837 6.604-9.745 13.14-3.165-.176-1.589 1.691-.879 1.894.918 1.547 1.792 3.019 4.858 3.025 24.731-10.857v-6.603l3.199-5.237 6.441-2.003 2.567.494 1.687-7.169 2.814-2.075 5.562-7.519 4.852-6.603v-6.604l-2.253-2.497-.456-.423-.28-.066-4.221-4.462-1.583-5.132.176-7.201.879-2.322.066-4.424-.346-.39-2.71.104-2.643 1.652-6.436-5.692 2.149-.839v-3.2l.77-2.635 3.979-5.022.208-7.904-.67-1.581-5.452-3.727.072-11.313-10.168-6.01-10.728-.066-1.231-.774-13.3 11.56z"/><path fill-rule="evenodd" clip-rule="evenodd" d="M165.271 353.983l4.858-.598 2.99 2.388v4.813h1.231v2.427l.594 3.018 2.396.599 1.231 2.387v-.175l1.193-.417 1.198.592 1.198-.592 1.824.592 1.199-.592.494.241 3.726-.241 5.348.878 1.302.313 2.391 4.846v1.197l1.231 2.388 1.198 1.229 8.304.286.737.911h1.231v-.209l1.198-1.619 1.193-2.986 2.11-.878 5.738-6.955v-3.024l.775-1.438-.99-2.426-1.582-2.141-.066-3.057.665-1.164v-2.387l1.797-2.421-.143-1.477 5.452-7.662.104-1.087 1.165-.774 1.649-2.459 2.644-3.408 7.243-4.814h1.797v-1.197h3.023l3.622-3.617h1.797l1.792-1.196h.637l2.99-1.192 6.293-5.692 2.643.28-.885-7.064-1.016-2.245-1.127.072-3.484-5.237v-1.795l-1.792-2.42.808-7.558-23.852 6.992-5.309 4.183h-2.429l-5.172 3.304-3.27.313-2.638 1.724-7.81 2.914-4.188 2.602-8.304 5.412h-1.192l-5.243.209-3.062-1.581-2.039.038-6.683.983-2.78 3.266-1.935.032-1.869.215h-1.615l-3.869-3.025-1.935-1.087-2.742-.527-5.947 1.79-2.852 4.852.247 6.674-26.034 11.631-5.347-3.48-2.039-3.161-.176-.878-.913 1.509-4.292.703-3.094 1.97-1.621.066-3.309 2.569-.951 2.525.11 1.828.704 1.756v2.426l-.039 2.316-7.172 6.713-3.589.527-2.253 1.724-2.462.033-3.166 2.53v1.197l-.461 2.003-.632 1.542.176 4.885 1.126 2.427 1.231.664 1.726.351 1.726.527 2.352 1.444 1.302.664 1.094.527 1.473.598.95.631 1.303.703 1.094.494 1.264.598 2.358.598h.599l3.023 1.191h7.249l1.192 1.548 8.975.209 1.302-1.757h2.391v-1.191h2.424l4.82-6.01h2.429v-1.197h1.797l.033-2.459 1.16.637v-3.024l2.429-1.191v-2.394l6.65-6.641h1.791l1.798-1.191h4.22v1.191l1.721.071 1.445 1.861 1.687-1.932h1.797l1.193-3.019v-2.388zm238.268-38.543l-6.507 3.058-.704 1.756v6.636l5.419 4.814 3.023 3.024h1.198l1.55 1.158 4.468 2.427v2.42l-.599 4.221-1.198 1.191 1.198 3.025v2.387l3.023 5.445v7.8l-1.193 2.426h-1.83l-.599 3.019v1.795l-2.391 1.191 2.391 1.229 7.848 4.183v-1.197h3.023l2.39-1.789h3.028v-1.197h1.831l4.22-.631 1.792-1.191h.599l3.061.066 1.16-.664 2.429-.423 1.369-.209 1.022.033 1.83-1.196h2.391l3.028-1.23h1.192l2.886-.839h3.38l-.072-.423.105-.67-1.44-2.283v-4.216l3.589-3.584 1.231-6.043h-1.231v-9.029l-1.198-3.617h-2.391l-2.429-1.795h-1.198l-1.264.071-1.16-.67h-1.198l-1.336-1.542-.247-.247-.209.033.033-1.295-.67-1.164-.105-1.789-.489-2.426-2.429-2.388-4.853-2.531-1.693.632-1.407-1.757.742-2.387v-1.795l-1.231-2.421v-1.795h-6.018l-7.842-7.201-4.82-.631v-1.197h-1.83l-6.788 5.236-5.88 6.186z"/><path fill-rule="evenodd" clip-rule="evenodd" d="M222.582 372.042l-.286 3.304-.912.911-.599 1.789-.599 2.706v2.108l1.198 1.828.105 1.685 3.517 3.129h6.65l4.221-2.426h1.791l3.765-1.823-.066-.175-.67-3.409 2.605-4.007 3.413-3.831h1.824l6.051-4.216.566 1.828h1.83l1.089.072 1.901 2.316h1.863l.561 1.828h2.429l2.391.598.423-.143 3.204-1.054 2.424-3.617h2.995l2.424-3.617h2.429l2.989-1.197h3.023l3.66.95 1.374-.038 1.017.247 1.198.636h1.792l6.051-4.221v-1.789l2.253-2.075 5.452.072.143-.423 1.302-.247 2.287-.944V357.6l.137-5.269-3.726-4.989h-2.429l-5.419-8.398v-1.23l-1.231-2.986v-3.024l6.65-9.029h1.797l3.55-2.459-6.051-2.564-4.116-1.196-16.147-.033-8.442 3.655-1.126-.038-3.023 2.914-3.66 1.9h-1.022l-2.567-3.865-.033-2.354-1.231-1.757-.11-.982-.736.175-2.463-.279-6.155 5.582-3.237 1.268-.703.033-1.759 1.125-1.687.038-3.595 3.546-2.704.071v1.191l-2.182.039-6.968 4.671-4.221 5.621-1.127.812-.137 1.054-5.243 7.552.176 1.301-1.83 2.882-.033 1.861-.632 1.476-.039 2.772 1.511 1.795 1.127 2.772-.665 1.723-.104 2.953-5.7 6.955 6.227-2.843zm137.655-99.256l-1.023 4.04-3.061 1.158-2.182 2.251-.351 2.354-1.825 4.743-2.116 4.671-3.479 5.516-11.821 8.222.28 1.614-.984 3.584-.104 2.849.95 1.581 1.583 1.723 3.589 7.515-2.358 1.476-2.149.039-2.319 4.495v9.66l2.248.741 1.621 1.016h1.863l1.512 3.057 3.275-.033 1.231.664 1.721-.032 3.412 1.509-.032 2.497 1.863 2.388-.033 2.426 1.791 2.459.039 2.212 2.847 2.706.983.143 1.869-.039 1.407 2.18 3.413-.917-.182-.351 3.661 1.301h4.221l2.989 1.229h.599l3.062-.066 1.159.664 1.83.039 1.797.56 4.221 4.813 9.673-3.617 8.442 6.636 1.198-1.822v-1.828l1.83-.565v-2.421l3.589-2.393.104-6.285v-1.125l-.071-.39-3.023-5.445.033-3.057-.632-1.158v-3.617l1.791-4.814-4.22-3.024h-2.429l-2.99-.599-.138-1.685-1.093-1.334h-2.391l-1.83-4.215-1.193-1.795v-7.234l7.244-6.609h1.797l10.272-10.857h4.82l4.819 1.828 3.023-4.814v-1.828l-4.82-5.406-4.957-6.362 2.671.214-.423-.389v-1.79l-1.193-1.795-2.149-.104v-1.196l-3.726-6.357-7.672-1.827-9.354-.176-9.398.033-21 .143-3.27.247-.351.175zM45.314 252.62l.033 1.614-8.656 6.713-1.583-.072-1.934.774-8.617-6.537-2.325-.455-1.121-.143-1.127-.071-2.605 2.25v1.795l-.143.455-.945 2.915v13.245h1.192v3.622l7.25 6.636v1.795l3.022 2.426v6.603l-3.023 3.019h-3.061l-.56-1.827h-7.849l.072.214.527 1.613v1.795l3.622 5.412v2.421l-3.622 2.387v1.828l-1.198 3.025v5.412l-.56 2.739v6.076l-.632 7.415-1.127 1.828-.67 1.789.527 1.686-1.758.741-.138 1.509.49.631-.352-.351.143.812-1.336 2.212v5.412l1.193 1.79.071 1.723 1.759 1.301v1.789h1.198l.137 2.284 6.513 6.817 1.088-.598 1.303 1.756 1.758.039.665 1.158h1.797l1.83 1.191 2.919-.105h.527l.176.176-.033 1.158h1.83l1.792-1.229 2.5-1.718 1.72-1.268 2.43-1.23 2.43-.592v-6.011l4.814-1.828 4.82 4.216h3.028l3.621-3.057 1.094.598 1.297-1.757h3.028l3.023 3.025 1.693.137 1.302 1.054v1.828l3.023 1.795 1.797 1.822 4.221 4.287 3.798-.176-.215-2.81v-1.23l-.033-4.215.67-1.197.386-1.789.038-2.108 6.293-2.81 1.692-1.548 4.079-.774 6.331-5.901.143-1.827.033-2.355-.808-2.069-.138-1.653.704-1.723.945-2.355 3.237-2.075h1.83l2.99-1.789 4.221-.67 1.478-4.391 2.149-2.14 2.847.247 9.321-12.581-3.446-5.9-9.041-10.896-9.497-8.886-.67-2.564-.104-1.053-3.908-4.957-3.27-3.617-3.309-3.162h-2.462l-11.255-9.452-.28-1.372-1.446 1.021-6.084.033-4.292 3.513-3.38.28-8.442-5.654-1.055-3.09.105-3.024-.737-2.843-.984-1.9.072-1.301-1.198.67-6.266.598h-1.791l-3.55 1.581z"/><path fill-rule="evenodd" clip-rule="evenodd" d="M331.182 319.058h-1.232l-1.198-.033-3.66 1.893-1.16-.664-1.797 1.23h-7.842l-.984-.879-3.622 2.635-1.764-.038-6.227 8.749-.104 2.673 1.231 2.915.11 1.509 5.061 7.767 2.534.104 3.836 5.236-.28 6.922-2.572 1.087-1.193.214-.423 1.334 1.968 4.319v6.011l-1.792 3.617v1.196l1.231 2.421-.632 4.215-1.231 2.394-3.589 2.426v3.578l2.99 4.216 1.83-.593 1.792.593 2.429-1.191h.247l6.892 2.492 2.286-1.79h1.446l.912-.208h.247l.561.241 9.112-9.342-.033-6.608 3.693-1.51 3.693.072 3.095 1.158h2.22l2.775-.67 4.227-3.337 3.479-4.111.742-4.177 2.319-3.233-.913.28-1.374.351-.384-.318-1.231-1.894h-1.693l-1.127-.11-3.198-2.81v-2.388l-1.792-2.426v-2.388l-1.83-2.42v-2.426l-3.028-1.197-1.83.071-1.16-.669h-3.55l-1.303-3.019h-1.797l-1.83-1.054-2.391-.741v-10.22l2.429-4.814h2.391l1.83-1.229-3.484-7.273-1.968.066-2.39 1.795zm290.752 40.332v-13.245h-1.231v-3.617h-1.193v-3.584l-1.198-1.828-.038-1.757-1.193-.631-.352-.774.352-1.652h-1.198v-2.388h-1.193v-2.426l-.143-.104-1.088-2.915v-1.795h3.622v-1.191h1.231v-2.426l1.198-1.795v-7.234l-1.198-3.617h-9.074l-1.198-2.393h-3.621l-2.996-1.828.039-.17.56-1.619v-6.603l4.82-3.623.039-2.915 1.159-.702h-1.198v-3.617h-1.192v-2.394l-.599-2.069-.039-.774-.703-.67-3.518-3.123-.071-1.723-1.72-1.301-1.759-1.828-.813-.84h-1.089l-.456-.422-.038-.527-1.896-1.795-1.759-.033-.632-1.158-1.693-.143-2.533-2.283v-1.79l-1.193-1.794v-5.445h-1.231v-2.388h-1.198v-2.426l-1.198-1.79v-1.794l-1.231-1.828.11-1.51v-.28l-.072.033v-1.262l-1.83-.598v-2.388h-1.198v-1.197h-3.622l-.033 1.653-9.007.735-2.43 3.623h-3.621v1.191h-4.82l-1.83 1.196-1.688.072-1.302 1.756-2.319-.527-1.303 1.718h-3.028l-1.193 2.426-2.429 2.388-2.391 1.197v2.426l-2.286 1.229-.742 2.986v6.603l-1.83 3.025h-2.391v6.004l-1.198 3.025.039 4.248-.671 1.164v3.617l-1.192 3.019v4.814l-1.094 2.986-2.99 1.229h-1.83l-2.391 1.795-.176 10.154 4.502 4.287 1.687.072 2.676 1.822 2.567.038 4.364-1.69.95-1.405 3.974-.665 4.364.033 3.198 5.237-.066 2.563 1.193 3.024-.072 1.861-.736 2.53-3.66.912-5.348 3.447-5.699 5.9.038 2.316-1.901 2.427.071 2.914-1.797 3.689v6.153l1.797.488-.071 3.864 3.556 6.011-.039 2.459 2.254 2.003.983.209h1.198l2.743 1.828 2.253.494 2.918.071 1.199.735 4.253-.071 5.068 5.061 6.65 15.424 4.006 2.354 4.331-.28 1.126-2.283 3.798-1.197-.984-10.928.138-1.652 1.692-1.932h1.792l1.792-1.23h1.83l1.797-1.191h1.83v-1.196h8.442v-1.197l7.881-.033-.638-1.196 4.227-4.216v-2.986h7.809v-1.229h1.825l1.797-1.191 1.687-.143 1.935-1.652 1.231-2.426z"/><path fill-rule="evenodd" clip-rule="evenodd" d="M296.457 368.809l-2.396.137-1.264-.735-.736-.143-1.517-.033-3.589-.95-2.885.039-2.918 1.229h-2.248l-2.254 3.266-3.165.143-2.182 3.513-4.012 1.471-2.534-.807-2.638.11-.527-1.795h-1.83l-1.864-2.388-.983-.104h-2.039l-.462-1.477-5.837 3.936-1.687.033-3.099 3.655-2.671 3.793.775 3.727-4.155 2.141-1.721.033-4.154 2.393h-1.44l-1.198 4.32v2.387l1.198 3.025v.598l1.055 2.141.599 1.613.385.143.39.917h1.791v3.019l6.65 4.813h4.221l1.792.033 3.028 1.164h1.792l3.061-.038 1.198.669h2.99l3.622-1.229h2.429l2.99-2.986 1.582-.072h.248l.033.176 1.159-.735h7.848l5.419 5.444 6.051 6.005 2.358.039.703 1.015 5.381 1.372 2.286-3.688.737-1.757h9.046l1.192-.071 1.831-.598v-1.724l1.791-2.42v-5.412l-1.791-2.426.67-6.005-.11-4.501-2.391 1.229-1.83-.664-1.896.664-3.275-4.457v-3.974l3.693-2.42 1.127-2.355.566-3.831-1.231-2.426-.039-1.581 1.863-3.546v-5.659l-2.105-4.462.281-.911-5.035-.072-1.934 1.724-.033 1.893-6.156 4.43zm222.93 27.296h-1.231l-3.622 3.024h-1.797l-3.621 2.426h-6.65l-7.843-3.48-2.99-.741h-5.452l-2.396 2.393 1.198 3.618h2.391l.143.526 1.088 1.861-.28 1.795-.319 4.847-6.645 6.608h-2.396l-9.04-2.991.599 6.01.038 2.459-.637 1.158v3.025l-4.71 1.828-.11.208-.632 1.548h-5.419l-10.272-7.136-3.622-.664v11.417l-.56 1.757 1.192.669v2.388l3.627 3.376h.561l.033.241h.599l3.028-1.191 1.231-.071 1.16.669 2.253.313 2.704 1.197-.137-.319.456.352-.456.845v1.229l1.231 1.79 3.589 3.024 22.269 9.661.665 1.158 10.272 7.24h1.797v2.387l1.792 3.617v4.814l1.83 3.623h3.028l.104-1.054v-.176l-.104.066 3.622-.033 1.159-1.789 1.83.593 3.765-3.65-.742-2.394v-2.387l1.198-3.019v-.598l1.231-3.025v-2.387l.105-1.79.494-2.426 1.198-1.828v-3.617l4.221-5.412h1.792l2.429-1.191v-1.795l4.221-2.426v-2.388l-1.055-1.86-.737-2.355 1.792-1.23v-2.387h1.198v-2.426h2.424l1.198-1.79 1.231.593 1.16-.56 1.868.599 3.023-1.9 1.159.67 2.43-1.828v-4.814l-1.198-1.794-1.232-4.814-6.611-7.234-3.836-2.811-3.413-3.2-3.023-4.814v-1.827h-2.396l-1.825-1.191h-3.627l-2.99 1.191z"/><path fill-rule="evenodd" clip-rule="evenodd" d="M498.245 307.641l-4.221.598-1.198 2.349-4.221 1.268h-6.012l-5.458 4.814v1.191l-.351 1.164.351 2.459-6.468 4.847-.742 2.953v2.42l-.209.527-1.621 1.899v2.388l-4.815 3.024v9.628h1.193v3.019l-1.193 6.01-3.028 1.789.599 6.044v2.393l10.272 12.048v1.789h11.47v-1.646l2.989-.741h1.831l1.791 1.794v1.823l7.211 3.024.632 1.158 2.467-.247.808.566.352.911h6.65l2.99 1.196 1.758.033.665 2.393 2.886 2.179 1.583-.532-.248-.456.742.039.456-.039 3.029-1.191h4.82l1.231-.038 2.39 1.229h1.198l1.896 2.921 2.325 1.893 5.59 7.064 5.875 6.779 4.819 7.838 4.859 7.8 2.918-.071 1.303-1.757 1.088.56 1.126-1.476.215-.242v.033l1.72-.071.67-1.159 1.688-.104 1.934-2.322 1.759-.033.632-1.158 1.759-.038.67-1.191h1.792l4.858-5.868 2.391-.741v-1.789l.038-1.197.561-1.828h1.83v-7.832l-1.83-3.025h-1.759l-.632-1.191h-1.83l-1.797-1.196h-1.231l-3.622 1.196-1.198 2.421h-4.82l-4.221-2.421-6.644-15.637-4.82-4.814-4.259.038-1.16-.636h-1.198l-1.792-.105-2.429-.527-2.429-1.789h-1.193l-1.093-.143-2.534-2.283v-2.388l-3.622-6.01v-3.656l-1.83-.56v-6.641l1.83-3.617v-2.986l1.797-2.426v-2.388l6.051-6.043 5.452-3.442 3.446-.812.737-2.349v-1.828l-1.193-2.986v-2.426l-3.028-4.957-4.078.072-3.693.527-.671 1.372-4.82 1.789h-3.022l-2.397-1.789h-1.83l-9.041-8.431h-1.791l-3.622-2.426h-6.051l-3.028 2.426z"/><path fill-rule="evenodd" clip-rule="evenodd" d="M407.166 376.856l-1.797.702v2.316l1.198 5.412v10.226l-.775 6.499.775 10.961.599 1.828-1.687 1.334-2.534 2.849 6.26 2.212 6.403 2.003h1.83l1.231-.038.143.318 1.017.351h1.231l6.018 2.388 6.051 6.01 1.83-.038 1.159.67h1.83l4.82 2.387v-11.417l2.391-2.426h.632l1.797 1.197 12.064 6.043v1.197h3.028v-1.197l4.82-3.024V414.8l3.022-1.229 1.16.104 10.31 2.668 1.935-3.299 1.654-3.689.033-1.196.599-1.9-2.429-.526-2.424-4.178-.143-2.074 3.837-4.496-.039-.812 1.022.247 1.374.494h2.391l2.391.104 4.853 1.087v1.23l6.649 1.794h4.221l1.797-1.196 1.726-.066 1.264-1.724-.56-1.827-1.831-1.79h-2.396l-1.824-1.229-4.155-.11h-.775l-.456.176-1.231-.066-10.305-5.275-2.358-.736v-3.024h-2.429l-2.429 2.426h-10.833l-2.429-1.196v-2.421l-5.413-4.814-4.226-6.641h-3.023v1.827h-3.622l-2.99 1.197h-1.83l-1.231-.038-2.396 1.229-1.792.039-3.028 1.191h-4.221l-4.82 1.795-1.791.175-2.957.489-1.303 1.756-7.21 1.795-7.282-4.885-1.16.67h-1.231z"/><path fill-rule="evenodd" clip-rule="evenodd" d="M406.601 414.695l-.632-1.619-.984-11.098.984-6.395.071-10.264-1.231-5.302.033-2.811 1.902-.807-9.92-7.975-9.673 3.546-4.259-5.022-1.726-.566-1.863-.071-1.088-.593-3.627.066-3.062-1.263-4.253-.071-3.095-1.158.066.143-.945.241-2.429 3.584-.737 4.183-.423.456-3.204 3.759-4.254 3.48-2.989.736h-2.397l-3.022-1.23h-3.622l-3.028 1.23v6.608l-9.64 9.623-.561-.242h-.28l-.989.242h-1.193l-2.396 1.827-6.996-2.81.137 4.677-.703 5.9 1.83 2.426v5.478l-1.863 2.426v1.828l-2.039.664-.638.071 1.198 4.606 1.231 1.827 1.792 4.814-.033 1.23.632 1.158v2.426l3.028 3.617 4.221 2.986 3.798 3.442 8.903 6.076 2.462.461.423.104.105.209v1.756l-.495 1.691 1.687 1.932h1.831l4.22 4.813h12.668v-1.196l2.424.143 8.903-.813.737-1.756h2.99l1.83-3.019 2.989-1.795h9.041l1.231-2.388h2.429v-2.42l-3.022-4.221-6.051-2.388v-3.019l-1.198-3.024v-2.986l.104-1.789.495-2.426 4.82-7.24 5.451-1.79h3.622l5.98-.878 2.605-2.882 1.687-1.158z"/><path fill-rule="evenodd" clip-rule="evenodd" d="M387.888 455.731h-5.452l-5.419 2.387-1.193 2.426h-2.429l-2.429 1.795h-1.193l-1.83-.038-1.198.631-1.687.038-2.534-.038h-.599l-3.023 1.196h-12.668v5.445l.215.56 1.616 2.426 6.017 3.618v2.426h3.622l1.198 3.617v2.393l-1.198 3.019v2.986h1.198v1.229h8.475l2.99 1.795v1.79l6.051 3.024v1.191l3.627 1.23h.594l3.028 1.196h10.239v1.197h1.791l.632.949h5.276l5.562.242v1.229h9.673l2.39-1.229.143-1.652.913-1.016 2.709.072-.137-.39.417-2.668-.417-8.189-10.239-15.034-1.654-2.602-1.583-3.233-4.012-4.989-4.82-3.617-10.272-6.642-2.39 1.23zm11.43-33.73h-4.82l-1.791 1.197h-2.429l-6.612 9.66v1.197l1.792 3.617v2.388l2.533 2.321 6.507 4.918v4.216l-.593 1.756 3.056.632.566 1.827 1.758 1.828 13.333 12.015v1.795l3.765 2.843 3.446 3.793 3.627-4.248 5.452-2.388h1.193l1.165-.143 3.055-.455 3.628-2.426 3.621-3.584v-2.421l2.391-4.221.352-.313 2.676-2.706.033-2.881 1.759-.703 1.83-4.814-7.243-5.445-.11-2.283-1.088-1.301-5.452-2.426h-1.198l-1.759-.247-1.902-.84-2.885-.741-.704-2.388-1.791-1.191h-1.83l-.599-1.827-2.567-.846-2.814-1.054-.632-.494.138.039-1.336-.039h-3.023l-1.83-1.191-4.221-1.229h-1.198l-1.863-1.054-5.386-1.339v1.196zm-129.246-11.208l-1.583.072-2.989 3.128-2.43.033-3.588 1.158-3.237-.033-1.193-.631-4.787.066-3.094-1.191-5.875-.038 3.622 2.041-.561.209-4.259-.209v3.585l-1.83 1.229.071 1.718 1.759 1.268v1.828l1.198 1.789v4.814h1.198v3.617h1.192v1.795h1.232v1.828h1.198v2.388h1.192v9.66h1.231v6.603l2.397 3.623h1.83l.632.949h3.022l2.957.247 1.231.593 1.198-.593 1.792.593.599-.593 1.687.944 1.023-.488-.281-.456.88.209.912.384.632-.593 1.797.593.594-.593 1.83.593.599-.593 1.797.593.599-.593 1.825.593.599-.593 1.231.665 1.093-.599 1.336 1.795 1.16-.67 6.05 6.044.105 1.301v.247l-.105.312 3.589 2.355 1.231 2.388.072 1.723 1.791 1.334-.384 1.092.313 1.263 1.693.143 1.368 1.125-.632 1.158h3.028v1.196h2.391v1.192h2.429l1.193 2.426h10.272l3.061-3.656-.665-1.158.593-.598-.527-1.718 1.758-1.301v-1.795l1.199-1.828v-11.417l1.055-1.828.879-3.721h13.262l3.028 1.229 4.325.489-3.27-4.215h-1.973l-2-2.388.527-1.724v-1.366l-2.605-.527-9.008-6.362-3.764-3.266-4.293-3.161-3.061-3.799-.104-2.316-.737-1.197.143-1.333-1.797-4.71-1.198-1.861-1.231-4.671-9.107.066-.599 1.62-2.5 3.897-5.595-1.477-.704-1.087h-2.319l-11.541-11.279-7.634-.072-1.297.846-.143-.352z"/><path fill-rule="evenodd" clip-rule="evenodd" d="M452.897 447.859l-1.687 4.254-1.792 4.216-3.028 2.986-2.429 4.813v1.828l-3.023 1.79-2.39 3.622h-1.831l-2.077 1.016-3.374 2.107-1.693-.455-4.925 1.548-2.39 4.813v1.191l.209.599 1.621 2.387 1.193 3.656v10.824l.038 1.191.561 1.691 4.819.735h2.43l3.588 1.79 4.853 4.221 4.677 4.352 4.925 3.936 3.061-.456.11-.247 1.088-2.141h2.429l-1.231-2.426h2.424l4.226-4.813h4.221l1.055 1.827.736 2.388h1.231l3.622-.247 1.655-1.367 1.335-1.405 1.726-.071 1.901-2.322h1.83l1.792-1.229 2.852.351 2.144-1.016-.176-.526.879.065.951-.065 1.792-1.197h6.051v-1.197h2.396v-1.229h2.424l1.797-1.191v-2.393h1.192v-4.216h-1.192v-3.617l-3.204-2.212-2.215-3.798.071-4.776v-.845l-.104-.241-1.797-.774v-3.623l-5.205-4.424-6.227-3.409h-1.231l-1.797-1.196-1.759-.033-.665-1.158-9.04-2.426-2.397-2.388-10.271-4.814v-2.426h-1.198v-3.617h-3.023l-1.902-.598-.632 2.387z"/><path fill-rule="evenodd" clip-rule="evenodd" d="M428.908 583.94h7.809l.632-1.795v-6.044l2.391-2.985v-3.618h1.198v-1.196l2.286-.137.665-.917 2.534-2.003-.632-1.159 1.797-2.426 4.111.039.709 1.789.209.143 1.616-.774h6.018l3.028-2.986.033-1.757 1.088-.669.671-3.617h1.335l-.736-4.183v-2.426l-2.99-1.789h-4.226l-1.825-1.23h-.176l-1.478-.143-3.836-3.474.67-1.197-.599-2.387h-1.198v-8.431l1.797-3.025-.599-1.196.599-1.789.033-.879.28-.878-.28-.774-2.424-.494-17.52-14.436h-7.25l-1.159-.038-2.006-.247-2.253 2.81-.594-.137.418.807-.418 2.212-1.198 2.986v4.221l-1.83 3.019-1.654.142-1.968 1.686v1.789l-1.198 2.393-1.792 1.23.594 2.387h-1.193v1.23h-1.863l.632 1.196-1.863 1.23.632.807.104.175-.032.247-1.902 1.158.665 1.192-.594.598.594 1.795-1.825 2.426v3.019h1.231v1.196l2.391 1.191 6.65 4.216v2.426h1.193v2.388l1.198 3.024v7.201l-1.127 2.322 1.726 1.295.632 3.025-.247 2.387-.385 4.216h2.429v1.229h2.424v1.197l2.396-1.197h2.424l3.028 2.394z"/><path d="M620.104 583.939h1.83v-1.794c-1.831.494-1.336 0-1.83 1.794z" stroke="#000" stroke-width=".23" stroke-miterlimit="10"/></g><defs><clipPath id="clip0"><path fill="#fff" d="M0 0h622v584H0z"/></clipPath></defs></svg>